<?xml version="1.0" standalone="no"?>
<!DOCTYPE svg PUBLIC "-//W3C//DTD SVG 1.1//EN" "http://www.w3.org/Graphics/SVG/1.1/DTD/svg11.dtd" >
<svg xmlns="http://www.w3.org/2000/svg">
<metadata>
Created by FontPrep 20130207 at Fri Jan  6 15:58:38 2017
 By Mike Borsare
Copyright (c) 1994 Carter &#38; Cone Type, Inc. All rights reserved.

The digitally encoded machine readable software for producing the Typefaces licensed to you is the property of Carter &#38; Cone Type, Inc. and their licensors and may not be reproduced, used, displayed, modified, disclosed or transferred without the express written approval of Carter &#38; Cone Type, Inc.
</metadata>
<defs>
<font id="b27b23f39781b88bedc6e519ef754c9f" horiz-adv-x='1024' >
  <font-face 
    font-family="BigCaslon-Medium"
    font-weight="500"
    font-stretch="normal"
    units-per-em="2048"
    panose-1="2 0 6 3 9 0 0 2 0 3"
    ascent="1638"
    descent="-410"
    x-height="969"
    cap-height="1475"
    bbox="-817 -801 3715 2404"
    underline-thickness="40"
    underline-position="-252"
    unicode-range="U+001D-10089"
  />
<missing-glyph horiz-adv-x="1024" 
d="M727 1403h-430v-1253h430v1253zM877 0h-730v1552h730v-1552z" />
    <glyph glyph-name=".notdef" horiz-adv-x="1024" 
d="M727 1403h-430v-1253h430v1253zM877 0h-730v1552h730v-1552z" />
    <glyph glyph-name=".null" 
 />
    <glyph glyph-name=".null" 
 />
    <glyph glyph-name=".null" 
 />
    <glyph glyph-name="nonmarkingreturn" horiz-adv-x="1024" 
 />
    <glyph glyph-name="space" unicode=" " horiz-adv-x="430" 
 />
    <glyph glyph-name="space" unicode="&#xd;" horiz-adv-x="430" 
 />
    <glyph glyph-name="space" unicode="&#x9;" horiz-adv-x="430" 
 />
    <glyph glyph-name="exclam" unicode="!" horiz-adv-x="620" 
d="M442 112.5q0 -53.5 -33.5 -83t-87 -29.5t-88 31.5t-34.5 85t34.5 89.5t88 36t87 -38t33.5 -91.5zM405.5 1350.5q43.5 -107.5 43.5 -199.5q-2 -6 -17.5 -45t-48.5 -195.5t-47 -519.5h-25q-19 494 -67.5 624t-53.5 136q0 92 44 199.5t86 107.5t85.5 -107.5z" />
    <glyph glyph-name="quotedbl" unicode="&#x22;" horiz-adv-x="729" 
d="M286.5 1225q-26.5 -139 -53.5 -357h-24q-23 211 -50.5 343t-27.5 174t29.5 72t60.5 30t61.5 -30t30.5 -62q0 -31 -26.5 -170zM569 1211.5q-29 -152.5 -51 -343.5h-24q-23 211 -50.5 343t-27.5 174t29.5 72t60.5 30t61.5 -30t30.5 -62q0 -31 -29 -183.5z" />
    <glyph glyph-name="numbersign" unicode="#" horiz-adv-x="1533" 
d="M942 741h-256l-96 -260h260zM1352 883l-58 -142h-305l-90 -260h324l-58 -139h-315l-143 -401l-50 12l140 389h-248l-143 -401l-50 12l140 389h-310l58 139h301l92 260h-322l56 142h315l145 403l50 -12l-138 -391h244l146 403l49 -12l-142 -391h312z" />
    <glyph glyph-name="dollar" unicode="$" horiz-adv-x="987" 
d="M735 241q0 134 -153 187v-399q76 23 114.5 79t38.5 133zM466 16h34q23 0 47 4v418q-41 15 -103 29v-449q10 -2 22 -2zM497 1063q-31 0 -53 -4v-412q52 -17 103 -31v443q-19 4 -50 4zM260 825q0 -107 150 -168v396q-70 -20 -110 -70.5t-40 -157.5zM692 892q0 48 -25.5 95
t-84.5 66v-445q23 -8 40 -14t40 -12q111 -35 173 -108.5t62 -183.5t-87 -193t-228 -101l2 -293h-39l2 289q-14 -2 -17 -2h-86l2 -287h-38l2 291q-147 10 -235.5 73.5t-88.5 168.5q0 43 30.5 74.5t68.5 31.5t63.5 -20.5t34.5 -51.5q-13 -35 -13 -82q0 -48 29 -98.5t111 -66.5
v454q-23 6 -46.5 15.5t-37.5 13.5q-92 35 -154.5 103.5t-62.5 151.5q0 141 83 222t218 102l-2 242h38l-2 -237q12 2 31 2h39q20 0 33 -2l-2 237h39l-2 -242q123 -16 205.5 -77.5t82.5 -161.5q0 -43 -28.5 -75t-67.5 -32q-75 0 -94 72q12 33 12 81z" />
    <glyph glyph-name="percent" unicode="%" horiz-adv-x="1325" 
d="M1174 264q0 43 -13.5 83t-39 71t-61.5 49t-79 18t-79 -18t-61.5 -49t-40 -71t-14.5 -83t14.5 -82t40 -68.5t62.5 -48t80 -18.5t79 18.5t60.5 48t38 68.5t13.5 82zM561 1071q0 43 -13 83t-39 70.5t-61.5 49t-78.5 18.5t-79 -18.5t-61.5 -49t-40 -70.5t-14.5 -83t14.5 -82
t40 -68.5t62.5 -48t80 -18.5t78.5 18.5t60.5 48t38 68.5t13 82zM1167.5 73q-75.5 -77 -181.5 -77q-105 0 -188 69.5t-83 192.5t76.5 203t186.5 80q109 0 187 -73.5t78 -195.5t-75.5 -199zM1126 1278l-870 -1264l-49 31l870 1266zM553.5 878q-77.5 -79 -180.5 -79t-187 72.5
t-84 194.5q0 123 77.5 202.5t186.5 79.5t187 -74t78 -195q0 -122 -77.5 -201z" />
    <glyph glyph-name="ampersand" unicode="&#x26;" horiz-adv-x="1748" 
d="M311 467q0 -165 81.5 -252.5t204 -87.5t198 35t172.5 123q-62 108 -124.5 183t-90.5 110t-58 65.5t-62 60t-61.5 56t-50.5 45.5q-209 -173 -209 -338zM784 1178q0 182 -72.5 229t-111.5 47q-70 0 -105.5 -53t-35.5 -115t12 -98.5t45 -82.5t73 -82t95 -85q100 103 100 240
zM96 348q0 274 402 475q-45 47 -84 85t-68 79t-46 90t-17 148t109.5 186.5t235.5 87.5q125 0 215.5 -68t90.5 -222t-232 -287q89 -69 222 -215q102 -119 188 -258q231 290 231 400t-109.5 117t-156.5 9v24l715 17v-25q-183 -24 -307.5 -152t-198.5 -223.5t-156 -189.5
q29 -37 66 -85t91 -104t108.5 -91t114.5 -35t129 31t128 132l19 -8q-33 -97 -149.5 -195t-252.5 -98q-219 0 -403 289q-71 -103 -198.5 -190.5t-299.5 -87.5t-279.5 105t-107.5 259z" />
    <glyph glyph-name="quotesingle" unicode="'" horiz-adv-x="454" 
d="M289 1218q-28 -146 -51 -350h-25q-23 211 -50.5 343t-27.5 174t30 72t60.5 30t61 -30t30.5 -62q0 -31 -28 -177z" />
    <glyph glyph-name="parenleft" unicode="(" horiz-adv-x="641" 
d="M150 604q0 -441 184 -625t266 -241l-27 -27q-88 66 -293.5 253t-205.5 640q0 306 134 514t363 379l29 -27q-450 -330 -450 -866z" />
    <glyph glyph-name="parenright" unicode=")" horiz-adv-x="641" 
d="M492 604q0 536 -451 866l29 27q229 -171 363 -379t134 -514q0 -450 -204.5 -638.5t-294.5 -254.5l-27 27q308 214 379.5 457t71.5 409z" />
    <glyph glyph-name="asterisk" unicode="*" horiz-adv-x="794" 
d="M440 1362q0 -55 -12 -96t-22 -90l22 -13q18 16 32.5 30.5l37 37t55.5 40.5q66 37 93 44.5t59 7.5l8 -14q-23 -37 -45.5 -57.5t-65.5 -46.5t-81 -34t-85 -24v-27q49 -14 87 -21t81 -34t66 -44t43 -58l-8 -13q-116 5 -180 65t-101 93l-21 -10q10 -49 23.5 -89t13.5 -100
t-37 -135h-16q-35 76 -35 138q0 63 12.5 99t22.5 87l-18 8q-41 -31 -70 -60.5t-77 -59.5t-134 -34l-8 13q25 39 48.5 59t63.5 44t78.5 31t87.5 21v27q-47 16 -89 25.5t-80 33.5t-61.5 45t-45.5 58l6 14q124 -5 186.5 -70.5t92.5 -89.5l20 13q-10 47 -22.5 85.5t-12.5 99.5
t35 136h16q37 -80 37 -135z" />
    <glyph glyph-name="plus" unicode="+" horiz-adv-x="1433" 
d="M1178 494h-420v-422h-82v422h-420v79h420v420h82v-420h420v-79z" />
    <glyph glyph-name="comma" unicode="," horiz-adv-x="497" 
d="M225 -272q131 118 131 234q0 117 -51 126q-9 -88 -102 -88q-43 0 -71 27.5t-28 80.5t39 85t87 32q85 0 138.5 -68.5t53.5 -156.5q0 -153 -182 -287z" />
    <glyph glyph-name="hyphen" unicode="-" horiz-adv-x="524" 
d="M498 461h-473v143h473v-143z" />
    <glyph glyph-name="period" unicode="." horiz-adv-x="497" 
d="M373 110.5q0 -53.5 -33 -83t-86 -29.5t-88 31.5t-35 85t35 89.5t88 36t86 -38t33 -91.5z" />
    <glyph glyph-name="slash" unicode="/" horiz-adv-x="636" 
d="M723 1530l-758 -1823l-67 25l757 1824z" />
    <glyph glyph-name="zero" unicode="0" horiz-adv-x="1091" 
d="M828 778q-110 123 -280 123t-282 -123.5t-112 -291t114 -289t282.5 -121.5t278 120t109.5 289.5t-110 292.5zM894 138q-142 -144 -337 -144t-348.5 130.5t-153.5 379.5q0 196 143.5 339.5t346.5 143.5t347 -133t144 -352q0 -220 -142 -364z" />
    <glyph glyph-name="one" unicode="1" horiz-adv-x="647" 
d="M575 0h-489v23q100 0 128 33.5t28 56.5v745q0 65 -68 76.5t-96 11.5v23h497v-23q-102 0 -132.5 -32.5t-30.5 -57.5v-745q0 -68 69.5 -78t93.5 -10v-23z" />
    <glyph glyph-name="two" unicode="2" horiz-adv-x="892" 
d="M367 842q-181 0 -299 -193l-21 13q113 201 232.5 264t208.5 63t158 -63.5t69 -161.5t-38 -176t-96.5 -148.5t-129 -136t-136.5 -127.5v-4h369q131 0 155.5 43t34.5 66l21 -7l-102 -274h-699l-6 16q206 173 339.5 322.5t133.5 284.5q0 89 -50.5 154t-143.5 65z" />
    <glyph glyph-name="three" unicode="3" horiz-adv-x="811" 
d="M381 989q139 0 227 -72.5t88 -200.5t-110.5 -222.5t-173.5 -143.5q144 -30 245 -127t101 -218q0 -231 -179.5 -374t-424.5 -143q-67 0 -105.5 23.5t-52.5 47t-14 79t71 55.5q35 0 59.5 -23.5t69 -76t109.5 -52.5q16 0 64 13.5t140.5 78.5t92.5 250q0 139 -107 228.5
t-260 89.5h-26l-7 12q53 41 196.5 152.5t143.5 296.5q0 84 -62.5 133t-151.5 49t-148.5 -28t-104.5 -97l-18 10q122 260 338 260z" />
    <glyph glyph-name="four" unicode="4" horiz-adv-x="1128" 
d="M616 168v608l-481 -608h481zM1075 10h-278v-473h-181v473h-602q-14 0 -19 4t5 21l94 137l639 817h60v-821h282v-158z" />
    <glyph glyph-name="five" unicode="5" horiz-adv-x="804" 
d="M339 403q89 0 173 -32.5t168 -118t84 -262.5q0 -211 -113.5 -319.5t-200 -145.5t-152.5 -37q-132 0 -215 42.5t-83 127.5q0 33 20.5 56.5t61.5 23.5t63.5 -32t44 -69.5t53 -69.5t127.5 -32t162 109t66 267t-81 234t-196 76t-148.5 -52t-45.5 -87l-21 4l91 883h436
q68 0 90 21.5t41 64.5l24 -8q-24 -65 -88 -275h-489l-35 -381q74 12 163 12z" />
    <glyph glyph-name="six" unicode="6" horiz-adv-x="1048" 
d="M242 416q0 -184 76.5 -285.5t204.5 -101.5t208 93t80 279t-80.5 333t-236.5 147q-76 0 -115 -43q-137 -151 -137 -422zM560 920q87 0 170 -34t175 -126t92 -283t-132 -334t-335 -143q-202 0 -338.5 151.5t-136.5 356.5q0 337 245 568.5t411 309.5t262 105l16 -25
q-274 -120 -404 -289t-186 -278q74 21 161 21z" />
    <glyph glyph-name="seven" unicode="7" horiz-adv-x="909" 
d="M276 795q-155 0 -194 -77t-49 -102l-25 9l133 344h799q-6 -14 -34.5 -85t-75 -182.5t-103.5 -255t-129 -319t-250 -635.5l-137 6l245 491q246 491 375 806h-555z" />
    <glyph glyph-name="eight" unicode="8" horiz-adv-x="995" 
d="M670.5 505q-89.5 93 -267.5 177q-85 -49 -133.5 -152.5t-48.5 -195.5q0 -147 82 -229t209 -82t187.5 77.5t60.5 194.5t-89.5 210zM768 1169q0 121 -70.5 203t-186.5 82t-193.5 -65t-77.5 -192t80.5 -206.5t137 -114t105.5 -63.5q205 116 205 356zM800 107.5
q-128 -115.5 -305 -115.5q-176 0 -298.5 92t-122.5 245t121.5 244t173.5 125q-132 92 -205.5 182.5t-73.5 236.5t124.5 259t296.5 113t284 -92t112 -228q0 -161 -125 -249.5t-184 -124.5q43 -25 100.5 -59t143.5 -118.5t86 -239.5t-128 -270.5z" />
    <glyph glyph-name="nine" unicode="9" horiz-adv-x="1048" 
d="M805 522q0 289 -105.5 361.5t-179.5 72.5q-131 0 -210 -92t-79 -271t87.5 -333t240.5 -154q97 0 137 52q109 139 109 364zM500 63q-202 0 -324.5 128t-122.5 321t135.5 335t333.5 142q197 0 335 -153t138 -353t-83 -365t-213 -295t-287.5 -220t-307.5 -129l-12 30
q299 129 417 300t171 290q-78 -31 -180 -31z" />
    <glyph glyph-name="colon" unicode=":" horiz-adv-x="538" 
d="M393 109q0 -49 -35.5 -80t-83 -31t-84 29t-36.5 83t36.5 85.5t84 31.5t83 -34.5t35.5 -83.5zM393 743q0 -49 -35.5 -81.5t-83 -32.5t-84 31.5t-36.5 85t36.5 85t84 31.5t83 -35t35.5 -84z" />
    <glyph glyph-name="semicolon" unicode=";" horiz-adv-x="538" 
d="M123 93q0 44 37 77t77 33q71 0 123 -54t52 -123q0 -126 -82.5 -216.5t-179.5 -98.5l-7 21q88 16 144.5 83.5t56.5 143.5t-33 88q-22 -57 -79 -57q-56 0 -82.5 29.5t-26.5 73.5zM356 511q0 -48 -33.5 -80t-80.5 -32t-82 30t-35 82t35 83t82 31t80.5 -33t33.5 -81z" />
    <glyph glyph-name="less" unicode="&#x3c;" horiz-adv-x="1366" 
d="M1241 1116v-112l-883 -445l883 -434v-125l-1116 559z" />
    <glyph glyph-name="equal" unicode="=" horiz-adv-x="1433" 
d="M1137 381h-840v80h840v-80zM1137 614h-840v80h840v-80z" />
    <glyph glyph-name="greater" unicode="&#x3e;" horiz-adv-x="1366" 
d="M125 0v115l883 444l-883 432v125l1116 -557z" />
    <glyph glyph-name="question" unicode="?" horiz-adv-x="784" 
d="M393 112.5q0 -53.5 -33.5 -83t-87 -29.5t-88 31.5t-34.5 85t34.5 89.5t88 36t87 -38t33.5 -91.5zM340 1169q-45 0 -115 -8v320h35v-101q92 0 152.5 -16t105.5 -58q71 -67 95 -166.5t24 -179.5q0 -282 -70 -347q-39 -36 -109.5 -58.5t-193.5 -46.5v-166h-37v358
q53 10 105.5 19.5t97.5 23.5q88 27 127 74t39 129q0 83 -22.5 123.5t-59.5 63t-83 29.5t-91 7z" />
    <glyph glyph-name="at" unicode="@" horiz-adv-x="1777" 
d="M1167 785q0 51 -22.5 85.5t-63.5 34.5t-92 -35.5t-135.5 -124.5t-179 -257t-94.5 -275q0 -31 18 -53.5t54 -22.5t87.5 32t108.5 84t114.5 119.5t102.5 141.5t73.5 147t28.5 124zM1118 115q236 0 382.5 175.5t146.5 409.5t-164.5 380.5t-415.5 146.5q-184 0 -341 -80
t-270.5 -209t-178 -294.5t-64.5 -325.5q0 -301 186 -472.5t478 -171.5q178 0 316 59.5t269 168.5l17 -19q-256 -246 -637 -245q-326 0 -528.5 195t-202.5 507q0 190 72.5 361t197.5 298t292 202t331 75t283.5 -42t208.5 -119t141.5 -185.5t52.5 -239.5t-47.5 -249.5
t-181 -261t-404.5 -142.5q-88 0 -154 35l146 336l-13 4q-136 -162 -270.5 -266.5t-251.5 -104.5q-59 0 -79.5 30.5t-20.5 86.5t35.5 144.5t126 224t260.5 277.5t288 142q58 0 111 -61l51 71h121l-348 -835q48 -6 59 -6z" />
    <glyph glyph-name="A" unicode="A" horiz-adv-x="1441" 
d="M641 1241q-12 -27 -35.5 -84t-60 -143t-166.5 -406h510q-101 266 -248 633zM1507 0h-598v20q31 0 87.5 22t56.5 82q0 59 -148 441h-545q-31 -78 -59.5 -148.5t-64.5 -162.5t-35 -126q0 -36 16 -53.5t42 -28.5t55.5 -16t56.5 -10v-20h-437v23q53 6 91.5 28.5t48.5 33.5
q44 46 105 182t114 259t109.5 253t111.5 262.5t104 246.5l-20 45q110 48 180 170h17q63 -170 120.5 -322.5t186 -502t156.5 -412t42 -92.5q68 -144 207 -149v-25z" />
    <glyph glyph-name="B" unicode="B" horiz-adv-x="1525" 
d="M1161 381q0 113 -69.5 204t-165.5 122q-96 32 -211 32h-199v-256l2 -188q2 -78 7 -128t27 -78q45 -58 188 -58q144 0 236 48q185 98 185 302zM1081 1110q0 102 -52 182t-137 118t-200 38t-160 -14q-2 -12 -4 -22.5t-7 -88t-5 -297.5v-256h182q181 0 282 100.5t101 239.5z
M102 1475h691q318 0 421 -121t103 -250t-87 -212t-226 -112v-8q164 -18 280.5 -117t116.5 -252q0 -197 -133.5 -292t-262 -103t-219.5 -8h-706v20q118 19 172 78q37 44 37 221l4 306v317l-2 201q0 123 -14.5 180t-26.5 70q-31 33 -61.5 44t-86.5 17v21z" />
    <glyph glyph-name="C" unicode="C" horiz-adv-x="1589" 
d="M57 741q0 221 121 414q149 242 354 296t334 54t221.5 -22.5t154 -49t94 -49t39.5 -22.5t37.5 32t53.5 66h23v-459l-25 -2q-56 204 -208.5 337.5t-354.5 133.5q-141 0 -251.5 -63.5t-225.5 -223t-115 -457.5t165 -499.5t431 -201.5q205 0 362.5 138t194.5 320h25l-6 -450
h-25q-66 92 -88 92q-4 0 -37 -21.5t-140.5 -66.5t-301.5 -45q-385 0 -608.5 206.5t-223.5 542.5z" />
    <glyph glyph-name="D" unicode="D" horiz-adv-x="1744" 
d="M773 1444q-69 0 -97.5 -1t-56 -4t-51 -5t-38.5 -7q-14 -139 -14 -483v-452q0 -290 31 -375.5t237 -85.5q376 0 512 227.5t136 482.5t-142 452t-350 232q-98 19 -167 19zM862 1477q245 0 404 -70q290 -125 353.5 -320t63.5 -339t-36.5 -260.5t-127 -236.5t-281.5 -185.5
t-407 -65.5h-747v20q51 6 98.5 27t65.5 40t29.5 76.5t11.5 155.5l4 306v361q0 360 -31 396q-49 58 -170 72v21l639 2h131z" />
    <glyph glyph-name="E" unicode="E" horiz-adv-x="1456" 
d="M84 0v20q113 18 168 78q37 44 37 221l4 306v518q0 155 -11.5 197t-33.5 65t-56 32t-90 17v21h1131l139 -338l-20 -11q-166 207 -312 279q-90 41 -358 41q-104 0 -156 -10q-10 -82 -10 -267v-59l2 -317v-23h94q95 0 160 15q121 28 166.5 90.5t75.5 193.5h24v-645h-24
q-16 66 -50 135.5t-69 101.5q-70 64 -188 72q-62 4 -99 4h-88q-4 -29 -4 -43v-286l2 -113q5 -171 34.5 -217.5t243.5 -46.5t343.5 55.5t277.5 310.5l23 -6l-103 -391h-1253z" />
    <glyph glyph-name="F" unicode="F" horiz-adv-x="1343" 
d="M293 1143q0 155 -11.5 197t-33.5 65t-56 32t-90 17v21h1139l139 -345l-20 -10q-182 225 -307 287q-85 39 -338 39l-176 -6q-2 -12 -5.5 -24.5t-6.5 -38.5t-6 -96q-5 -120 -5 -169v-342h37q250 0 337 54.5t103.5 124t24.5 120.5h24v-659h-24q-44 181 -119 248
q-76 67 -188 75q-62 4 -72 4h-123v-254l2 -188q5 -171 27 -205.5t66 -49.5t128 -20v-20h-655v20q113 18 168 78q37 44 37 221l4 306v518z" />
    <glyph glyph-name="G" unicode="G" horiz-adv-x="1689" 
d="M1395.5 1366q4.5 0 66.5 84h19v-446h-25q-79 316 -256.5 390t-308.5 74t-239.5 -60t-225.5 -216.5t-117 -468.5q0 -313 154.5 -509t421.5 -196q224 0 317 144q33 56 33 180.5t-12 223t-203 116.5v20h600v-20q-105 -12 -135 -59q-19 -31 -19 -164v-299q-48 -41 -313 -138
t-594.5 10.5t-415.5 320t-86 406.5t120 391.5t309.5 275t393.5 77.5t322.5 -47t153.5 -68.5t39.5 -21.5z" />
    <glyph glyph-name="H" unicode="H" horiz-adv-x="1843" 
d="M1741 0h-629v20q76 6 127 28t67 47t18 132q1 107 1 180v322h-809v-440q0 -59 2 -114.5t23 -84.5q41 -57 153 -70v-20h-604v20q121 19 170 76q29 36 29 223l4 306v361q0 360 -30 395q-50 60 -167 73v21h611v-21q-82 -11 -132.5 -44.5t-53.5 -112.5q-5 -135 -5 -264v-263
h809v278q0 279 -27 322q-37 55 -84 68.5t-94 15.5v21h617v-21q-159 -20 -173 -99.5t-14 -92.5v-730l2 -253q0 -149 23 -184q37 -58 166 -75v-20z" />
    <glyph glyph-name="I" unicode="I" horiz-adv-x="817" 
d="M520 289q0 -59 2 -114.5t23 -84.5t74 -47t96 -23v-20h-621v20q113 18 170 80q29 35 29 219l4 306v362q0 362 -30 396q-51 58 -167 71v21h613v-21q-131 -18 -164 -81q-22 -42 -23.5 -95t-3.5 -100v-51z" />
    <glyph glyph-name="J" unicode="J" horiz-adv-x="817" 
d="M582 270q0 -114 -122 -208q-122 -93 -263 -93q-68 0 -123.5 32.5t-55.5 109.5q0 49 37 79.5t81 30.5t74 -29.5t30 -70.5q0 -82 -101 -96v-7q19 -28 67 -28t79.5 32.5t48.5 90.5t22 206l2 185v425q0 425 -28 460q-29 35 -79 47t-104 18v21h631v-21q-134 -19 -166 -80
q-22 -41 -24 -95t-4 -101v-51z" />
    <glyph glyph-name="K" unicode="K" horiz-adv-x="1570" 
d="M1090 1333q0 101 -136 121v21h549v-21q-104 -10 -210.5 -88t-183.5 -148t-122 -115.5t-89 -90.5t-86 -87t-77 -79q63 -79 328 -376q264 -296 290.5 -320.5t51.5 -44t58 -46t186 -39.5v-20h-461q-24 12 -41 33q-517 599 -551.5 625t-49.5 26t-20.5 -7t-11.5 -24v-202
q0 -187 8 -255t26 -92q31 -41 84 -58t116 -26v-20h-658v20q129 20 165 64q36 43 36 235l2 185v639q0 78 -5 143.5t-31 97.5q-48 58 -161 70v21h635v-21q-39 -4 -122.5 -20t-88.5 -226q-4 -94 -4 -112v-387q131 82 483 462q91 107 91 162z" />
    <glyph glyph-name="L" unicode="L" horiz-adv-x="1449" 
d="M782 31q316 0 433.5 80t158.5 168t66 149l20 -6l-76 -422h-1314v20q127 20 180 78q39 47 39 221l4 306v587q0 128 -30 163q-54 64 -179 79v21h653v-21q-87 -13 -149 -47.5t-65 -119.5t-4 -144.5t-2 -116.5t-1 -72v-124l2 -531q2 -66 5 -125t22 -88q26 -33 117.5 -44
t119.5 -11z" />
    <glyph glyph-name="M" unicode="M" horiz-adv-x="2029" 
d="M1952 1475v-21q-148 -4 -189 -113q-24 -70 -24 -163v-689q0 -252 6 -300t13 -61q17 -32 66.5 -67t139.5 -41v-20h-702v23q88 4 147 36.5t79 75.5t28 148q4 135 4 166v925q-68 -152 -124.5 -278.5t-136.5 -302t-150 -332.5t-89 -201.5t-37 -90.5t-34.5 -84t-20.5 -50h-13
q-66 152 -130 301t-125.5 287.5t-114.5 259.5t-96 215t-71 157.5t-38 85.5l-1 -165l-3 -754q0 -96 6 -167t41.5 -140.5t202.5 -94.5v-20h-535v20q139 27 188.5 119t53.5 299q8 176 8 350v207q0 207 -2 265q-3 102 -63 141.5t-140 52.5v21h436l490 -1115q323 701 494 1115
h436z" />
    <glyph glyph-name="N" unicode="N" horiz-adv-x="1792" 
d="M1505 12q0 -18 -18 -18t-39 20q-212 244 -569 663.5t-541 625.5v-865q0 -252 27 -306t74.5 -77.5t131.5 -34.5v-20h-503v20q127 16 176 91q29 43 43 190t14 494v358q0 41 -2 100q-16 154 -100 175.5t-117 25.5v21h416l970 -1135v696q0 82 -2 157t-20 125
q-40 110 -221 136v21h508v-21q-147 -19 -187 -113q-20 -45 -24 -128t-12 -235t-7 -308v-230l1 -74z" />
    <glyph glyph-name="O" unicode="O" horiz-adv-x="1654" 
d="M1205 1241.5q-136 218.5 -380 218.5q-133 0 -230 -64.5t-189.5 -216t-92.5 -447.5q0 -295 136.5 -503.5t324 -208.5t282.5 66t190 220t95 436q0 281 -136 499.5zM1595 740q0 -156 -61 -295.5t-166.5 -242t-246 -157.5t-297.5 -55t-296 54t-243.5 153.5t-165 237.5
t-60.5 309t63.5 311.5t171 238t252 149.5t311.5 52t305 -61.5t234.5 -165t147.5 -238t51 -290.5z" />
    <glyph glyph-name="P" unicode="P" horiz-adv-x="1343" 
d="M1081 1054q0 124 -77.5 243t-189.5 135t-166 16t-109 -8q-2 -12 -5.5 -21.5t-7 -33.5t-5.5 -100q-5 -132 -5 -193v-447q205 0 295 33q131 45 200.5 148.5t69.5 227.5zM657 1479q135 0 239 -13.5t196 -63.5t151.5 -140t59.5 -190q0 -163 -100 -281.5t-274.5 -146.5
t-268.5 -28h-144v-48l2 -273q2 -66 4 -113t20 -76t65.5 -55t131.5 -31v-20h-655v20q128 20 166 67q39 47 39 232l4 306v518q0 151 -11.5 193t-37.5 70t-168 48v21h49l51 1l389 3h92z" />
    <glyph glyph-name="Q" unicode="Q" horiz-adv-x="1654" 
d="M1205 1241.5q-136 218.5 -380 218.5q-133 0 -230 -64.5t-189.5 -216t-92.5 -445.5q0 -293 144.5 -507.5t384.5 -214.5q128 0 225.5 69t185.5 223t88 437q0 282 -136 500.5zM59 739q0 346 267 574q216 182 524 182q174 0 312 -61.5t234.5 -165t147.5 -238.5t51 -281
q0 -285 -179 -489.5t-458 -255.5q0 -106 82 -164.5t176 -58.5q95 0 162 26l11 -16q-144 -100 -314 -100q-265 0 -331 114.5t-76 196.5q-258 56 -433.5 256.5t-175.5 480.5z" />
    <glyph glyph-name="R" unicode="R" horiz-adv-x="1560" 
d="M1061 1094q0 102 -51.5 182t-146.5 125t-190 45q-96 0 -141 -6q-2 -12 -4 -21.5t-3 -24t-2 -39.5t-3 -85q-4 -119 -4 -170v-379q188 0 297 37q185 56 216.5 168.5t31.5 167.5zM657 1477q137 0 244 -8.5t196 -55.5q199 -105 199 -332q0 -141 -93 -234t-245 -142v-7
q60 -31 122 -120q63 -89 125.5 -178.5t124.5 -177.5t134 -137.5t168 -64.5v-20h-420q-18 18 -26 27.5t-18.5 21.5t-26 36t-51.5 76t-65.5 98t-71.5 108t-112 144q-69 81 -127.5 131t-150.5 50q-18 0 -47 2v-184q0 -185 4 -279t22 -123t65.5 -56t131.5 -32v-20h-655v20
q128 20 166 67q39 47 39 232l4 306v518q0 151 -11.5 193t-39.5 72t-146 46v21h84l84 1z" />
    <glyph glyph-name="S" unicode="S" horiz-adv-x="1239" 
d="M983 1399q14 0 61 74h23v-379h-23q-92 249 -213 309.5t-193 60.5q-142 0 -229 -75.5t-87 -198.5t65.5 -188.5t152.5 -98.5t153.5 -54.5t156.5 -53.5q139 -51 216 -149t77 -243q0 -190 -144 -303.5t-389 -113.5t-316 44t-80.5 44t-59.5 -72h-19l-6 408h21
q34 -105 106.5 -202.5t161.5 -145.5t188 -48q152 0 246 83t94 231t-103.5 202t-179 79.5t-107.5 36.5t-65.5 22.5t-83.5 30.5q-110 42 -189 144t-79 220q0 213 139.5 323.5t352.5 110.5q151 0 229 -33.5t99.5 -49t23.5 -15.5z" />
    <glyph glyph-name="T" unicode="T" horiz-adv-x="1509" 
d="M864 297q0 -160 27 -198t83 -54t101 -25v-20h-665v20q53 6 102 20.5t96 68.5q29 29 29 219l1 74l3 1019h-135l-125 -2q-143 -5 -207 -63q-42 -40 -98 -120t-78 -146l-18 6l61 389q105 -22 193 -25q165 -4 202 -4h455l377 4q94 3 202 35l66 -399l-18 -6
q-43 100 -98.5 172.5t-85.5 100.5q-55 52 -208 56l-125 2h-135v-81z" />
    <glyph glyph-name="U" unicode="U" horiz-adv-x="1708" 
d="M1421 613v405q0 235 -21 293q-43 118 -220 143v21h508v-21q-76 -10 -131 -46.5t-71 -141.5t-18 -316t-12 -411t-106 -379.5t-486 -179.5t-489 172t-104 256t-5 108l2 354v238q0 239 -30 274q-50 59 -166 72v21h610v-21q-81 -11 -131.5 -44.5t-54.5 -129.5t-4 -110v-461
l2 -185q4 -220 119 -349.5t317 -129.5q390 0 440.5 228t50.5 340z" />
    <glyph glyph-name="V" unicode="V" horiz-adv-x="1366" 
d="M-61 1475h612v-21q-10 -2 -37 -6t-76 -24.5t-49 -72.5t103.5 -317.5t147.5 -377t83 -208t61 -157.5q10 23 38 94.5t181.5 460.5t153.5 493q0 78 -85 95.5t-111 19.5v21h477v-23q-53 -6 -93.5 -30.5t-46.5 -31.5q-54 -58 -107 -189q-54 -132 -130 -319.5t-101 -251.5
l-169 -440l-101 -204h-24q-68 166 -126.5 316.5t-113.5 289.5t-106.5 269t-83.5 215t-45 114t-24 53.5t-22.5 47t-20.5 40.5q-58 116 -185 121v23z" />
    <glyph glyph-name="W" unicode="W" horiz-adv-x="2029" 
d="M700 1475h641v-21q-12 -2 -43.5 -6t-89 -24.5t-57.5 -73.5q0 -40 100.5 -317t161 -446.5t94.5 -262.5q6 14 21.5 60t39 112.5t51.5 148.5t55.5 167l55 170t57.5 182t30 152q0 56 -35 92.5t-142 45.5v21h451v-21q-51 -6 -87 -28.5t-42 -29.5t-18.5 -21.5t-37.5 -53.5
t-62 -145q-36 -107 -79 -229t-87 -251t-89 -259t-84 -247l-86 -196h-20q-103 274 -212.5 588.5t-152.5 429.5q-33 -94 -69.5 -197.5t-88.5 -253t-131 -366.5l-90 -201h-24q-63 166 -119.5 315.5t-109 287.5t-101.5 268t-81 214t-43 113t-40 104t-76 114t-118 42v23h577v-21
q-39 0 -95 -22t-56 -86t177 -518.5t199 -516.5q146 390 265 762q-95 251 -119.5 285.5t-63 62t-127.5 31.5v23z" />
    <glyph glyph-name="X" unicode="X" horiz-adv-x="1449" 
d="M483 1377q0 -63 73 -168t126 -182t129 -185q68 78 138.5 170t109.5 142q96 123 96 177q0 95 -186 123v21h534v-21q-104 -23 -184.5 -89.5t-142.5 -140.5t-104 -125.5t-88 -106.5t-148 -181q8 -12 34.5 -49t61.5 -88t76 -109.5t78.5 -112t68.5 -97t59 -83.5
q84 -123 140 -181.5t133 -70.5v-20h-664v20q86 12 137.5 30t51.5 80.5t-334 524.5q-206 -244 -260 -319q-54 -76 -76.5 -117t-22.5 -78q0 -88 189 -121v-20h-543v20q161 45 350 261q31 35 76 89t104 124t160 194q-12 16 -56 78.5t-99.5 140.5t-109.5 155t-92 129
q-100 137 -150 187t-138 76v21h668v-21q-195 -14 -195 -77z" />
    <glyph glyph-name="Y" unicode="Y" horiz-adv-x="1329" 
d="M-51 1475h620v-21q-122 -8 -150 -33.5t-28 -52.5t29.5 -81t57.5 -100t58.5 -98.5t90.5 -146.5t123 -201q27 39 65.5 99.5t110 172t89.5 144.5q19 33 31.5 54.5t32 63t19.5 75.5q0 56 -44 74t-130 30v21h473v-21q-104 -15 -164 -72t-115 -143q-56 -86 -99.5 -152.5
t-125 -193.5t-121.5 -184v-412q0 -164 27 -202t76 -52t94 -23v-20h-631v20q53 6 93 19.5t85 64.5q24 24 28.5 177.5t4.5 373.5q-4 6 -24.5 39t-50.5 81t-65.5 107.5t-99.5 162.5t-95 150q-32 48 -98 151t-167 108v21z" />
    <glyph glyph-name="Z" unicode="Z" horiz-adv-x="1421" 
d="M178 1477q102 -7 434 -7h731l7 -12l-1035 -1421q101 -2 185 -2h166q104 0 202 10q304 33 533 424l22 -8l-147 -461h-1235l-8 14l1036 1424h-213q-213 0 -291 -4q-170 -9 -304.5 -145t-209.5 -257l-22 8z" />
    <glyph glyph-name="bracketleft" unicode="[" horiz-adv-x="585" 
d="M565 -217h-465v1692h465v-50h-407v-1593h407v-49z" />
    <glyph glyph-name="backslash" unicode="\" horiz-adv-x="636" 
d="M741 -268l-67 -25l-758 1823l68 26z" />
    <glyph glyph-name="bracketright" unicode="]" horiz-adv-x="585" 
d="M485 -217h-465v49h408v1593h-408v50h465v-1692z" />
    <glyph glyph-name="asciicircum" unicode="^" horiz-adv-x="520" 
d="M446 1079l-24 -14l-174 231l-176 -229l-25 14l186 349h31z" />
    <glyph glyph-name="underscore" unicode="_" horiz-adv-x="1024" 
d="M1024 -266h-1024v69h1024v-69z" />
    <glyph glyph-name="grave" unicode="`" horiz-adv-x="1024" 
d="M625 1065l-21 -12l-280 313v10q12 16 30.5 32.5t63.5 16.5z" />
    <glyph glyph-name="a" unicode="a" horiz-adv-x="917" 
d="M571 242v315q-37 -27 -92 -56.5t-107.5 -64.5t-90 -77t-37.5 -95t37 -96t93 -43q113 0 173 59q24 23 24 58zM840 131q82 0 100 70h12q-4 -80 -60 -141.5t-134 -61.5t-132.5 41t-54.5 143l-4 2q-71 -120 -155 -152t-128 -32q-91 0 -146.5 48.5t-55.5 148.5t153 197.5
t234.5 140.5t101.5 55v211q0 22 -39.5 58t-111.5 36t-127 -38t-55 -66v-93q0 -29 -30 -51t-64 -22t-57.5 23.5t-23.5 51.5t12.5 48t31 36.5t40 28.5t55.5 33q93 57 199.5 100t158.5 43t99.5 -27.5t67.5 -68.5q12 -21 12 -121l-4 -489q0 -92 32 -122t73 -30z" />
    <glyph glyph-name="b" unicode="b" horiz-adv-x="1101" 
d="M791 747q-83 113 -242 113q-110 0 -177.5 -60.5t-69.5 -105.5q-1 -18 -1 -64v-157q0 -321 105.5 -383.5t176.5 -62.5t123 32.5t110 123.5t58 271t-83 293zM656 989q190 0 298.5 -144.5t108.5 -352.5t-137 -351t-359 -143t-360 119h-10l-50 -111h-14v1276q-27 18 -119 68
v12l275 125h16l-6 -729l4 -2q36 86 142.5 159.5t210.5 73.5z" />
    <glyph glyph-name="c" unicode="c" horiz-adv-x="884" 
d="M134 178q-93 108 -93 312t133 351.5t330 147.5q142 0 253 -65.5t111 -178.5q0 -43 -31.5 -74.5t-70.5 -31.5t-66.5 20.5t-35.5 51.5q10 29 10 87t-40 108t-114 50q-136 0 -220.5 -120t-84.5 -297t94.5 -290.5t237.5 -113.5t217 42t123 124l16 -8q-37 -127 -146 -213
t-273 -86q-88 0 -172.5 38t-177.5 146z" />
    <glyph glyph-name="d" unicode="d" horiz-adv-x="1118" 
d="M520 950q-70 0 -126 -36.5t-93 -98t-54.5 -141.5t-17.5 -213t86 -260t238 -127q84 0 144.5 57t76.5 145v488q-45 84 -114.5 135t-139.5 51zM774 199q-116 -201 -320 -201q-187 0 -301 128.5t-114 350.5q0 221 145.5 366.5t376.5 145.5q110 0 215 -35q-4 62 -4 85v282
l-168 63v13l326 90h16v-1329q2 -1 146 -64v-14l-304 -86h-12v205h-2z" />
    <glyph glyph-name="e" unicode="e" horiz-adv-x="890" 
d="M668 770q0 76 -53 130t-125 54t-118 -33.5t-94 -97t-61 -143.5h21l297 4q73 0 104 12q29 33 29 74zM502 -2q-210 0 -336.5 147.5t-126.5 349.5t122 348t312 146q262 0 326.5 -126t70.5 -212h-657l-4 -82q0 -180 98.5 -307t282.5 -127q102 0 179 52.5t101 127.5l17 -4
q-20 -112 -123.5 -212.5t-261.5 -100.5z" />
    <glyph glyph-name="f" unicode="f" horiz-adv-x="552" 
d="M776 1378q0 -33 -23.5 -63.5t-61.5 -30.5t-63.5 19.5t-47 45t-41 50t-43.5 33.5q-81 0 -113.5 -69.5t-34.5 -195t-2 -198.5h242l-27 -90h-217v-799q10 -46 77.5 -50.5t98.5 -9.5v-20h-520v20q109 9 141.5 29.5t32.5 36.5v793h-147l22 90h127q0 232 28 288q52 104 164 167
t230 63t148 -38t30 -71z" />
    <glyph glyph-name="g" unicode="g" horiz-adv-x="1075" 
d="M897 -212q0 137 -83 178q-83 40 -300 40q-75 0 -162 -12q-170 -44 -170 -195q0 -118 115 -191t234 -73t188 27q70 27 124 89.5t54 136.5zM658.5 880.5q-58.5 75.5 -162.5 75.5t-162 -84.5t-58 -202.5t62.5 -193t159.5 -75t158 86t61 202t-58.5 191.5zM184 285
q0 -113 211 -113h328q139 0 225 -82t86 -203q0 -163 -152 -281t-379 -118q-226 0 -350 66.5t-124 176.5t103.5 174t146.5 91v4q-104 12 -161 59t-57 125t70.5 138.5t171.5 72.5v6q-190 74 -190 275q0 134 114 223.5t272 89.5t275 -63q41 -13 81 -13t83 24t78 24t57.5 -24.5
t22.5 -57.5t-21 -56.5t-53 -23.5q-31 0 -207 98l-8 -8q31 -47 52.5 -88t21.5 -107q0 -162 -113 -242.5t-311 -80.5l-129 8q-66 -4 -105 -30.5t-39 -63.5z" />
    <glyph glyph-name="h" unicode="h" horiz-adv-x="1073" 
d="M932 72q0 -41 121 -54v-18h-422v23q55 4 92 13t37 42v512q0 201 -66.5 238.5t-132.5 37.5q-131 0 -199 -98q-18 -27 -18 -61v-629q0 -44 47 -48.5t68 -9.5v-20h-408v20q47 4 85 15.5t38 50.5v1163q0 29 -18 43t-46 27.5t-55 30.5v12l275 125h16l-6 -711l4 -2
q61 127 171 171t179 44q238 0 238 -313v-604z" />
    <glyph glyph-name="i" unicode="i" horiz-adv-x="520" 
d="M176 86v702q0 36 -19 50q-37 27 -100 49v12l277 90h12v-915q9 -44 60 -46.5t71 -7.5v-20h-440v20q139 11 139 66zM362 1313q0 -47 -31.5 -79t-77.5 -32t-79 33t-33 79t32 76.5t79 30.5t78.5 -30.5t31.5 -77.5z" />
    <glyph glyph-name="j" unicode="j" horiz-adv-x="503" 
d="M352 -125q0 -53 -34.5 -117.5t-90 -120t-125.5 -93.5t-120 -38q-85 0 -138 35.5t-53 85.5q0 105 103 105q43 0 63 -25.5t31.5 -57.5t26 -58.5t48.5 -28.5q100 20 104.5 119.5t8.5 178.5t4 230v666q0 24 -18 41q-18 16 -52 34.5t-59 32.5v15l287 110h12v-305l2 -477v-332z
M367 1309q0 -47 -32 -79t-78 -32t-79 33t-33 79t32 76.5t79 30.5t79 -30.5t32 -77.5z" />
    <glyph glyph-name="k" unicode="k" horiz-adv-x="999" 
d="M380 485q-24 0 -36 -6v-401q0 -44 47 -48.5t68 -9.5v-20h-408v20q47 4 85 15.5t38 50.5v1157q0 16 -2 25.5t-17.5 20.5t-99.5 54v13l273 125h16v-979q232 193 313.5 286t81.5 112.5t-57.5 33.5t-106.5 14v21h502v-21q-90 0 -175.5 -34.5t-139.5 -80.5t-70 -61l-166 -154
q230 -349 306 -449q76 -99 124 -136q52 -13 125 -13v-20h-495v20q41 2 68.5 8.5t27.5 34.5t-107.5 182t-139.5 197q-31 43 -55 43z" />
    <glyph glyph-name="l" unicode="l" horiz-adv-x="503" 
d="M492 0h-478v23q94 6 125 19t31 46v1178q0 27 -20 43q-18 10 -55.5 31.5t-61.5 31.5v12l293 97h14v-1403q0 -37 27.5 -43t56.5 -7t68 -5v-23z" />
    <glyph glyph-name="m" unicode="m" horiz-adv-x="1626" 
d="M1483 72q0 -41 119 -54v-18h-404v23q55 4 84 13t29 42v522q0 119 -42 189.5t-149 70.5q-68 0 -112.5 -36t-94.5 -91v-661q0 -42 111 -54v-18h-403v23q55 4 87.5 13t32.5 42v524q0 121 -42 189.5t-148 68.5q-68 0 -111 -28.5t-96 -86.5v-671q9 -45 50.5 -47t62.5 -7v-20
h-398v20q115 10 115 66v700q0 29 -19 41q-44 28 -94 50v16l269 96h12v-221l4 -2q75 138 173.5 180.5t154.5 42.5q98 0 158.5 -64.5t74.5 -172.5h6q41 84 132.5 160.5t203.5 76.5q113 0 173.5 -86t60.5 -221v-610z" />
    <glyph glyph-name="n" unicode="n" horiz-adv-x="1067" 
d="M924 72q0 -41 125 -54v-18h-418v23q55 4 88 13t33 42v516q0 264 -197 264q-68 0 -113 -28.5t-100 -84.5v-671q9 -45 49.5 -47t61.5 -7v-20h-396v20q115 10 115 66v705q0 27 -20 43q-53 29 -93 47v12l269 96h12v-221l4 -2q61 93 147 158t196 65t173.5 -88t63.5 -227v-602z
" />
    <glyph glyph-name="o" unicode="o" horiz-adv-x="1046" 
d="M744.5 814q-72.5 142 -226.5 142q-127 0 -208 -141.5t-81 -325.5q0 -321 111 -393.5t190.5 -72.5t134 48t103.5 154t49 277q0 170 -72.5 312zM1008 512q0 -218 -141.5 -368t-332.5 -150q-192 0 -343.5 130.5t-151.5 377.5q0 195 139.5 341t336.5 146t301 -91t148 -181.5
t44 -204.5z" />
    <glyph glyph-name="p" unicode="p" horiz-adv-x="1093" 
d="M332 259q0 -47 53.5 -128.5t174.5 -81.5t214.5 124t93.5 310q0 258 -114 315.5t-180 57.5t-108 -19.5t-71.5 -45t-45 -52t-15.5 -39.5l-2 -168v-273zM504 -471h-504v22q103 10 133.5 32t30.5 38v1135q0 16 -6 32t-140 70v12l301 119h13v-229l2 -4q79 106 160.5 169.5
t180.5 63.5q183 0 280.5 -133t97.5 -313q0 -236 -156 -384.5t-418 -148.5q-91 0 -147 13l1 -81l3 -337q9 -41 78 -46t90 -8v-22z" />
    <glyph glyph-name="q" unicode="q" horiz-adv-x="1122" 
d="M797 516q0 440 -281 440q-130 0 -210.5 -125.5t-80.5 -302.5t86 -291t242 -114q110 0 175.5 60.5t67.5 108.5q1 22 1 32v192zM965 -379q0 -52 147 -70v-22h-491v22q115 11 141 25t31 31v76l1 61l5 481l-4 2q-35 -89 -131 -158t-206 -69q-197 0 -308 143t-111 346
t137.5 351.5t345.5 148.5q119 0 212 -32.5t147 -79.5h6l63 112h15v-1368z" />
    <glyph glyph-name="r" unicode="r" horiz-adv-x="731" 
d="M508 850q-90 0 -164 -186v-590q15 -44 84.5 -46.5t89.5 -7.5v-20h-459v20q115 10 115 66v692q0 29 -19 41q-65 42 -94 53v13l269 104h12l-4 -284h4q71 177 146.5 230.5t133.5 53.5t94 -30.5t36 -76.5t-27 -76t-61 -30q-49 0 -87 37t-69 37z" />
    <glyph glyph-name="s" unicode="s" horiz-adv-x="782" 
d="M55 330h17q68 -209 150.5 -259.5t165.5 -50.5t141.5 56.5t58.5 173.5q0 63 -40 105.5t-102 54.5q-143 29 -214 53q-70 25 -118 90t-48 143q0 138 95.5 215.5t230.5 77.5t280 -53l24 -254l-16 -4q-71 150 -132.5 216.5t-168.5 66.5q-76 0 -131 -50.5t-55 -133.5t43 -115
t98 -46t108.5 -25t92.5 -22q92 -23 156.5 -94.5t64.5 -163.5q0 -165 -109 -240t-279 -75t-313 63v271z" />
    <glyph glyph-name="t" unicode="t" horiz-adv-x="663" 
d="M27 844v22l297 281h16v-178h379l-64 -125h-311v-539q0 -104 45 -151.5t117 -47.5q109 0 166 80l12 -6q-71 -184 -289 -184q-136 0 -179.5 70.5t-43.5 103.5l4 674h-149z" />
    <glyph glyph-name="u" unicode="u" horiz-adv-x="1071" 
d="M519 109q120 0 212 127v583q0 73 -20 101q-40 16 -154 26v23h344v-809q-1 -29 19 -41t29 -17l87 -39v-12l-291 -53h-14v207l-2 2q-140 -213 -328 -213q-256 0 -256 305v269q0 268 -2 283t-3 28.5t-7 25.5t-21.5 20.5t-34 12.5t-39 5t-38.5 3v23h317v-596
q0 -135 41 -199.5t161 -64.5z" />
    <glyph glyph-name="v" unicode="v" horiz-adv-x="907" 
d="M756 874q0 72 -62.5 72t-81.5 2v21h398v-23q-161 0 -211 -112q-25 -57 -56.5 -135t-66.5 -164t-69 -172.5t-56 -140.5t-33.5 -79.5t-22 -48t-19.5 -42.5l-18 -40t-22 -20t-20 14q-33 84 -61.5 159t-59.5 153.5t-66 169t-59 154.5t-35.5 92t-35.5 87t-36 78
q-12 12 -37.5 27.5t-93.5 19.5v23h494v-23q-18 -2 -88 -9.5t-70 -56.5t116 -330.5t134 -330.5q133 326 185.5 481.5t52.5 173.5z" />
    <glyph glyph-name="w" unicode="w" horiz-adv-x="1513" 
d="M545 969h467v-23q-16 -2 -82 -10t-66 -55q0 -43 221 -645q56 126 82.5 193t54 135.5t63.5 170t36 130.5q0 30 -13.5 45.5t-33 22.5t-42 9t-40.5 4v23h375v-23q-25 -2 -84 -6.5t-103 -102.5q-153 -348 -219 -507q-67 -158 -79.5 -185.5t-22.5 -49t-19.5 -42t-21.5 -45.5
q-8 -12 -20 -12t-17 14q-27 80 -51.5 153t-51 150.5t-57 169.5t-71.5 211l-195 -508q-29 -55 -43 -94t-35 -84q-8 -12 -19 -12t-20 14q-317 773 -338.5 820t-38.5 73q-12 10 -35.5 25.5t-91.5 17.5v23h461v-23q-14 -2 -63.5 -7t-73.5 -32q16 -66 126 -327t148 -355
q89 229 197 520q-28 82 -67 154q-6 6 -19.5 24t-97.5 23v23z" />
    <glyph glyph-name="x" unicode="x" horiz-adv-x="937" 
d="M598 969h391v-23q-33 -2 -57.5 -4t-71 -27.5t-127 -132t-99 -131t-36.5 -50.5t-43 -60q63 -124 95 -175t86 -142q53 -90 79.5 -125.5t51 -51.5t50 -19t62.5 -5v-23h-477v23q55 0 73.5 19t22.5 46q-4 53 -65.5 161.5t-86.5 153.5q-25 -37 -57.5 -83t-81.5 -119t-49 -109
q14 -45 43 -56t82 -13v-23h-399v23q71 0 121 22.5t134 125.5t193 259q-33 55 -58.5 100t-51 89.5t-78 136.5t-94.5 141q-39 29 -79 36t-79 13v23h489v-23q-80 0 -104 -55q5 -30 69 -152t97 -176q180 267 180 309q-6 43 -37 56.5t-88 17.5v23z" />
    <glyph glyph-name="y" unicode="y" horiz-adv-x="851" 
d="M214 -492q-44 0 -79 26t-35 67t25 67.5t65.5 26.5t68.5 -24.5t56 -51.5h4q41 99 71 206t32 118q-7 15 -52.5 140.5t-129.5 349.5t-170 464q-18 20 -44 32.5t-96 16.5v23h447v-23q-43 -6 -75 -16t-32 -42t58.5 -195t98.5 -276t79 -212q6 16 22.5 69.5t97.5 314.5t81 289
t-10.5 39t-28 17t-38 8t-38.5 4v23h315v-23q-70 -6 -92 -14t-38.5 -25.5t-27 -50.5t-33 -104.5t-53 -169t-67.5 -214t-110 -352.5t-105 -337q-33 -101 -78 -136t-89 -35z" />
    <glyph glyph-name="z" unicode="z" horiz-adv-x="886" 
d="M561 39q206 0 251.5 108.5t61.5 159.5l21 -2l-27 -311h-18q-4 6 -8 6l-107 2q-103 2 -131 2l-385 -2h-170l-6 14l571 912h-276q-139 0 -182 -37t-61.5 -78t-39.5 -100l-20 4l37 282l18 2q18 -27 51 -31.5t139 -4.5h62l485 2l2 -19l-577 -909h309z" />
    <glyph glyph-name="braceleft" unicode="{" horiz-adv-x="585" 
d="M420 350q0 -64 -35 -117t-77 -96t-76.5 -86t-34.5 -97t26.5 -88t108.5 -34h69q23 -47 4 -62.5t-41 -15.5t-61 18.5t-101.5 72.5t-62.5 130q0 75 32 119.5t68.5 82.5t68.5 80.5t32 104.5q0 109 -83 175.5t-177 66.5v25q94 0 177 63.5t83 171.5q0 68 -32 111t-70.5 82
t-70.5 83t-32 101q0 95 85 168.5t149 73.5q18 0 30.5 -10.5t12.5 -28.5t-11 -39q-29 0 -116.5 2.5t-87.5 -119.5q0 -63 34.5 -106t76.5 -86t77 -95.5t35 -141.5t-69.5 -151.5t-172.5 -89.5v-4q166 -41 204 -120.5t38 -143.5z" />
    <glyph glyph-name="bar" unicode="|" horiz-adv-x="503" 
d="M170 -43v1640h164v-1640h-164z" />
    <glyph glyph-name="braceright" unicode="}" horiz-adv-x="585" 
d="M174 1444q0 40 48 39q22 0 62 -18.5t103.5 -74t63.5 -131.5t-32 -119.5t-71 -82.5t-70.5 -82t-31.5 -105q0 -114 83 -177.5t177 -63.5v-25q-94 0 -177 -66.5t-83 -168.5q0 -68 31.5 -111t68.5 -81t68.5 -83t31.5 -100q0 -94 -83 -167t-146 -73q-18 0 -30.5 10.5
t-12.5 28.5t10 39h68q84 0 110.5 34t26.5 88t-35 97t-76.5 86t-76.5 96t-35 117q0 109 67 173.5t175 90.5v4q-102 27 -172 89.5t-70 151.5t35 141.5t76.5 95.5t76.5 86t35 99t-28.5 90t-110.5 34h-66q-10 21 -10 39z" />
    <glyph glyph-name="asciitilde" unicode="~" horiz-adv-x="1069" 
d="M252 1096q52 200 225 200l182 -39q76 0 119 17.5t58 87.5h28q-23 -95 -75 -153t-156 -58l-187 39q-88 0 -115 -14t-52 -80h-27z" />
    <glyph glyph-name="nonbreakingspace" unicode="&#xa0;" horiz-adv-x="430" 
 />
    <glyph glyph-name="exclamdown" unicode="&#xa1;" horiz-adv-x="620" 
d="M309 1067q14 -494 121 -760q0 -93 -42.5 -200t-88.5 -107q-20 0 -43 30.5t-53.5 109.5t-30.5 167q53 107 80 333t33 427h24zM422 1370q0 -53 -35 -89t-88 -36t-87 38t-34 91t34 85t87 32t88 -34t35 -87z" />
    <glyph glyph-name="cent" unicode="&#xa2;" horiz-adv-x="1077" 
d="M574 940q-52 0 -106 -30.5t-114.5 -113.5t-60.5 -226q0 -293 176 -398l188 760q-31 8 -83 8zM762 778q0 102 -70 142l-188 -760q64 -29 166 -29t177 51t122 133l16 -8q-39 -126 -148 -214.5t-259 -88.5q-55 0 -109 12l-70 -274l-39 8l74 277q-141 47 -226 171t-85 306
t132.5 326.5t330.5 144.5q41 0 84 -6l55 237l41 -10l-61 -233q161 -34 201 -104.5t40 -114.5t-29.5 -75.5t-68.5 -31.5t-64.5 20.5t-33.5 51.5q12 32 12 69z" />
    <glyph glyph-name="sterling" unicode="&#xa3;" horiz-adv-x="1388" 
d="M1434 1370q0 -33 -24 -54.5t-54 -21.5q-59 0 -78 82q-10 58 -33.5 73t-60.5 15t-79 -34.5t-85 -99t-116 -248t-106.5 -269.5t-64.5 -168t-55.5 -148.5t-42 -113.5t-23.5 -66h275l-23 -69h-278q-44 -150 -127.5 -245t-108.5 -116l4 -8q57 4 100.5 9.5t121.5 5.5t134 -30
t96 -66t77 -65.5t79 -29.5q66 0 119.5 36.5t53.5 84.5q0 20 -19.5 26.5t-44 12.5t-44 20.5t-19.5 52.5t25.5 62.5t69.5 24.5t68.5 -29t24.5 -79t-24.5 -104.5t-69.5 -94.5t-109.5 -62.5t-144.5 -22.5t-135.5 33t-105.5 73t-104 73.5t-130 33.5h-76q-68 -110 -143.5 -141
t-112.5 -31q-90 0 -90 60q0 33 27.5 51t72.5 31.5t101.5 26t107.5 32.5q96 173 158 381h-189l19 63h190q8 25 32 89.5t70 191t116 312.5q69 185 121 273.5t158.5 199t262.5 110.5t196 -45t40 -78z" />
    <glyph glyph-name="currency" unicode="&#xa4;" horiz-adv-x="1349" 
d="M674 420q148 0 252 104.5t104 252t-104 252t-252 104.5t-252 -105q-102 -106 -102.5 -251.5t102.5 -252.5q104 -104 252 -104zM211 772q0 160 96 281l-252 252l80 75l250 -245q137 106 290 106t290 -106l249 245l80 -75l-252 -252q98 -119 98 -281t-100 -293l252 -248
l-75 -75l-252 250q-137 -96 -292 -96t-288 96l-252 -250l-76 75l252 248q-98 133 -98 293z" />
    <glyph glyph-name="yen" unicode="&#xa5;" horiz-adv-x="1064" 
d="M616 117q0 -17 25 -50t125 -49v-18h-487v18q39 4 69.5 12.5t65.5 47.5q19 23 20.5 77t1.5 90v66l-321 -2v41l323 -2v111l-323 -2v41l323 -2l-2 41q-25 44 -86 140.5t-93.5 150.5t-60.5 92q-71 100 -113 138t-97 38v18h483v-18q-43 -4 -85 -14.5t-42 -45.5q0 -18 21 -54
t41 -69t41.5 -69.5t48 -77.5t54 -85t52.5 -83q112 167 170.5 283t58.5 141q0 42 -35.5 55.5t-88.5 18.5v18h360v-18q-73 -11 -118.5 -52t-89.5 -103q-43 -63 -90.5 -139.5t-82.5 -131t-68 -107.5l-2 -67l324 2v-41l-324 2v-111l324 2v-41l-322 2v-194z" />
    <glyph glyph-name="brokenbar" unicode="&#xa6;" horiz-adv-x="497" 
d="M291 -276h-84v806h84v-806zM291 797h-84v809h84v-809z" />
    <glyph glyph-name="section" unicode="&#xa7;" horiz-adv-x="958" 
d="M213 840q0 -84 22.5 -146t62.5 -122q56 -85 158.5 -206.5t175.5 -224t89 -176.5h16q12 16 26.5 58.5t14.5 90.5q0 90 -26 155.5t-72 139.5q-45 74 -73.5 115t-58.5 80t-61.5 79.5t-75.5 96.5t-82 108t-67 128h-16q-33 -92 -33 -176zM834 226q0 -128 -53.5 -246.5
t-133.5 -201.5t-173 -127t-167 -44t-125 35.5t-51 91.5t28.5 90.5t67.5 34.5t61.5 -19.5t43 -46t43 -57.5t57.5 -51q50 4 114 43.5t64 99.5q0 61 -42 118.5t-85 111.5t-76.5 91t-82 95t-95.5 145q-47 88 -65.5 155.5t-18.5 186.5t50.5 260.5t129 252t176 179t193.5 68.5
q53 0 84 -39t31 -89t-34 -86t-80 -36t-73.5 31t-52.5 71q-14 2 -24 3.5t-32 1.5q-50 0 -101.5 -44.5t-51.5 -112.5q0 -67 43 -133.5t89 -121.5t75 -88t73 -89t98 -137q55 -81 75.5 -174.5t20.5 -221.5z" />
    <glyph glyph-name="dieresis" unicode="&#xa8;" horiz-adv-x="1024" 
d="M436 1229q0 -39 -27.5 -66.5t-66.5 -27.5t-66.5 27.5t-27.5 66.5t27.5 66.5t66.5 27.5t66.5 -27.5t27.5 -66.5zM778 1229q0 -39 -27.5 -66.5t-66.5 -27.5t-66.5 27.5t-27.5 66.5t27.5 66.5t66.5 27.5t66.5 -27.5t27.5 -66.5z" />
    <glyph glyph-name="copyright" unicode="&#xa9;" horiz-adv-x="2048" 
d="M528 468q0 205 142.5 347.5t376.5 142.5q160 0 221 -40.5t63 -40.5q10 0 62 61h18v-324h-22q-27 93 -64 153q-37 59 -106.5 110t-161.5 51q-168 0 -255 -137t-87 -325t90 -312.5t235 -124.5t232 91t117 220h22l-6 -330h-19q-47 68 -57 68q-2 0 -63 -39t-201 -39
q-266 0 -401.5 131.5t-135.5 336.5zM1735 471.5q0 149.5 -56.5 280.5t-154 229t-228.5 154.5t-280.5 56.5t-281.5 -56.5t-229 -154.5t-153.5 -229t-56.5 -280.5t56.5 -282t153.5 -228.5t229 -152.5t281.5 -56.5t280.5 56.5t228.5 152.5t154 228.5t56.5 282zM1798 471
q0 -162 -61.5 -305t-168 -247.5t-248.5 -166t-304 -61.5t-305.5 61.5t-250 166t-168 247.5t-61.5 305t61.5 305.5t168 250t250 167.5t305.5 61t304 -61t248.5 -167.5t168 -250t61.5 -305.5z" />
    <glyph glyph-name="ordfeminine" unicode="&#xaa;" horiz-adv-x="507" 
d="M328 924v149q-114 -55 -137 -83.5t-23 -54.5t17 -44.5t61 -18.5t63 19t19 33zM473 874q38 0 49 39h15q-4 -47 -34 -80.5t-73 -33.5t-70.5 20.5t-27.5 61.5h-6q-59 -82 -150 -82q-35 0 -69.5 23.5t-34.5 67.5q0 70 75 113q99 58 181 97v106q0 4 -16.5 22.5t-55.5 18.5
t-65.5 -16.5t-26.5 -28.5v-47q0 -16 -16.5 -29.5t-37.5 -13.5t-35 14t-14 36q0 34 68 67q135 76 181 76t74 -16.5t36 -30.5t8 -66l-2 -248q0 -70 47 -70z" />
    <glyph glyph-name="guillemotleft" unicode="&#xab;" horiz-adv-x="804" 
d="M465 217l-14 -10l-342 311v10l342 312l12 -11l-176 -305zM711 203l-15 -10l-342 325v10l342 326l13 -10l-177 -320z" />
    <glyph glyph-name="logicalnot" unicode="&#xac;" horiz-adv-x="1433" 
d="M1167 113h-88v422h-827v79h915v-501z" />
    <glyph glyph-name="softhyphen" unicode="&#xad;" horiz-adv-x="651" 
d="M602 678h-555v139h555v-139z" />
    <glyph glyph-name="registered" unicode="&#xae;" horiz-adv-x="1052" 
d="M924 1194q0 104 -32 176t-86 126t-126 86t-154 32t-153.5 -32t-124.5 -86t-85 -126t-32 -194.5t117 -239.5t278 -117q98 0 181.5 42t138.5 114h-150q-6 8 -8 12t-5 8t-9 13.5t-24 35.5t-35 53t-39 53q-55 63 -75 59.5t-30 -3.5v-119q0 -54 11.5 -73t64.5 -19v-20h-240v20
q41 0 64 21q14 18 14 80v258q0 67 -16 82q-16 16 -58 22v17l23 1l178 3q103 0 154 -23q72 -33 71 -117q0 -49 -35.5 -80.5t-83.5 -41.5v-3q52 -45 125 -155q51 -58 115 -66q66 97 66 201zM522 1454q-38 0 -47 -2q-4 -12 -4 -51v-172q65 0 102 12q70 23 70 97q0 75 -63 106
q-20 10 -58 10zM963 1216.5q0 -90.5 -34 -169t-93.5 -138t-139.5 -93.5t-170 -34t-168.5 34t-138 93.5t-94.5 138t-35 169t35 170t94.5 138t138 92.5t168.5 34t170 -34t139.5 -92.5t93.5 -138t34 -170z" />
    <glyph glyph-name="macron" unicode="&#xaf;" horiz-adv-x="1024" 
d="M801 1180h-576v92h576v-92z" />
    <glyph glyph-name="degree" unicode="&#xb0;" horiz-adv-x="835" 
d="M623 1196q0 43 -15.5 80t-43 65.5t-65.5 45t-81 16.5t-80 -16.5t-65.5 -44t-45 -65.5t-16.5 -81t16.5 -82t45 -66.5t65.5 -44t80 -16.5t81 16.5t65.5 45t43 66.5t15.5 81zM707 1196q0 -59 -22.5 -111.5t-61.5 -92.5t-92.5 -62.5t-115 -22.5t-113.5 22.5t-90 61.5
t-60.5 91.5t-22.5 113.5t22.5 114.5t61.5 91.5t92 60.5t112.5 22.5t113 -22.5t92.5 -61.5t61.5 -92.5t22.5 -112.5z" />
    <glyph glyph-name="plusminus" unicode="&#xb1;" horiz-adv-x="1366" 
d="M1241 109v-109h-1116v109h1116zM1241 829v-108h-504v-504h-108v504h-504v108h504v504h108v-504h504z" />
    <glyph glyph-name="twosuperior" unicode="&#xb2;" horiz-adv-x="546" 
d="M373 1142q0 54 -36 88t-92 34q-127 0 -165 -121h-17q2 100 64.5 153.5t147.5 53.5t143.5 -46t58.5 -130q-1 -43 -21 -70q-39 -52 -86 -95.5t-143 -109.5v-4h197q61 0 82.5 23.5t36.5 48.5l18 -9l-76 -151h-419l-5 16q39 23 92.5 54.5t102.5 72.5t83 89.5t34 102.5z" />
    <glyph glyph-name="threesuperior" unicode="&#xb3;" horiz-adv-x="495" 
d="M440 1200q0 -52 -125 -160q106 -47 136 -106t30 -107q0 -102 -84.5 -164.5t-178.5 -62.5q-93 0 -144 29.5t-51 77.5q0 20 17 37.5t60 17.5q6 -16 14.5 -39t38 -57.5t95.5 -34.5q35 0 84 34.5t49 108.5t-48 125t-124 68l-6 14q61 41 99 80t38 96t-35 83t-82 26
q-119 0 -151 -107h-17q0 88 58 139.5t137 51.5q78 0 134 -40t56 -110z" />
    <glyph glyph-name="acute" unicode="&#xb4;" horiz-adv-x="1024" 
d="M709 1366l-287 -313l-21 12l213 360q45 0 63.5 -16t31.5 -33v-10z" />
    <glyph glyph-name="mu" unicode="&#xb5;" horiz-adv-x="1290" 
d="M991 987q114 0 63 -169.5t-102 -286.5t-65.5 -150t-14.5 -45q0 -96 42 -138t106 -42t113 50t71 171h21q0 -207 -78 -305q-61 -78 -162 -78q-154 0 -154 225q0 46 11 90h-6q-59 -145 -163 -231t-231 -86q-86 0 -137 64.5t-51 189.5q0 34 8 80h-18q-90 -220 -123 -570
q2 -18 8 -39.5t16.5 -59t10.5 -72.5t-22.5 -62t-52.5 -27t-54.5 20.5t-24.5 94.5t53 260q53 185 75 251t40 123.5t32.5 102t18.5 62.5t8 55t10.5 85t13.5 102.5t13 93.5q17 110 44 176.5t102 66.5q102 0 62 -154t-102.5 -287.5t-63.5 -216.5t49.5 -126t114.5 -43
q108 0 209.5 132.5t119.5 223t31.5 162.5t19.5 100t13 63.5t33 89.5t93 54z" />
    <glyph glyph-name="paragraph" unicode="&#xb6;" horiz-adv-x="1085" 
d="M975 1452q-170 0 -170 -119v-1198q0 -228 -121.5 -384.5t-364.5 -156.5q-72 0 -114.5 30t-59 56.5t-16.5 64.5t32 70.5t78 32.5t75.5 -25.5t29.5 -69.5t-31 -60q25 -43 113 -43q158 0 230.5 148t72.5 384v295h-76q-227 0 -381.5 146t-154.5 368q0 221 161.5 353.5
t458.5 132.5l238 -2v-23z" />
    <glyph glyph-name="periodcentered" unicode="&#xb7;" horiz-adv-x="538" 
d="M393 528.5q0 -53.5 -32.5 -85t-86 -31.5t-88 33.5t-34.5 87t34.5 89t88 35.5t86 -37.5t32.5 -91z" />
    <glyph glyph-name="cedilla" unicode="&#xb8;" horiz-adv-x="1024" 
d="M471 -430q37 0 63.5 29t26.5 83q0 116 -149 164l163 166h41l-92 -96q89 -35 120.5 -89t31.5 -99q0 -85 -74 -134t-141 -49q-156 0 -156 93q0 20 14.5 39.5t52.5 19.5t56 -23l-2 -41q0 -63 45 -63z" />
    <glyph glyph-name="onesuperior" unicode="&#xb9;" horiz-adv-x="411" 
d="M279 911q0 -50 6 -58q9 -11 45.5 -18.5t56.5 -7.5v-20h-321v20q82 9 94 22t12 27l2 197v148q0 62 -11 75q-11 12 -95 21v20h319v-20l-52 -6.5t-45 -18.5t-9 -31v-34l-2 -150v-166z" />
    <glyph glyph-name="ordmasculine" unicode="&#xba;" horiz-adv-x="573" 
d="M160 1071q0 -246 151 -246q68 0 105 73.5t37 157.5t-36.5 153t-106.5 69t-110 -71t-40 -136zM489.5 874.5q-75.5 -75.5 -176.5 -75.5t-182.5 67t-81.5 178t75 186t180 75t183 -68t78 -177q0 -110 -75.5 -185.5z" />
    <glyph glyph-name="guillemotright" unicode="&#xbb;" horiz-adv-x="804" 
d="M453 518l-342 -325l-15 10l178 321l-176 320l13 10l342 -326v-10zM698 518l-342 -311l-14 10l178 307l-176 305l12 11l342 -312v-10z" />
    <glyph glyph-name="onequarter" unicode="&#xbc;" horiz-adv-x="1024" 
d="M553 -59v321l-303 -321h303zM881 -156h-193v-237h-135v237h-397l-4 15l61 86l444 479h27v-483h197v-97zM745 680h-430v22q86 0 113 25t27 43v553q0 43 -61.5 54.5t-84.5 11.5v22h436v-22q-83 0 -114 -25t-31 -43v-553q0 -49 63.5 -57.5t81.5 -8.5v-22zM74 561h884v-55
h-884v55z" />
    <glyph glyph-name="onehalf" unicode="&#xbd;" horiz-adv-x="1024" 
d="M774 211q0 -80 -32.5 -141.5t-83 -110.5t-111 -94t-115.5 -88v-2h301q105 0 127.5 44t30.5 62l22 -8l-84 -227h-577l-2 18q181 143 245 208t103 124t39 121t-40 110.5t-150.5 48.5t-206.5 -141l-21 10q145 250 348 250q90 0 148.5 -52t58.5 -132zM745 680h-430v22
q86 0 113 25t27 43v553q0 43 -61.5 54.5t-84.5 11.5v22h436v-22q-83 0 -114 -25t-31 -43v-553q0 -49 63.5 -57.5t81.5 -8.5v-22zM74 561h884v-55h-884v55z" />
    <glyph glyph-name="threequarters" unicode="&#xbe;" horiz-adv-x="1024" 
d="M553 -59v321l-303 -321h303zM881 -156h-193v-237h-135v237h-397l-4 15l61 86l444 479h27v-483h197v-97zM958 506h-884v55h884v-55zM817 896q0 -50 -29.5 -97t-103 -94.5t-189.5 -47.5t-177.5 32t-61.5 83q0 23 18.5 45.5t81.5 22.5q10 -18 41.5 -84t132.5 -66
q31 0 91.5 36.5t60.5 113.5q0 155 -209 184l-2 14q80 51 119 93.5t39 98.5t-37 87t-92 31t-105.5 -26t-70.5 -91l-19 2q4 99 77 156t162 57t153.5 -49.5t64.5 -111.5t-42 -94t-114 -75q139 -45 175 -107.5t36 -112.5z" />
    <glyph glyph-name="questiondown" unicode="&#xbf;" horiz-adv-x="784" 
d="M444 301q45 0 115 8v-315h-35v96q-92 0 -152.5 16.5t-105.5 59.5q-73 70 -96 170.5t-23 176.5q0 279 72 345q37 35 107.5 57.5t193.5 47.5v165h37v-358q-53 -10 -105.5 -19.5t-97.5 -23.5q-89 -28 -127.5 -76t-38.5 -129q0 -80 22.5 -121t59.5 -63.5t83 -29.5t91 -7z
M635 1370q0 -53 -35 -89t-88 -36t-87 38t-34 91t34 85t87 32t88 -34t35 -87z" />
    <glyph glyph-name="Agrave" unicode="&#xc0;" horiz-adv-x="1441" 
d="M889 608q-101 266 -248 633q-12 -27 -35.5 -84t-60 -143t-166.5 -406h510zM1507 0h-598v20q31 0 87.5 22t56.5 82q0 59 -148 441h-545q-31 -78 -59.5 -148.5t-64.5 -162.5t-35 -126q0 -36 16 -53.5t42 -28.5t55.5 -16t56.5 -10v-20h-437v23q53 6 91.5 28.5t48.5 33.5
q44 46 105 182t114 259t109.5 253t111.5 262.5t104 246.5l-20 45q110 48 180 170h17q63 -170 120.5 -322.5t186 -502t156.5 -412t42 -92.5q68 -144 207 -149v-25zM877 1571l-23 -15l-360 293v11q33 53 104 53z" />
    <glyph glyph-name="Aacute" unicode="&#xc1;" horiz-adv-x="1441" 
d="M889 608q-101 266 -248 633q-12 -27 -35.5 -84t-60 -143t-166.5 -406h510zM1507 0h-598v20q31 0 87.5 22t56.5 82q0 59 -148 441h-545q-31 -78 -59.5 -148.5t-64.5 -162.5t-35 -126q0 -36 16 -53.5t42 -28.5t55.5 -16t56.5 -10v-20h-437v23q53 6 91.5 28.5t48.5 33.5
q44 46 105 182t114 259t109.5 253t111.5 262.5t104 246.5l-20 45q110 48 180 170h17q63 -170 120.5 -322.5t186 -502t156.5 -412t42 -92.5q68 -144 207 -149v-25zM864 1913q69 0 105 -53v-11l-361 -293l-22 15z" />
    <glyph glyph-name="Acircumflex" unicode="&#xc2;" horiz-adv-x="1441" 
d="M889 608q-101 266 -248 633q-12 -27 -35.5 -84t-60 -143t-166.5 -406h510zM1507 0h-598v20q31 0 87.5 22t56.5 82q0 59 -148 441h-545q-31 -78 -59.5 -148.5t-64.5 -162.5t-35 -126q0 -36 16 -53.5t42 -28.5t55.5 -16t56.5 -10v-20h-437v23q53 6 91.5 28.5t48.5 33.5
q44 46 105 182t114 259t109.5 253t111.5 262.5t104 246.5l-20 45q110 48 180 170h17q63 -170 120.5 -322.5t186 -502t156.5 -412t42 -92.5q68 -144 207 -149v-25zM963 1559l-27 -15l-207 213l-205 -213l-26 15l217 333h30z" />
    <glyph glyph-name="Atilde" unicode="&#xc3;" horiz-adv-x="1441" 
d="M889 608q-101 266 -248 633q-12 -27 -35.5 -84t-60 -143t-166.5 -406h510zM1507 0h-598v20q31 0 87.5 22t56.5 82q0 59 -148 441h-545q-31 -78 -59.5 -148.5t-64.5 -162.5t-35 -126q0 -36 16 -53.5t42 -28.5t55.5 -16t56.5 -10v-20h-437v23q53 6 91.5 28.5t48.5 33.5
q44 46 105 182t114 259t109.5 253t111.5 262.5t104 246.5l-20 45q110 48 180 170h17q63 -170 120.5 -322.5t186 -502t156.5 -412t42 -92.5q68 -144 207 -149v-25zM1098 1819q-51 -220 -240 -220l-219 43q-92 0 -119.5 -13.5t-54.5 -84.5h-29q23 92 79 150.5t155 58.5
l215 -43q78 0 122 17.5t60 91.5h31z" />
    <glyph glyph-name="Adieresis" unicode="&#xc4;" horiz-adv-x="1441" 
d="M889 608q-101 266 -248 633q-12 -27 -35.5 -84t-60 -143t-166.5 -406h510zM1507 0h-598v20q31 0 87.5 22t56.5 82q0 59 -148 441h-545q-31 -78 -59.5 -148.5t-64.5 -162.5t-35 -126q0 -36 16 -53.5t42 -28.5t55.5 -16t56.5 -10v-20h-437v23q53 6 91.5 28.5t48.5 33.5
q44 46 105 182t114 259t109.5 253t111.5 262.5t104 246.5l-20 45q110 48 180 170h17q63 -170 120.5 -322.5t186 -502t156.5 -412t42 -92.5q68 -144 207 -149v-25zM655 1669q0 -39 -27.5 -66.5t-66.5 -27.5t-66.5 27.5t-27.5 66.5t27.5 66.5t66.5 27.5t66.5 -27.5t27.5 -66.5
zM1016 1669q0 -39 -27.5 -66.5t-66.5 -27.5t-67 27.5t-28 66.5t28 66.5t67 27.5t66.5 -27.5t27.5 -66.5z" />
    <glyph glyph-name="Aring" unicode="&#xc5;" horiz-adv-x="1441" 
d="M889 608q-101 266 -248 633q-12 -27 -35.5 -84t-60 -143t-166.5 -406h510zM1507 0h-598v20q31 0 87.5 22t56.5 82q0 59 -148 441h-545q-31 -78 -59.5 -148.5t-64.5 -162.5t-35 -126q0 -36 16 -53.5t42 -28.5t55.5 -16t56.5 -10v-20h-437v23q53 6 91.5 28.5t48.5 33.5
q44 46 105 182t114 259t109.5 253t111.5 262.5t104 246.5l-20 45q110 48 180 170h17q63 -170 120.5 -322.5t186 -502t156.5 -412t42 -92.5q68 -144 207 -149v-25zM811 1677q0 47 -26.5 79t-72.5 32t-74 -32t-28 -79t27 -78.5t74 -31.5t73.5 31.5t26.5 78.5zM868 1678
q0 -67 -44 -110.5t-114 -43.5t-113.5 43t-43.5 109t46 110.5t113 44.5t111.5 -43t44.5 -110z" />
    <glyph glyph-name="AE" unicode="&#xc6;" horiz-adv-x="2080" 
d="M989 631v755h-10q-86 -115 -508 -755h518zM1379 1446q-112 0 -169 -10v-670h41q208 0 272 40t95 84t59 175h25v-645h-25q-16 66 -47 136.5t-67 105.5q-79 71 -195 71h-158v-303q0 -304 31 -351q31 -48 168 -48t225 12q129 16 225.5 106.5t180.5 264.5l22 -6l-82 -408
h-1179v20q117 18 142 49t30.5 56t10.5 106t5 357h-549q-41 -59 -82.5 -129t-107.5 -176t-66 -164q0 -70 62.5 -82t89.5 -17v-20h-451v23q55 6 87 28.5t45 33.5q65 55 158 186q92 130 186 269.5t223.5 331t363.5 539.5q-60 31 -166 43v21h1114l101 -340l-21 -11
q-82 104 -142 174t-114 96t-141.5 39t-199.5 13z" />
    <glyph glyph-name="Ccedilla" unicode="&#xc7;" horiz-adv-x="1589" 
d="M821 -451q41 0 70 31t29 90.5t-45.5 101.5t-131.5 58l136 164q-381 0 -544 153.5t-220.5 292t-57.5 301.5q0 221 121 414q149 242 354 296t334 54t221.5 -22.5t154 -49t94 -49t39.5 -22.5t37.5 32t53.5 66h23v-459l-25 -2q-56 204 -208.5 337.5t-354.5 133.5
q-141 0 -251.5 -63.5t-225.5 -223t-115 -457.5t165 -499.5t431 -201.5q205 0 362.5 138t194.5 320h25l-6 -450h-25q-66 92 -88 92q-4 0 -34.5 -19.5t-134.5 -64t-286 -47.5l-57 -82q134 -32 159 -100t25 -105t-24.5 -73.5t-77 -73.5t-127.5 -37q-172 0 -172 98
q0 23 15.5 43.5t51.5 20.5t62 -25l-2 -43q0 -68 55 -68z" />
    <glyph glyph-name="Egrave" unicode="&#xc8;" horiz-adv-x="1456" 
d="M84 0v20q113 18 168 78q37 44 37 221l4 306v518q0 155 -11.5 197t-33.5 65t-56 32t-90 17v21h1131l139 -338l-20 -11q-166 207 -312 279q-90 41 -358 41q-115 0 -145 -10q-2 -12 -4.5 -23.5t-5.5 -34.5t-6 -93q-5 -119 -5 -166v-349h43q228 0 312 50.5t107 121t36 127.5
h24v-645h-24q-16 66 -50 135.5t-69 101.5q-70 64 -188 72q-62 4 -101 4h-90v-254l2 -188q5 -171 34.5 -217.5t243.5 -46.5t343.5 55.5t277.5 310.5l23 -6l-103 -391h-1253zM907 1571l-22 -15l-361 293v11q33 53 105 53z" />
    <glyph glyph-name="Eacute" unicode="&#xc9;" horiz-adv-x="1456" 
d="M84 0v20q113 18 168 78q37 44 37 221l4 306v518q0 155 -11.5 197t-33.5 65t-56 32t-90 17v21h1131l139 -338l-20 -11q-166 207 -312 279q-90 41 -358 41q-115 0 -145 -10q-2 -12 -4.5 -23.5t-5.5 -34.5t-6 -93q-5 -119 -5 -168v-347h92q93 0 161 15q123 27 169 90t76 194
h24v-645h-24q-16 66 -50 135.5t-69 101.5q-70 64 -188 72q-62 4 -101 4h-90v-254l2 -188q5 -171 34.5 -217.5t243.5 -46.5t343.5 55.5t277.5 310.5l23 -6l-103 -391h-1253zM915 1913q72 0 105 -53v-11l-361 -293l-22 15z" />
    <glyph glyph-name="Ecircumflex" unicode="&#xca;" horiz-adv-x="1456" 
d="M84 0v20q113 18 168 78q37 44 37 221l4 306v518q0 155 -11.5 197t-33.5 65t-56 32t-90 17v21h1131l139 -338l-20 -11q-166 207 -312 279q-90 41 -358 41q-115 0 -145 -10q-2 -12 -11.5 -55.5t-9.5 -347.5v-263h92q93 0 161 15q123 27 169 90t76 194h24v-645h-24
q-16 66 -50 135.5t-69 101.5q-70 64 -188 72q-62 4 -101 4h-90v-254l2 -188q5 -171 34.5 -217.5t243.5 -46.5t343.5 55.5t277.5 310.5l23 -6l-103 -391h-1253zM1012 1579l-27 -14l-207 213l-205 -213l-26 14l217 334h31z" />
    <glyph glyph-name="Edieresis" unicode="&#xcb;" horiz-adv-x="1456" 
d="M84 0v20q113 18 168 78q37 44 37 221l4 306v518q0 155 -11.5 197t-33.5 65t-56 32t-90 17v21h1131l139 -338l-20 -11q-166 207 -312 279q-90 41 -358 41q-115 0 -145 -10q-2 -12 -4.5 -23.5t-5.5 -34.5t-6 -93q-5 -119 -5 -167v-348h43q228 0 312 50.5t107 121t36 127.5
h24v-645h-24q-16 66 -50 135.5t-69 101.5q-70 64 -188 72q-62 4 -101 4h-90v-254l2 -188q5 -171 34.5 -217.5t243.5 -46.5t343.5 55.5t277.5 310.5l23 -6l-103 -391h-1253zM702 1700q0 -39 -27.5 -66.5t-66.5 -27.5t-66.5 27.5t-27.5 66.5t27.5 66.5t66.5 27.5t66.5 -27.5
t27.5 -66.5zM1065 1700q0 -39 -27.5 -66.5t-66.5 -27.5t-66.5 27.5t-27.5 66.5t27.5 66.5t66.5 27.5t66.5 -27.5t27.5 -66.5z" />
    <glyph glyph-name="Igrave" unicode="&#xcc;" horiz-adv-x="817" 
d="M520 289q0 -59 2 -114.5t23 -84.5t74 -47t96 -23v-20h-621v20q113 18 170 80q29 35 29 219l4 306v362q0 362 -30 396q-51 58 -167 71v21h613v-21q-131 -18 -164 -81q-22 -42 -23.5 -95t-3.5 -100v-51zM524 1571l-22 -15l-348 293v11q33 53 102 53z" />
    <glyph glyph-name="Iacute" unicode="&#xcd;" horiz-adv-x="817" 
d="M520 289q0 -59 2 -114.5t23 -84.5t74 -47t96 -23v-20h-621v20q113 18 170 80q29 35 29 219l4 306v362q0 362 -30 396q-51 58 -167 71v21h613v-21q-131 -18 -164 -81q-22 -42 -23.5 -95t-3.5 -100v-51zM557 1913q69 0 102 -53v-11l-348 -293l-22 15z" />
    <glyph glyph-name="Icircumflex" unicode="&#xce;" horiz-adv-x="817" 
d="M520 289q0 -59 2 -114.5t23 -84.5t74 -47t96 -23v-20h-621v20q113 18 170 80q29 35 29 219l4 306v362q0 362 -30 396q-51 58 -167 71v21h613v-21q-131 -18 -164 -81q-22 -42 -23.5 -95t-3.5 -100v-51zM627 1579l-27 -14l-197 213l-194 -213l-27 14l207 334h31z" />
    <glyph glyph-name="Idieresis" unicode="&#xcf;" horiz-adv-x="817" 
d="M520 289q0 -59 2 -114.5t23 -84.5t74 -47t96 -23v-20h-621v20q113 18 170 80q29 35 29 219l4 306v362q0 362 -30 396q-51 58 -167 71v21h613v-21q-131 -18 -164 -81q-22 -42 -23.5 -95t-3.5 -100v-51zM332 1700q0 -39 -28 -66.5t-66.5 -27.5t-66.5 27.5t-28 66.5t28 66.5
t66.5 27.5t66.5 -27.5t28 -66.5zM674 1700q0 -39 -28 -66.5t-66.5 -27.5t-66.5 27.5t-28 66.5t28 66.5t66.5 27.5t66.5 -27.5t28 -66.5z" />
    <glyph glyph-name="Eth" unicode="&#xd0;" horiz-adv-x="1744" 
d="M773 1444q-69 0 -97.5 -1t-56 -4t-51 -5t-38.5 -7q-14 -137 -14 -651l367 2v-55l-367 2v-236q0 -287 31 -372.5t237 -85.5q376 0 512 227.5t136 482.5t-142 452t-350 232q-98 19 -167 19zM808 1477q122 0 235 -11t211 -53q197 -86 313 -247t116 -408
q0 -423 -253.5 -590.5t-598.5 -167.5h-747v20q51 6 98.5 27t65.5 40t29.5 76.5t11.5 155.5l4 289v117l-234 -2v55l234 -2v285q0 285 -31 321q-49 58 -170 72v21h20l398 2h298z" />
    <glyph glyph-name="Ntilde" unicode="&#xd1;" horiz-adv-x="1792" 
d="M1505 12q0 -18 -18 -18t-39 20q-212 244 -569 663.5t-541 625.5v-865q0 -252 27 -306t74.5 -77.5t131.5 -34.5v-20h-503v20q127 16 176 91q29 43 43 190t14 494v358q0 41 -2 100q-16 154 -100 175.5t-117 25.5v21h416l970 -1135v696q0 82 -2 157t-20 125
q-40 110 -221 136v21h508v-21q-147 -19 -187 -113q-20 -45 -24 -128t-12 -235t-7 -308v-230l1 -74zM1307 1839q-51 -219 -240 -219l-219 43q-92 0 -120 -14.5t-54 -83.5h-29q23 92 79 150.5t155 58.5l215 -43q78 0 122 17t60 91h31z" />
    <glyph glyph-name="Ograve" unicode="&#xd2;" horiz-adv-x="1654" 
d="M1205 1241.5q-136 218.5 -380 218.5q-133 0 -230 -64.5t-189.5 -216t-92.5 -447.5q0 -295 136.5 -503.5t324 -208.5t282.5 66t190 220t95 436q0 281 -136 499.5zM1595 740q0 -156 -61 -295.5t-166.5 -242t-246 -157.5t-297.5 -55t-296 54t-243.5 153.5t-165 237.5
t-60.5 309t63.5 311.5t171 238t252 149.5t311.5 52t305 -61.5t234.5 -165t147.5 -238t51 -290.5zM1006 1571l-23 -15l-360 293v11q33 53 104 53z" />
    <glyph glyph-name="Oacute" unicode="&#xd3;" horiz-adv-x="1654" 
d="M1205 1241.5q-136 218.5 -380 218.5q-133 0 -230 -64.5t-189.5 -216t-92.5 -447.5q0 -295 136.5 -503.5t324 -208.5t282.5 66t190 220t95 436q0 281 -136 499.5zM1595 740q0 -156 -61 -295.5t-166.5 -242t-246 -157.5t-297.5 -55t-296 54t-243.5 153.5t-165 237.5
t-60.5 309t63.5 311.5t171 238t252 149.5t311.5 52t305 -61.5t234.5 -165t147.5 -238t51 -290.5zM948 1913q69 0 105 -53v-11l-361 -293l-22 15z" />
    <glyph glyph-name="Ocircumflex" unicode="&#xd4;" horiz-adv-x="1654" 
d="M1205 1241.5q-136 218.5 -380 218.5q-133 0 -230 -64.5t-189.5 -216t-92.5 -447.5q0 -295 136.5 -503.5t324 -208.5t282.5 66t190 220t95 436q0 281 -136 499.5zM1595 740q0 -156 -61 -295.5t-166.5 -242t-246 -157.5t-297.5 -55t-296 54t-243.5 153.5t-165 237.5
t-60.5 309t63.5 311.5t171 238t252 149.5t311.5 52t305 -61.5t234.5 -165t147.5 -238t51 -290.5zM1061 1579l-27 -14l-207 213l-204 -213l-27 14l217 334h31z" />
    <glyph glyph-name="Otilde" unicode="&#xd5;" horiz-adv-x="1654" 
d="M1205 1241.5q-136 218.5 -380 218.5q-133 0 -230 -64.5t-189.5 -216t-92.5 -447.5q0 -295 136.5 -503.5t324 -208.5t282.5 66t190 220t95 436q0 281 -136 499.5zM1595 740q0 -156 -61 -295.5t-166.5 -242t-246 -157.5t-297.5 -55t-296 54t-243.5 153.5t-165 237.5
t-60.5 309t63.5 311.5t171 238t252 149.5t311.5 52t305 -61.5t234.5 -165t147.5 -238t51 -290.5zM1167 1839q-51 -219 -239 -219l-219 43q-93 0 -120 -14t-54 -84h-29q23 92 79 150.5t154 58.5l215 -43q78 0 122 17t61 91h30z" />
    <glyph glyph-name="Odieresis" unicode="&#xd6;" horiz-adv-x="1654" 
d="M1205 1241.5q-136 218.5 -380 218.5q-133 0 -230 -64.5t-189.5 -216t-92.5 -447.5q0 -295 136.5 -503.5t324 -208.5t282.5 66t190 220t95 436q0 281 -136 499.5zM1595 740q0 -156 -61 -295.5t-166.5 -242t-246 -157.5t-297.5 -55t-296 54t-243.5 153.5t-165 237.5
t-60.5 309t63.5 311.5t171 238t252 149.5t311.5 52t305 -61.5t234.5 -165t147.5 -238t51 -290.5zM748 1700q0 -39 -28 -66.5t-67 -27.5t-66.5 27.5t-27.5 66.5t27.5 66.5t66.5 27.5t67 -27.5t28 -66.5zM1110 1700q0 -39 -27.5 -66.5t-66.5 -27.5t-66.5 27.5t-27.5 66.5
t27.5 66.5t66.5 27.5t66.5 -27.5t27.5 -66.5z" />
    <glyph glyph-name="multiply" unicode="&#xd7;" horiz-adv-x="1433" 
d="M1114 193l-55 -58l-340 344l-342 -344l-58 58l345 342l-345 339l58 56l340 -344l340 344l57 -58l-344 -340z" />
    <glyph glyph-name="Oslash" unicode="&#xd8;" horiz-adv-x="1654" 
d="M831 20q129 0 224.5 66t190.5 220t95 443t-133 492l-739 -1040q136 -181 362 -181zM825 1460q-133 0 -230 -64.5t-189.5 -216t-92.5 -449.5t129 -499l740 1043q-132 186 -357 186zM850 1495q233 0 407 -113l109 156l39 -27l-113 -151q147 -104 225 -266t78 -336
t-61 -313.5t-166.5 -242t-246 -157.5t-298.5 -55q-239 0 -422 116l-125 -176l-38 27l131 172q-141 100 -225.5 256t-84.5 343t63.5 327.5t171 238t252 149.5t304.5 52z" />
    <glyph glyph-name="Ugrave" unicode="&#xd9;" horiz-adv-x="1708" 
d="M1421 613v405q0 235 -21 293q-43 118 -220 143v21h508v-21q-76 -10 -131 -46.5t-71 -141.5t-18 -316t-12 -411t-106 -379.5t-486 -179.5t-489 172t-104 256t-5 108l2 354v238q0 239 -30 274q-50 59 -166 72v21h610v-21q-81 -11 -131.5 -44.5t-54.5 -117.5t-4 -96v-487
l2 -185q4 -220 119 -349.5t317 -129.5q390 0 440.5 228t50.5 340zM1016 1571l-23 -15l-360 293v11q33 53 104 53z" />
    <glyph glyph-name="Uacute" unicode="&#xda;" horiz-adv-x="1708" 
d="M1421 613v405q0 235 -21 293q-43 118 -220 143v21h508v-21q-76 -10 -131 -46.5t-71 -141.5t-18 -316t-12 -411t-106 -379.5t-486 -179.5t-489 172t-104 256t-5 108l2 354v238q0 239 -30 274q-50 59 -166 72v21h610v-21q-81 -11 -131.5 -44.5t-54.5 -125.5t-4 -103v-472
l2 -185q4 -220 119 -349.5t317 -129.5q390 0 440.5 228t50.5 340zM1073 1913q69 0 105 -53v-11l-361 -293l-22 15z" />
    <glyph glyph-name="Ucircumflex" unicode="&#xdb;" horiz-adv-x="1708" 
d="M1421 613v405q0 235 -21 293q-43 118 -220 143v21h508v-21q-76 -10 -131 -46.5t-71 -141.5t-18 -316t-12 -411t-106 -379.5t-486 -179.5t-489 172t-104 256t-5 108l2 354v238q0 239 -30 274q-50 59 -166 72v21h610v-21q-81 -11 -131.5 -44.5t-54.5 -119.5t-4 -132v-449
l2 -185q4 -220 119 -349.5t317 -129.5q390 0 440.5 228t50.5 340zM1155 1579l-27 -14l-206 213l-205 -213l-27 14l217 334h31z" />
    <glyph glyph-name="Udieresis" unicode="&#xdc;" horiz-adv-x="1708" 
d="M1421 613v405q0 235 -21 293q-43 118 -220 143v21h508v-21q-76 -10 -131 -46.5t-71 -141.5t-18 -316t-12 -411t-106 -379.5t-486 -179.5t-489 172t-104 256t-5 108l2 354v238q0 239 -30 274q-50 59 -166 72v21h610v-21q-180 -25 -185 -150q-5 -122 -5 -138v-457l2 -185
q4 -220 119 -349.5t317 -129.5q390 0 440.5 228t50.5 340zM836 1700q0 -39 -28 -66.5t-67 -27.5t-66.5 27.5t-27.5 66.5t27.5 66.5t66.5 27.5t67 -27.5t28 -66.5zM1198 1700q0 -39 -27.5 -66.5t-66.5 -27.5t-66.5 27.5t-27.5 66.5t27.5 66.5t66.5 27.5t66.5 -27.5
t27.5 -66.5z" />
    <glyph glyph-name="Yacute" unicode="&#xdd;" horiz-adv-x="1329" 
d="M-51 1475h620v-21q-122 -8 -150 -33.5t-28 -52.5t29.5 -81t57.5 -100t58.5 -98.5t90.5 -146.5t123 -201q27 39 65.5 99.5t110 172t89.5 144.5q19 33 31.5 54.5t32 63t19.5 75.5q0 56 -44 74t-130 30v21h473v-21q-104 -15 -164 -72t-115 -143q-56 -86 -99.5 -152.5
t-125 -193.5t-121.5 -184v-412q0 -164 27 -202t76 -52t94 -23v-20h-631v20q53 6 93 19.5t85 64.5q24 24 28.5 177.5t4.5 373.5q-14 22 -62.5 101.5t-83 135.5t-90.5 147.5t-94 147.5q-37 56 -103 159t-167 108v21zM870 1913q72 0 105 -53v-11l-361 -293l-22 15z" />
    <glyph glyph-name="Thorn" unicode="&#xde;" horiz-adv-x="1343" 
d="M516 369q196 0 289 32q131 45 197.5 150.5t66.5 229.5t-74.5 244t-190.5 135.5t-176 15.5t-110 -7v-49zM1238 999q58 -88 58 -222t-82.5 -236t-207.5 -150q-145 -51 -204 -51h-286v-98q0 -99 27 -138q16 -27 66 -53t134 -31v-20h-659v20q128 20 166 67q39 47 39 232
l4 306v518q0 151 -11.5 193t-37.5 70t-168 48v21h645v-21q-133 -15 -174 -65q-31 -35 -31 -183l135 2q135 0 239.5 -13t197 -60.5t150.5 -135.5z" />
    <glyph glyph-name="germandbls" unicode="&#xdf;" horiz-adv-x="1097" 
d="M344 80q0 -45 115 -60v-20h-441v20q99 8 127.5 29t28.5 37v793h-147v22l149 84q0 169 27 233q54 128 167 200.5t221 72.5q181 0 245.5 -76.5t64.5 -153.5t-15.5 -118t-40 -72t-51 -55.5t-66.5 -66t-40 -112.5t30 -111t68 -72t71 -55t91 -67t94.5 -99t36.5 -133
q0 -142 -90.5 -222t-237.5 -80t-241 45v242h18q57 -173 134 -216.5t119 -43.5q77 0 118 53.5t41 142.5q0 88 -66 141q-47 39 -96 73t-101 78t-95 97.5t-43 122.5t26.5 106.5t65.5 73.5t64.5 55t52 59t26.5 163q0 122 -54 187t-151 75q-110 0 -159.5 -85t-53.5 -153t-6 -96
t-4 -51t-2 -29v-958z" />
    <glyph glyph-name="agrave" unicode="&#xe0;" horiz-adv-x="917" 
d="M571 242v315q-37 -27 -92 -56.5t-107.5 -64.5t-90 -77t-37.5 -95t37 -96t93 -43q113 0 173 59q24 23 24 58zM840 131q82 0 100 70h12q0 -84 -58 -143.5t-136 -59.5t-132.5 41t-54.5 143l-4 2q-71 -120 -155 -152t-128 -32q-91 0 -146.5 48.5t-55.5 148.5t153 197.5
t234.5 140.5t101.5 55v211q0 22 -39.5 58t-111.5 36t-127 -38t-55 -66v-93q0 -29 -30 -51t-64 -22t-57.5 23.5t-23.5 51.5t12.5 48t31 36.5t40 28.5t55.5 33q93 57 199.5 100t158.5 43t99.5 -27.5t67.5 -68.5q12 -21 12 -121l-4 -489q0 -92 33 -122t72 -30zM584 1065
l-21 -12l-280 313v10q12 16 30.5 32.5t63.5 16.5z" />
    <glyph glyph-name="aacute" unicode="&#xe1;" horiz-adv-x="917" 
d="M571 242v315q-37 -27 -92 -56.5t-107.5 -64.5t-90 -77t-37.5 -95t37 -96t93 -43q113 0 173 59q24 23 24 58zM840 131q82 0 100 70h12q0 -84 -58 -143.5t-136 -59.5t-132.5 41t-54.5 143l-4 2q-71 -120 -155 -152t-128 -32q-91 0 -146.5 48.5t-55.5 148.5t153 197.5
t234.5 140.5t101.5 55v211q0 22 -39.5 58t-111.5 36t-127 -38t-55 -66v-93q0 -29 -30 -51t-64 -22t-57.5 23.5t-23.5 51.5t12.5 48t31 36.5t40 28.5t55.5 33q93 57 199.5 100t158.5 43t99.5 -27.5t67.5 -68.5q12 -21 12 -121l-4 -489q0 -92 33 -122t72 -30zM672 1366
l-287 -313l-20 12l213 360q45 0 63 -16t31 -33v-10z" />
    <glyph glyph-name="acircumflex" unicode="&#xe2;" horiz-adv-x="917" 
d="M571 242v315q-37 -27 -92 -56.5t-107.5 -64.5t-90 -77t-37.5 -95t37 -96t93 -43q113 0 173 59q24 23 24 58zM840 131q82 0 100 70h12q0 -84 -58 -143.5t-136 -59.5t-132.5 41t-54.5 143l-4 2q-71 -120 -155 -152t-128 -32q-91 0 -146.5 48.5t-55.5 148.5t153 197.5
t234.5 140.5t101.5 55v211q0 22 -39.5 58t-111.5 36t-127 -38t-55 -66v-93q0 -29 -30 -51t-64 -22t-57.5 23.5t-23.5 51.5t12.5 48t31 36.5t40 28.5t55.5 33q93 57 199.5 100t158.5 43t99.5 -27.5t67.5 -68.5q12 -21 12 -121l-4 -489q0 -92 33 -122t72 -30zM649 1081
l-24 -14l-187 227l-184 -227l-25 14l195 349h31z" />
    <glyph glyph-name="atilde" unicode="&#xe3;" horiz-adv-x="917" 
d="M571 242v315q-37 -27 -92 -56.5t-107.5 -64.5t-90 -77t-37.5 -95t37 -96t93 -43q113 0 173 59q24 23 24 58zM840 131q82 0 100 70h12q0 -84 -58 -143.5t-136 -59.5t-132.5 41t-54.5 143l-4 2q-71 -120 -155 -152t-128 -32q-91 0 -146.5 48.5t-55.5 148.5t153 197.5
t234.5 140.5t101.5 55v211q0 22 -39.5 58t-111.5 36t-127 -38t-55 -66v-93q0 -29 -30 -51t-64 -22t-57.5 23.5t-23.5 51.5t12.5 48t31 36.5t40 28.5t55.5 33q93 57 199.5 100t158.5 43t99.5 -27.5t67.5 -68.5q12 -21 12 -121l-4 -489q0 -92 33 -122t72 -30zM141 1096
q52 200 226 200l174 -39q76 0 118.5 17.5t57.5 87.5h28q-23 -95 -75 -153t-156 -58l-178 39q-88 0 -115.5 -14t-52.5 -80h-27z" />
    <glyph glyph-name="adieresis" unicode="&#xe4;" horiz-adv-x="917" 
d="M571 242v315q-37 -27 -92 -56.5t-107.5 -64.5t-90 -77t-37.5 -95t37 -96t93 -43q113 0 173 59q24 23 24 58zM840 131q82 0 100 70h12q0 -84 -58 -143.5t-136 -59.5t-132.5 41t-54.5 143l-4 2q-71 -120 -155 -152t-128 -32q-91 0 -146.5 48.5t-55.5 148.5t153 197.5
t234.5 140.5t101.5 55v211q0 22 -39.5 58t-111.5 36t-127 -38t-55 -66v-93q0 -29 -30 -51t-64 -22t-57.5 23.5t-23.5 51.5t12.5 48t31 36.5t40 28.5t55.5 33q93 57 199.5 100t158.5 43t99.5 -27.5t67.5 -68.5q12 -21 12 -121l-4 -489q0 -92 33 -122t72 -30zM391 1229
q0 -39 -27.5 -66.5t-66.5 -27.5t-66.5 27.5t-27.5 66.5t27.5 66.5t66.5 27.5t66.5 -27.5t27.5 -66.5zM713 1229q0 -39 -28 -66.5t-66.5 -27.5t-66.5 27.5t-28 66.5t28 66.5t66.5 27.5t66.5 -27.5t28 -66.5z" />
    <glyph glyph-name="aring" unicode="&#xe5;" horiz-adv-x="917" 
d="M571 242v315q-37 -27 -92 -56.5t-107.5 -64.5t-90 -77t-37.5 -95t37 -96t93 -43q113 0 173 59q24 23 24 58zM569 1212q0 45 -25.5 76t-69.5 31t-70.5 -29.5t-26.5 -75.5t25.5 -77t70.5 -31t70.5 30.5t25.5 75.5zM840 131q82 0 100 70h12q0 -84 -58 -143.5t-136 -59.5
t-132.5 41t-54.5 143l-4 2q-71 -120 -155 -152t-128 -32q-91 0 -146.5 48.5t-55.5 148.5t153 197.5t234.5 140.5t101.5 55v211q0 22 -39.5 58t-111.5 36t-127 -38t-55 -66v-93q0 -29 -30 -51t-64 -22t-57.5 23.5t-23.5 51.5t12.5 48t31 36.5t40 28.5t55.5 33
q93 57 199.5 100t158.5 43t99.5 -27.5t67.5 -68.5q12 -21 12 -121l-4 -489q0 -92 33 -122t72 -30zM625 1214q0 -64 -43 -106.5t-110 -42.5t-108.5 41t-41.5 105t44 106.5t108 42.5t107.5 -41t43.5 -105z" />
    <glyph glyph-name="ae" unicode="&#xe6;" horiz-adv-x="1406" 
d="M371 121q136 0 198 90v344q-37 -27 -93 -56.5t-109.5 -64.5t-91 -77t-37.5 -95t36.5 -97t96.5 -44zM1180 770q0 76 -50 130t-124 54q-122 0 -195.5 -96.5t-73.5 -173.5h310q72 0 104 12q29 33 29 74zM264 -2q-78 0 -132 48t-54 149t158 204q57 38 185 107t148 82v213
q0 22 -39.5 58t-107.5 36q-69 0 -126.5 -35t-57.5 -69v-93q0 -29 -30 -51t-64 -22t-57.5 23.5t-23.5 51.5t12.5 48t31 36.5t40 28.5t55.5 33q93 57 199.5 100t157.5 43t100.5 -28.5t67.5 -75.5q112 104 276 104t267.5 -87t109.5 -251h-645l-2 -86q0 -193 98.5 -311.5
t272.5 -118.5q102 0 179 53.5t101 128.5l17 -4q-20 -111 -123 -213t-262 -102q-203 0 -285 95t-106 147q-167 -242 -361 -242z" />
    <glyph glyph-name="ccedilla" unicode="&#xe7;" horiz-adv-x="884" 
d="M471 -430q37 0 63.5 29t26.5 83q0 116 -149 164l196 160q-44 -10 -128 -10t-167.5 37t-177.5 144.5t-94 312.5t133 352t330 147q142 0 253 -65.5t111 -178.5q0 -43 -31.5 -74.5t-70.5 -31.5t-66.5 20.5t-35.5 51.5q10 29 10 87t-40 108t-114 50q-136 0 -220.5 -120
t-84.5 -297t95 -292.5t238 -115.5q144 0 217 44t122 126l16 -8q-24 -79 -89.5 -150.5t-133.5 -119.5l-156 -113q88 -31 120 -83.5t32 -98.5q0 -86 -74 -134.5t-141 -48.5q-156 0 -156 93q0 20 14.5 39.5t52.5 19.5t56 -23l-2 -41q0 -63 45 -63z" />
    <glyph glyph-name="egrave" unicode="&#xe8;" horiz-adv-x="890" 
d="M668 770q0 76 -53 130t-125 54t-118 -33.5t-94 -97t-61 -143.5h21l297 4q73 0 104 12q29 33 29 74zM502 -2q-210 0 -336.5 147.5t-126.5 349.5t122 348t312 146q262 0 326.5 -126t70.5 -212h-657l-4 -82q0 -180 98.5 -307t282.5 -127q102 0 179 52.5t101 127.5l17 -4
q-20 -112 -123.5 -212.5t-261.5 -100.5zM580 1065l-21 -12l-280 313v10q12 16 30.5 32.5t63.5 16.5z" />
    <glyph glyph-name="eacute" unicode="&#xe9;" horiz-adv-x="890" 
d="M668 770q0 76 -53 130t-125 54t-118 -33.5t-94 -97t-61 -143.5h21l297 4q73 0 104 12q29 33 29 74zM502 -2q-210 0 -336.5 147.5t-126.5 349.5t122 348t312 146q262 0 326.5 -126t70.5 -212h-657l-4 -82q0 -180 98.5 -307t282.5 -127q102 0 179 52.5t101 127.5l17 -4
q-20 -112 -123.5 -212.5t-261.5 -100.5zM696 1366l-286 -313l-21 12l213 360q45 0 63.5 -16t30.5 -33v-10z" />
    <glyph glyph-name="ecircumflex" unicode="&#xea;" horiz-adv-x="890" 
d="M668 770q0 76 -53 130t-125 54t-118 -33.5t-94 -97t-61 -143.5h21l297 4q73 0 104 12q29 33 29 74zM502 -2q-210 0 -336.5 147.5t-126.5 349.5t122 348t312 146q262 0 326.5 -126t70.5 -212h-657l-4 -82q0 -180 98.5 -307t282.5 -127q102 0 179 52.5t101 127.5l17 -4
q-20 -112 -123.5 -212.5t-261.5 -100.5zM700 1081l-24 -14l-187 227l-184 -227l-24 14l194 349h31z" />
    <glyph glyph-name="edieresis" unicode="&#xeb;" horiz-adv-x="890" 
d="M668 770q0 76 -53 130t-125 54t-118 -33.5t-94 -97t-61 -143.5h21l297 4q73 0 104 12q29 33 29 74zM502 -2q-210 0 -336.5 147.5t-126.5 349.5t122 348t312 146q262 0 326.5 -126t70.5 -212h-657l-4 -82q0 -180 98.5 -307t282.5 -127q102 0 179 52.5t101 127.5l17 -4
q-20 -112 -123.5 -212.5t-261.5 -100.5zM406 1229q0 -39 -28 -66.5t-67 -27.5t-66.5 27.5t-27.5 66.5t27.5 66.5t66.5 27.5t67 -27.5t28 -66.5zM729 1229q0 -39 -27.5 -66.5t-66.5 -27.5t-66.5 27.5t-27.5 66.5t27.5 66.5t66.5 27.5t66.5 -27.5t27.5 -66.5z" />
    <glyph glyph-name="igrave" unicode="&#xec;" horiz-adv-x="520" 
d="M176 86v711q0 16 -3.5 29t-115.5 59v14l277 90h12v-915q9 -44 60 -46.5t71 -7.5v-20h-440v20q139 11 139 66zM350 1065l-20 -12l-281 313v10q12 16 30.5 32.5t63.5 16.5z" />
    <glyph glyph-name="iacute" unicode="&#xed;" horiz-adv-x="520" 
d="M176 86v711q0 16 -3.5 29t-115.5 59v14l277 90h12v-915q9 -44 60 -46.5t71 -7.5v-20h-440v20q139 11 139 66zM424 1366l-287 -313l-20 12l213 360q45 0 63.5 -16t30.5 -33v-10z" />
    <glyph glyph-name="icircumflex" unicode="&#xee;" horiz-adv-x="520" 
d="M176 86v711q0 16 -3.5 29t-115.5 59v14l277 90h12v-915q9 -44 60 -46.5t71 -7.5v-20h-440v20q139 11 139 66zM446 1079l-24 -14l-174 231l-176 -229l-25 14l186 349h31z" />
    <glyph glyph-name="idieresis" unicode="&#xef;" horiz-adv-x="520" 
d="M176 86v711q0 16 -3.5 29t-115.5 59v14l277 90h12v-915q9 -44 60 -46.5t71 -7.5v-20h-440v20q139 11 139 66zM195 1229q0 -39 -28 -66.5t-67 -27.5t-66.5 27.5t-27.5 66.5t27.5 66.5t66.5 27.5t67 -27.5t28 -66.5zM485 1229q0 -39 -27.5 -66.5t-66.5 -27.5t-66.5 27.5
t-27.5 66.5t27.5 66.5t66.5 27.5t66.5 -27.5t27.5 -66.5z" />
    <glyph glyph-name="eth" unicode="&#xf0;" horiz-adv-x="1028" 
d="M227 429q0 -192 78 -299t212 -107t210 117.5t76 309.5t-36.5 291t-92 127.5t-135.5 28.5q-150 0 -231 -138t-81 -330zM586 1309q180 -138 290.5 -329t110.5 -426q0 -236 -134.5 -398t-342.5 -162t-339.5 144t-131.5 343q0 198 128.5 328.5t328.5 130.5q106 0 211 -33
q-33 125 -111 219.5t-107 120.5l-235 -162l-31 43l234 150q-122 119 -285 182l8 29q168 -29 363 -152l198 140l35 -41z" />
    <glyph glyph-name="ntilde" unicode="&#xf1;" horiz-adv-x="1069" 
d="M924 72q0 -41 125 -54v-18h-418v23q55 4 88 13t33 42v516q0 264 -197 264q-68 0 -113 -28.5t-100 -84.5v-671q8 -39 34.5 -43t67.5 -11v-20h-387v20q115 10 115 66v705q0 27 -20 43q-53 29 -93 47v12l269 96h12v-221l4 -2q61 93 147 158t196 65t173.5 -88t63.5 -227v-602
zM252 1096q52 200 225 200l182 -39q76 0 119 17.5t58 87.5h28q-23 -95 -75 -153t-156 -58l-187 39q-88 0 -115 -14t-52 -80h-27z" />
    <glyph glyph-name="ograve" unicode="&#xf2;" horiz-adv-x="1046" 
d="M744.5 814q-72.5 142 -226.5 142q-127 0 -208 -141.5t-81 -325.5q0 -321 111 -393.5t190.5 -72.5t134 48t103.5 154t49 277q0 170 -72.5 312zM1008 512q0 -218 -141.5 -368t-332.5 -150q-192 0 -343.5 130.5t-151.5 377.5q0 195 139.5 341t336.5 146t301 -91t148 -181.5
t44 -204.5zM637 1065l-21 -12l-280 313v10q12 16 30.5 32.5t63.5 16.5z" />
    <glyph glyph-name="oacute" unicode="&#xf3;" horiz-adv-x="1046" 
d="M744.5 814q-72.5 142 -226.5 142q-127 0 -208 -141.5t-81 -325.5q0 -321 111 -393.5t190.5 -72.5t134 48t103.5 154t49 277q0 170 -72.5 312zM1008 512q0 -218 -141.5 -368t-332.5 -150q-192 0 -343.5 130.5t-151.5 377.5q0 195 139.5 341t336.5 146t301 -91t148 -181.5
t44 -204.5zM721 1366l-287 -313l-20 12l213 360q45 0 63.5 -16t30.5 -33v-10z" />
    <glyph glyph-name="ocircumflex" unicode="&#xf4;" horiz-adv-x="1046" 
d="M744.5 814q-72.5 142 -226.5 142q-127 0 -208 -141.5t-81 -325.5q0 -321 111 -393.5t190.5 -72.5t134 48t103.5 154t49 277q0 170 -72.5 312zM1008 512q0 -218 -141.5 -368t-332.5 -150q-192 0 -343.5 130.5t-151.5 377.5q0 195 139.5 341t336.5 146t301 -91t148 -181.5
t44 -204.5zM735 1081l-24 -14l-187 227l-184 -227l-25 14l195 349h31z" />
    <glyph glyph-name="otilde" unicode="&#xf5;" horiz-adv-x="1046" 
d="M744.5 814q-72.5 142 -226.5 142q-127 0 -208 -141.5t-81 -325.5q0 -321 111 -393.5t190.5 -72.5t134 48t103.5 154t49 277q0 170 -72.5 312zM1008 512q0 -218 -141.5 -368t-332.5 -150q-192 0 -343.5 130.5t-151.5 377.5q0 195 139.5 341t336.5 146t301 -91t148 -181.5
t44 -204.5zM215 1096q52 200 225 200l183 -39q76 0 118.5 17.5t57.5 87.5h28q-23 -95 -75 -153t-156 -58l-186 39q-89 0 -116 -14.5t-52 -79.5h-27z" />
    <glyph glyph-name="odieresis" unicode="&#xf6;" horiz-adv-x="1046" 
d="M744.5 814q-72.5 142 -226.5 142q-127 0 -208 -141.5t-81 -325.5q0 -321 111 -393.5t190.5 -72.5t134 48t103.5 154t49 277q0 170 -72.5 312zM1008 512q0 -218 -141.5 -368t-332.5 -150q-192 0 -343.5 130.5t-151.5 377.5q0 195 139.5 341t336.5 146t301 -91t148 -181.5
t44 -204.5zM449 1229q0 -39 -28 -66.5t-67 -27.5t-66.5 27.5t-27.5 66.5t27.5 66.5t66.5 27.5t67 -27.5t28 -66.5zM791 1229q0 -39 -28 -66.5t-67 -27.5t-66.5 27.5t-27.5 66.5t27.5 66.5t66.5 27.5t67 -27.5t28 -66.5z" />
    <glyph glyph-name="divide" unicode="&#xf7;" horiz-adv-x="1433" 
d="M825 226q0 -48 -29.5 -76.5t-77.5 -28.5t-79 30.5t-31 77.5t31 80t79 33t77.5 -34t29.5 -82zM1178 494h-922v81h922v-81zM825 841q0 -48 -29.5 -82t-77.5 -34t-79 33t-31 80t31 77.5t79 30.5t77.5 -28.5t29.5 -76.5z" />
    <glyph glyph-name="oslash" unicode="&#xf8;" horiz-adv-x="1046" 
d="M746 176q73 153 73 319t-63 300l-453 -641q82 -131 226 -131t217 153zM227 490q0 -177 60 -306l450 641q-80 131 -215 131q-134 0 -214.5 -144.5t-80.5 -321.5zM549 989q127 0 254 -84l117 168l30 -20l-121 -166q78 -59 128.5 -156t50.5 -215q0 -223 -141.5 -372.5
t-338.5 -149.5q-159 0 -284 88l-131 -186l-31 22l137 182q-180 145 -180 402q0 195 139.5 341t370.5 146z" />
    <glyph glyph-name="ugrave" unicode="&#xf9;" horiz-adv-x="1071" 
d="M519 109q120 0 212 127v583q0 73 -20 101q-40 16 -154 26v23h344v-809q-1 -29 19 -41t29 -17l87 -39v-12l-291 -53h-14v207l-2 2q-140 -213 -328 -213q-256 0 -256 305v269q0 268 -2 283t-3 28.5t-7 25.5t-21.5 20.5t-34 12.5t-39 5t-38.5 3v23h317v-596
q0 -135 41 -199.5t161 -64.5zM604 1065l-20 -12l-281 313v10q12 16 30.5 32.5t63.5 16.5z" />
    <glyph glyph-name="uacute" unicode="&#xfa;" horiz-adv-x="1071" 
d="M519 109q120 0 212 127v583q0 73 -20 101q-40 16 -154 26v23h344v-809q1 -32 21 -43q20 -12 55 -27.5t59 -26.5v-12l-291 -53h-14v207l-2 2q-140 -213 -328 -213q-256 0 -256 305v269q0 268 -2 283t-3 28.5t-7 25.5t-21.5 20.5t-34 12.5t-39 5t-38.5 3v23h317v-596
q0 -135 41 -199.5t161 -64.5zM737 1366l-286 -313l-21 12l213 360q45 0 63.5 -16t30.5 -33v-10z" />
    <glyph glyph-name="ucircumflex" unicode="&#xfb;" horiz-adv-x="1071" 
d="M519 109q120 0 212 127v583q0 73 -20 101q-40 16 -154 26v23h344v-809q-1 -29 19 -41t29 -17l87 -39v-12l-291 -53h-14v207l-2 2q-140 -213 -328 -213q-256 0 -256 305v269q0 268 -2 283t-3 28.5t-7 25.5t-21.5 20.5t-34 12.5t-39 5t-38.5 3v23h317v-596
q0 -135 41 -199.5t161 -64.5zM733 1081l-24 -14l-187 227l-184 -227l-25 14l195 349h31z" />
    <glyph glyph-name="udieresis" unicode="&#xfc;" horiz-adv-x="1071" 
d="M519 109q120 0 212 127v583q0 73 -20 101q-40 16 -154 26v23h344v-809q-1 -29 19 -41t29 -17l87 -39v-12l-291 -53h-14v207l-2 2q-140 -213 -328 -213q-256 0 -256 305v269q0 268 -2 283t-3 28.5t-7 25.5t-21.5 20.5t-34 12.5t-39 5t-38.5 3v23h317v-596
q0 -135 41 -199.5t161 -64.5zM434 1229q0 -39 -27.5 -66.5t-66.5 -27.5t-66.5 27.5t-27.5 66.5t27.5 66.5t66.5 27.5t66.5 -27.5t27.5 -66.5zM776 1229q0 -39 -27.5 -66.5t-66.5 -27.5t-66.5 27.5t-27.5 66.5t27.5 66.5t66.5 27.5t66.5 -27.5t27.5 -66.5z" />
    <glyph glyph-name="yacute" unicode="&#xfd;" horiz-adv-x="851" 
d="M214 -492q-44 0 -79 26t-35 67t25 67.5t65.5 26.5t68.5 -24.5t56 -51.5h4q41 99 71 206t32 118q-7 15 -52.5 140.5t-129.5 349.5t-170 464q-18 20 -44 32.5t-96 16.5v23h447v-23q-43 -6 -75 -16t-32 -42t58.5 -195t98.5 -276t79 -212q6 16 22.5 69.5t97.5 314.5t81 289
t-10.5 39t-28 17t-38 8t-38.5 4v23h315v-23q-70 -6 -92 -14t-38.5 -25.5t-27 -50.5t-33 -104.5t-53 -169t-67.5 -214t-110 -352.5t-105 -337q-33 -101 -78 -136t-89 -35zM688 1366l-287 -313l-20 12l213 360q45 0 63.5 -16t30.5 -33v-10z" />
    <glyph glyph-name="thorn" unicode="&#xfe;" horiz-adv-x="1077" 
d="M545 47q120 0 213.5 124t93.5 298q0 175 -78.5 281t-228.5 106q-98 0 -148.5 -45t-65 -71.5t-14.5 -39.5v-393q12 -260 228 -260zM317 758q133 231 361 231q76 0 147.5 -40t141 -136t69.5 -272q0 -235 -155 -384t-418 -149q-70 0 -148 19l1 -81l3 -339q5 -38 74.5 -45.5
t93.5 -10.5v-22h-503v22q104 10 133.5 32t29.5 38v1661l-129 68v12l285 125h16l-6 -727z" />
    <glyph glyph-name="ydieresis" unicode="&#xff;" horiz-adv-x="851" 
d="M214 -492q-44 0 -79 26t-35 67t25 67.5t65.5 26.5t68.5 -24.5t56 -51.5h4q41 99 71 206t32 118q-7 15 -52.5 140.5t-129.5 349.5t-170 464q-18 20 -44 32.5t-96 16.5v23h447v-23q-43 -6 -75 -16t-32 -42t58.5 -195t98.5 -276t79 -212q6 16 22.5 69.5t97.5 314.5t81 289
t-10.5 39t-28 17t-38 8t-38.5 4v23h315v-23q-70 -6 -92 -14t-38.5 -25.5t-27 -50.5t-33 -104.5t-53 -169t-67.5 -214t-110 -352.5t-105 -337q-33 -101 -78 -136t-89 -35zM408 1229q0 -39 -28 -66.5t-67 -27.5t-66.5 27.5t-27.5 66.5t27.5 66.5t66.5 27.5t67 -27.5t28 -66.5z
M731 1229q0 -39 -27.5 -66.5t-66.5 -27.5t-66.5 27.5t-27.5 66.5t27.5 66.5t66.5 27.5t66.5 -27.5t27.5 -66.5z" />
    <glyph glyph-name="Amacron" unicode="&#x100;" horiz-adv-x="1441" 
d="M641 1241q-81 -181 -262 -633h510q-35 92 -71 184t-69 178l-62 155q-28 71 -46 116zM1507 0h-598v20q32 0 68 14q74 29 76 81q0 73 -148 450h-545q-32 -79 -60 -149t-64 -162t-35 -126q0 -36 24 -61t71 -34q48 -8 75 -13v-20h-437v23q54 7 92 29t48 33q45 50 106 184
q60 134 168 385t164 385q57 134 106 249l-20 45q110 48 180 170h17q108 -292 195 -524q87 -233 136 -365q155 -418 196 -480q70 -104 185 -109v-25zM1008 1606h-576v92h576v-92z" />
    <glyph glyph-name="amacron" unicode="&#x101;" horiz-adv-x="917" 
d="M571 242v315q-37 -27 -92 -57t-107 -64q-52 -35 -90 -77t-38 -95t37 -96t93 -43q114 0 173 59q24 23 24 58zM840 131q82 0 100 70h12q-4 -80 -60 -141q-56 -62 -134 -62t-132 41t-55 143l-4 2q-39 -66 -93 -108q-98 -76 -212 -76q-115 0 -163 102q-17 36 -17 92
q0 103 151 199q151 95 205 125q54 29 84 44t49 28v211q0 19 -24 43q-52 51 -127 51q-76 0 -129 -40q-53 -36 -53 -64v-93q0 -30 -30 -52t-64 -22t-58 24t-23 52q0 28 18 56q18 29 52 49q35 20 69 41t113 61q78 40 147 61q70 21 110 21q40 1 87 -27t68 -69q12 -21 12 -121
l-4 -489q0 -92 32 -122t73 -30zM795 1092h-576v92h576v-92z" />
    <glyph glyph-name="Abreve" unicode="&#x102;" horiz-adv-x="1441" 
d="M641 1241q-81 -181 -262 -633h510q-35 92 -71 184t-69 178l-62 155q-28 71 -46 116zM1507 0h-598v20q32 0 68 14q74 29 76 81q0 73 -148 450h-545q-32 -79 -60 -149t-64 -162t-35 -126q0 -36 24 -61t71 -34q48 -8 75 -13v-20h-437v23q54 7 92 29t48 33q45 50 106 184
q60 134 168 385t164 385q57 134 106 249l-20 45q110 48 180 170h17q108 -292 195 -524q87 -233 136 -365q155 -418 196 -480q70 -104 185 -109v-25zM946 1890q0 -139 -61 -212q-61 -74 -164 -73t-164 73t-61 212v23h26q6 -103 60 -153t140 -50q85 0 138 50t60 153h26v-23z
" />
    <glyph glyph-name="abreve" unicode="&#x103;" horiz-adv-x="917" 
d="M571 242v315q-37 -27 -92 -57t-107 -64q-52 -35 -90 -77t-38 -95t37 -96t93 -43q114 0 173 59q24 23 24 58zM840 131q82 0 100 70h12q-4 -80 -60 -141q-56 -62 -134 -62t-132 41t-55 143l-4 2q-39 -66 -93 -108q-98 -76 -212 -76q-115 0 -163 102q-17 36 -17 92
q0 103 151 199q151 95 205 125q54 29 84 44t49 28v211q0 19 -24 43q-52 51 -127 51q-76 0 -129 -40q-53 -36 -53 -64v-93q0 -30 -30 -52t-64 -22t-58 24t-23 52q0 28 18 56q18 29 52 49q35 20 69 41t113 61q78 40 147 61q70 21 110 21q40 1 87 -27t68 -69q12 -21 12 -121
l-4 -489q0 -92 32 -122t73 -30zM733 1376q0 -139 -61 -212q-61 -74 -164 -73t-164 73t-61 212v23h26q7 -103 61 -153t139 -50t138 50t60 153h26v-23z" />
    <glyph glyph-name="Aogonek" unicode="&#x104;" horiz-adv-x="1441" 
d="M641 1241q18 -45 46 -116t76 -189t126 -328h-510q130 320 166 406q37 86 60 143q24 57 36 84zM1053 115q0 -71 -144 -95v-20h484v-4q-44 -28 -90 -95t-47 -129q-2 -137 110 -137q53 1 78 21t47 55l16 -8q-62 -155 -214 -157q-56 0 -105 44q-49 46 -49 104q0 127 151 254
q39 32 72 52h145v25q-113 5 -178 98q-43 61 -98 209q-55 149 -105 281q-49 131 -101 273l-230 617h-17q-70 -122 -180 -170l20 -45q-49 -115 -104 -247q-56 -132 -112 -262t-109 -253t-113 -257t-110 -187q-6 -8 -44 -31t-92 -28v-23h437v20q-80 12 -109 24q-61 26 -61 73
t36 138l123 310h545q144 -371 148 -450z" />
    <glyph glyph-name="aogonek" unicode="&#x105;" horiz-adv-x="917" 
d="M571 242v315q-37 -27 -92 -57t-107 -64q-52 -35 -90 -77t-38 -95t37 -96t93 -43q114 0 173 59q24 23 24 58zM840 131q82 0 100 70h12q-4 -80 -60 -141q-56 -62 -134 -62t-132 41t-55 143l-4 2q-39 -66 -93 -108q-98 -76 -212 -76q-115 0 -163 102q-17 36 -17 92
q0 103 151 199q151 95 205 125q54 29 84 44t49 28v211q0 19 -24 43q-52 51 -127 51q-76 0 -129 -40q-53 -36 -53 -64v-93q0 -30 -30 -52t-64 -22t-58 24t-23 52q0 28 18 56q18 29 52 49q35 20 69 41t113 61q78 40 147 61q70 21 110 21q40 1 87 -27t68 -69q12 -21 12 -121
l-4 -489q0 -92 32 -122t73 -30zM584 -308q0 127 151 254q39 32 72 52h31v-4q-44 -28 -90 -95t-47 -129q-2 -137 110 -137q53 1 78 21t47 55l16 -8q-62 -155 -214 -157q-56 0 -105 44q-49 46 -49 104z" />
    <glyph glyph-name="Cacute" unicode="&#x106;" horiz-adv-x="1589" 
d="M847 -8q-152 0 -306 54q-153 54 -261 154q-220 204 -223 541q0 212 121 414q148 241 451 322q109 29 237 29q206 -1 375 -72q61 -27 94 -50t42 -22t43 40t46 58h23v-459l-25 -2q-56 205 -212 339q-155 134 -351 132q-141 0 -252 -63q-215 -122 -300 -405
q-40 -132 -40 -275q0 -298 165 -500t431 -202q205 0 362 137t195 321h25l-6 -450h-25q-66 92 -88 92q-4 0 -37 -22q-166 -111 -484 -111zM926 1921l-287 -313l-21 12l213 360q45 0 63 -16t32 -33v-10z" />
    <glyph glyph-name="cacute" unicode="&#x107;" horiz-adv-x="884" 
d="M504 989q146 0 256 -67t108 -177q0 -43 -32 -75t-70 -31q-39 0 -67 20t-35 52q10 29 10 87t-40 108t-114 50t-128 -32q-109 -66 -154 -217q-23 -74 -23 -162q0 -181 94 -296q95 -114 238 -114t217 42t123 124l16 -8q-37 -127 -147 -214t-262 -85q-201 0 -327 146
t-126 350t132 351q133 148 331 148zM625 1405l-287 -313l-21 12l213 360q46 0 64 -16t31 -33v-10z" />
    <glyph glyph-name="Ccircumflex" unicode="&#x108;" horiz-adv-x="1589" 
d="M847 -8q-152 0 -306 54q-153 54 -261 154q-220 204 -223 541q0 212 121 414q148 241 451 322q109 29 237 29q206 -1 375 -72q61 -27 94 -50t42 -22t43 40t46 58h23v-459l-25 -2q-56 205 -212 339q-155 134 -351 132q-141 0 -252 -63q-215 -122 -300 -405
q-40 -132 -40 -275q0 -298 165 -500t431 -202q205 0 362 137t195 321h25l-6 -450h-25q-66 92 -88 92q-4 0 -37 -22q-166 -111 -484 -111zM981 1622l-25 -14l-186 227l-184 -227l-25 14l195 348h30z" />
    <glyph glyph-name="ccircumflex" unicode="&#x109;" horiz-adv-x="884" 
d="M504 989q146 0 256 -67t108 -177q0 -43 -32 -75t-70 -31q-39 0 -67 20t-35 52q10 29 10 87t-40 108t-114 50t-128 -32q-109 -66 -154 -217q-23 -74 -23 -162q0 -181 94 -296q95 -114 238 -114t217 42t123 124l16 -8q-37 -127 -147 -214t-262 -85q-201 0 -327 146
t-126 350t132 351q133 148 331 148zM680 1106l-25 -14l-186 227l-184 -227l-25 14l195 348h30z" />
    <glyph glyph-name="Cdotaccent" unicode="&#x10a;" horiz-adv-x="1589" 
d="M847 -8q-152 0 -306 54q-153 54 -261 154q-220 204 -223 541q0 212 121 414q148 241 451 322q109 29 237 29q206 -1 375 -72q61 -27 94 -50t42 -22t43 40t46 58h23v-459l-25 -2q-56 205 -212 339q-155 134 -351 132q-141 0 -252 -63q-215 -122 -300 -405
q-40 -132 -40 -275q0 -298 165 -500t431 -202q205 0 362 137t195 321h25l-6 -450h-25q-66 92 -88 92q-4 0 -37 -22q-166 -111 -484 -111zM877 1712q0 -43 -31 -74q-31 -30 -73 -30t-74 32q-31 32 -31 73q0 42 30 72q31 30 74 30t74 -30t31 -73z" />
    <glyph glyph-name="cdotaccent" unicode="&#x10b;" horiz-adv-x="884" 
d="M504 989q146 0 256 -67t108 -177q0 -43 -32 -75t-70 -31q-39 0 -67 20t-35 52q10 29 10 87t-40 108t-114 50t-128 -32q-109 -66 -154 -217q-23 -74 -23 -162q0 -181 94 -296q95 -114 238 -114t217 42t123 124l16 -8q-37 -127 -147 -214t-262 -85q-201 0 -327 146
t-126 350t132 351q133 148 331 148zM575 1196q-1 -43 -31 -74q-30 -30 -72 -30t-74 32t-32 73q0 42 31 72q31 29 74 29t74 -29q30 -30 30 -73z" />
    <glyph glyph-name="Ccaron" unicode="&#x10c;" horiz-adv-x="1589" 
d="M847 -8q-152 0 -306 54q-153 54 -261 154q-220 204 -223 541q0 212 121 414q148 241 451 322q109 29 237 29q206 -1 375 -72q61 -27 94 -50t42 -22t43 40t46 58h23v-459l-25 -2q-56 205 -212 339q-155 134 -351 132q-141 0 -252 -63q-215 -122 -300 -405
q-40 -132 -40 -275q0 -298 165 -500t431 -202q205 0 362 137t195 321h25l-6 -450h-25q-66 92 -88 92q-4 0 -37 -22q-166 -111 -484 -111zM981 1956l-195 -348h-30l-195 348l25 14l184 -227l186 227z" />
    <glyph glyph-name="ccaron" unicode="&#x10d;" horiz-adv-x="884" 
d="M504 989q146 0 256 -67t108 -177q0 -43 -32 -75t-70 -31q-39 0 -67 20t-35 52q10 29 10 87t-40 108t-114 50t-128 -32q-109 -66 -154 -217q-23 -74 -23 -162q0 -181 94 -296q95 -114 238 -114t217 42t123 124l16 -8q-37 -127 -147 -214t-262 -85q-201 0 -327 146
t-126 350t132 351q133 148 331 148zM680 1440l-195 -348h-30l-195 348l25 14l184 -227l186 227z" />
    <glyph glyph-name="Dcaron" unicode="&#x10e;" horiz-adv-x="1744" 
d="M940 1425q-97 19 -186 19t-125 -4q-37 -4 -61 -6t-38 -7q-14 -139 -14 -483v-452q0 -295 26 -360q35 -101 242 -101q376 0 538 271q110 184 110 439t-142 451t-350 233zM862 1477q247 0 404 -70q290 -125 384 -413q33 -102 33 -246q0 -283 -137 -461q-116 -155 -305 -221
t-410 -66h-747v20q119 14 172 76q12 12 22 79t11 144l4 306v592q0 132 -31 167q-50 57 -170 70v21l639 2h131zM1092 1927l-195 -348h-31l-194 348l24 15l185 -228l186 228z" />
    <glyph glyph-name="dcaron" unicode="&#x10f;" horiz-adv-x="1376" 
d="M520 950q-137 0 -219 -135q-70 -115 -71 -301t86 -313t237 -127q85 0 145 57t76 145v488q-45 84 -115 135q-69 51 -139 51zM774 199q-116 -201 -320 -201q-186 0 -300 129q-115 129 -115 350q0 220 144 366q146 146 378 146q110 0 215 -35q-4 62 -4 155v212l-168 63v13
l326 90h16v-1329q2 -1 146 -64v-14l-304 -86h-12v205h-2zM1222 1290q-44 0 -66 28t-22 68t38 68q38 27 96 27t103 -49q44 -48 44 -108q0 -106 -76 -169t-180 -63v20q72 14 112 46t40 97q0 31 -13 60q-32 -25 -76 -25z" />
    <glyph glyph-name="Dcroat" unicode="&#x110;" horiz-adv-x="1744" 
d="M940 1425q-97 19 -186 19t-125 -4q-37 -4 -61 -6t-38 -7q-14 -137 -14 -651l367 2v-55l-367 2v-236q0 -292 26 -357q35 -101 242 -101q376 0 538 271q110 184 110 439t-142 451t-350 233zM808 1477q122 0 236 -11t211 -53q428 -187 428 -665q0 -283 -137 -461
q-116 -155 -305 -221t-410 -66h-747v20q119 14 172 76q12 12 22 79t11 144l4 289v117l-234 -2v55l234 -2v441q0 132 -31 167q-50 57 -170 70v21h82l336 2h298z" />
    <glyph glyph-name="dcroat" unicode="&#x111;" horiz-adv-x="1118" 
d="M520 950q-137 0 -219 -135q-70 -115 -71 -301t86 -313t237 -127q84 0 144 57t77 145v488q-45 84 -115 135q-69 51 -139 51zM774 199q-116 -201 -320 -201q-186 0 -300 129q-115 129 -115 350q0 220 144 366q146 146 378 146q110 0 215 -35q-4 62 -4 193v33h-256v92h256
v49l-168 63v13l326 90h16v-215h146v-92h-146v-1022q2 -1 146 -64v-14l-304 -86h-12v205h-2z" />
    <glyph glyph-name="Emacron" unicode="&#x112;" horiz-adv-x="1456" 
d="M84 0v20q115 18 168 78q13 16 25 79t12 142l4 306v518q0 220 -35 252q-32 33 -66 42t-90 17v21h1131l139 -338l-20 -11q-166 207 -312 279q-90 41 -358 41q-104 0 -156 -10q-10 -82 -10 -267v-237l2 -139v-23h41q148 0 213 15q122 28 173 100q39 53 69 184h24v-645h-24
q-16 66 -50 136t-69 101q-70 64 -188 72q-62 4 -99 4h-88q-4 -29 -4 -84v-245l2 -113q5 -172 27 -206q37 -58 252 -58q214 0 321 46q153 67 299 320l23 -6l-103 -391h-1253zM1049 1577h-576v92h576v-92z" />
    <glyph glyph-name="emacron" unicode="&#x113;" horiz-adv-x="890" 
d="M668 770q0 76 -52 130t-126 54q-72 0 -118 -34t-92 -94q-46 -61 -63 -146h84l234 4q74 0 104 12q29 33 29 74zM590 135q102 0 179 52t101 128l17 -4q-20 -112 -124 -212q-104 -101 -261 -101q-210 0 -337 148q-126 149 -126 349t121 347t304 147t282 -83
q113 -91 124 -255h-657l-4 -82q0 -181 99 -308q99 -126 282 -126zM750 1092h-576v92h576v-92z" />
    <glyph glyph-name="Ebreve" unicode="&#x114;" horiz-adv-x="1456" 
d="M84 0v20q115 18 168 78q13 16 25 79t12 142l4 306v518q0 220 -35 252q-32 33 -66 42t-90 17v21h1131l139 -338l-20 -11q-166 207 -312 279q-90 41 -358 41q-104 0 -156 -10q-10 -82 -10 -267v-237l2 -139v-23h41q148 0 213 15q122 28 173 100q39 53 69 184h24v-645h-24
q-16 66 -50 136t-69 101q-70 64 -188 72q-62 4 -99 4h-88q-4 -29 -4 -84v-245l2 -113q5 -172 27 -206q37 -58 252 -58q214 0 321 46q153 67 299 320l23 -6l-103 -391h-1253zM987 1862q0 -140 -61 -214q-61 -73 -165 -72q-103 1 -164 73q-60 72 -60 213v22h26q7 -102 61 -152
t139 -50t138 50t60 152h26v-22z" />
    <glyph glyph-name="ebreve" unicode="&#x115;" horiz-adv-x="890" 
d="M668 770q0 76 -52 130t-126 54q-72 0 -118 -34t-92 -94q-46 -61 -63 -146h84l234 4q74 0 104 12q29 33 29 74zM590 135q102 0 179 52t101 128l17 -4q-20 -112 -124 -212q-104 -101 -261 -101q-210 0 -337 148q-126 149 -126 349t121 347t304 147t282 -83
q113 -91 124 -255h-657l-4 -82q0 -181 99 -308q99 -126 282 -126zM688 1376q0 -139 -61 -212q-61 -74 -164 -73t-164 73t-61 212v23h26q6 -103 60 -153t140 -50q85 0 138 50t60 153h26v-23z" />
    <glyph glyph-name="Edotaccent" unicode="&#x116;" horiz-adv-x="1456" 
d="M84 0v20q115 18 168 78q13 16 25 79t12 142l4 306v518q0 220 -35 252q-32 33 -66 42t-90 17v21h1131l139 -338l-20 -11q-166 207 -312 279q-90 41 -358 41q-104 0 -156 -10q-10 -82 -10 -267v-237l2 -139v-23h41q148 0 213 15q122 28 173 100q39 53 69 184h24v-645h-24
q-16 66 -50 136t-69 101q-70 64 -188 72q-62 4 -99 4h-88q-4 -29 -4 -84v-245l2 -113q5 -172 27 -206q37 -58 252 -58q214 0 321 46q153 67 299 320l23 -6l-103 -391h-1253zM866 1681q0 -43 -30 -73t-73 -31q-42 0 -74 32q-32 31 -32 73t31 72t74 30q44 0 74 -30t30 -73z
" />
    <glyph glyph-name="edotaccent" unicode="&#x117;" horiz-adv-x="890" 
d="M668 770q0 76 -52 130t-126 54q-72 0 -118 -34t-92 -94q-46 -61 -63 -146h84l234 4q74 0 104 12q29 33 29 74zM590 135q102 0 179 52t101 128l17 -4q-20 -112 -124 -212q-104 -101 -261 -101q-210 0 -337 148q-126 149 -126 349t121 347t304 147t282 -83
q113 -91 124 -255h-657l-4 -82q0 -181 99 -308q99 -126 282 -126zM567 1196q-1 -43 -31 -74q-30 -30 -72 -30t-74 32t-32 73q0 42 31 72q31 29 74 29t74 -29q30 -30 30 -73z" />
    <glyph glyph-name="Eogonek" unicode="&#x118;" horiz-adv-x="1456" 
d="M831 0v-4q-47 -30 -91 -97t-45 -127q-2 -137 110 -137q53 1 78 21t47 55l16 -8q-62 -155 -214 -157q-56 0 -105 44q-49 46 -49 104q0 131 151 254q39 32 72 52h-717v20q115 18 168 78q13 16 25 79t12 142l4 306v518q0 220 -35 252q-32 33 -66 42t-90 17v21h1131l139 -338
l-20 -11q-166 207 -312 279q-90 41 -358 41q-104 0 -156 -10q-10 -82 -10 -267v-237l2 -139v-23h41q148 0 213 15q122 28 173 100q39 53 69 184h24v-645h-24q-16 66 -50 136t-69 101q-70 64 -188 72q-62 4 -99 4h-88q-4 -29 -4 -84v-245l2 -113q5 -172 27 -206
q37 -58 252 -58q214 0 321 46q153 67 299 320l23 -6l-103 -391h-506z" />
    <glyph glyph-name="eogonek" unicode="&#x119;" horiz-adv-x="890" 
d="M668 770q0 76 -52 130t-126 54q-72 0 -118 -34t-92 -94q-46 -61 -63 -146h84l234 4q74 0 104 12q29 33 29 74zM590 135q102 0 179 52t101 128l17 -4q-20 -112 -124 -212q-104 -101 -261 -101h30v-4q-47 -30 -91 -97t-45 -127q-2 -137 110 -137q53 1 78 21t47 55l16 -8
q-62 -155 -214 -157q-56 0 -105 44q-49 46 -49 104q0 131 151 254q39 32 72 52q-210 0 -337 148q-126 149 -126 349t121 347t304 147t282 -83q113 -91 124 -255h-657l-4 -82q0 -181 99 -308q99 -126 282 -126z" />
    <glyph glyph-name="Ecaron" unicode="&#x11a;" horiz-adv-x="1456" 
d="M84 0v20q115 18 168 78q13 16 25 79t12 142l4 306v518q0 220 -35 252q-32 33 -66 42t-90 17v21h1131l139 -338l-20 -11q-166 207 -312 279q-90 41 -358 41q-104 0 -156 -10q-10 -82 -10 -267v-237l2 -139v-23h41q148 0 213 15q122 28 173 100q39 53 69 184h24v-645h-24
q-16 66 -50 136t-69 101q-70 64 -188 72q-62 4 -99 4h-88q-4 -29 -4 -84v-245l2 -113q5 -172 27 -206q37 -58 252 -58q214 0 321 46q153 67 299 320l23 -6l-103 -391h-1253zM971 1925l-195 -348h-31l-194 348l24 14l185 -227l186 227z" />
    <glyph glyph-name="ecaron" unicode="&#x11b;" horiz-adv-x="890" 
d="M668 770q0 76 -52 130t-126 54q-72 0 -118 -34t-92 -94q-46 -61 -63 -146h84l234 4q74 0 104 12q29 33 29 74zM590 135q102 0 179 52t101 128l17 -4q-20 -112 -124 -212q-104 -101 -261 -101q-210 0 -337 148q-126 149 -126 349t121 347t304 147t282 -83
q113 -91 124 -255h-657l-4 -82q0 -181 99 -308q99 -126 282 -126zM672 1440l-195 -348h-31l-194 348l24 14l185 -227l186 227z" />
    <glyph glyph-name="Gcircumflex" unicode="&#x11c;" horiz-adv-x="1689" 
d="M1466 459v-299q-49 -42 -169 -86q-408 -150 -762 -34q-308 100 -421 385q-56 140 -56 334t119 391q120 198 355 295q143 58 346 58t378 -68q65 -25 100 -47t39 -22t22 25t45 59h19v-446h-25q-48 190 -164 309q-146 155 -401 155q-131 0 -240 -60t-185 -162
q-158 -212 -157 -524q0 -312 154 -507t422 -197q224 0 317 144q33 56 33 233q0 72 -7 129q-17 140 -208 158v20h600v-20q-106 -12 -135 -59q-19 -31 -19 -164zM1047 1620l-25 -14l-186 227l-185 -227l-24 14l194 348h31z" />
    <glyph glyph-name="gcircumflex" unicode="&#x11d;" horiz-adv-x="1075" 
d="M897 -212q0 136 -83 177t-300 41q-75 0 -162 -12q-170 -44 -170 -195q0 -117 115 -190q115 -74 234 -74t188 27q70 27 124 90q54 62 54 136zM338 476q62 -75 161 -75q98 1 158 87t60 201t-60 192t-162 76q-103 -1 -160 -84t-58 -202q-1 -120 61 -195zM113 676
q0 133 115 224t271 90t275 -64q41 -13 80 -13t82 23t79 24q37 0 59 -24t22 -57t-22 -57t-49 -23t-95 34q-68 34 -115 64l-8 -8q31 -47 53 -88t21 -107q0 -162 -113 -242t-311 -81l-129 8q-66 -4 -105 -31q-39 -28 -39 -64q0 -112 211 -112h328q139 0 226 -83t85 -202
q0 -163 -153 -281t-379 -118q-225 0 -349 67t-124 174t162 213q44 28 88 54v4q-216 25 -218 184q0 76 70 138q70 61 172 73v6q-190 74 -190 275zM770 1106l-25 -14l-186 227l-184 -227l-25 14l195 348h30z" />
    <glyph glyph-name="Gbreve" unicode="&#x11e;" horiz-adv-x="1689" 
d="M1466 459v-299q-49 -42 -169 -86q-408 -150 -762 -34q-308 100 -421 385q-56 140 -56 334t119 391q120 198 355 295q143 58 346 58t378 -68q65 -25 100 -47t39 -22t22 25t45 59h19v-446h-25q-48 190 -164 309q-146 155 -401 155q-131 0 -240 -60t-185 -162
q-158 -212 -157 -524q0 -312 154 -507t422 -197q224 0 317 144q33 56 33 233q0 72 -7 129q-17 140 -208 158v20h600v-20q-106 -12 -135 -59q-19 -31 -19 -164zM1063 1890q0 -139 -61 -212q-61 -74 -164 -72q-54 0 -98 22q-96 49 -116 153q-11 56 -12 109v23h27
q6 -103 60 -153q53 -50 139 -50t139 50t59 153h27v-23z" />
    <glyph glyph-name="gbreve" unicode="&#x11f;" horiz-adv-x="1075" 
d="M897 -212q0 136 -83 177t-300 41q-75 0 -162 -12q-170 -44 -170 -195q0 -117 115 -190q115 -74 234 -74t188 27q70 27 124 90q54 62 54 136zM338 476q62 -75 161 -75q98 1 158 87t60 201t-60 192t-162 76q-103 -1 -160 -84t-58 -202q-1 -120 61 -195zM113 676
q0 133 115 224t271 90t275 -64q41 -13 80 -13t82 23t79 24q37 0 59 -24t22 -57t-22 -57t-49 -23t-95 34q-68 34 -115 64l-8 -8q31 -47 53 -88t21 -107q0 -162 -113 -242t-311 -81l-129 8q-66 -4 -105 -31q-39 -28 -39 -64q0 -112 211 -112h328q139 0 226 -83t85 -202
q0 -163 -153 -281t-379 -118q-225 0 -349 67t-124 174t162 213q44 28 88 54v4q-216 25 -218 184q0 76 70 138q70 61 172 73v6q-190 74 -190 275zM786 1376q0 -139 -61 -212q-61 -74 -164 -73t-164 73t-61 212v23h26q6 -103 60 -153t140 -50q85 0 138 50t60 153h26v-23z" />
    <glyph glyph-name="Gdotaccent" unicode="&#x120;" horiz-adv-x="1689" 
d="M1466 459v-299q-49 -42 -169 -86q-408 -150 -762 -34q-308 100 -421 385q-56 140 -56 334t119 391q120 198 355 295q143 58 346 58t378 -68q65 -25 100 -47t39 -22t22 25t45 59h19v-446h-25q-48 190 -164 309q-146 155 -401 155q-131 0 -240 -60t-185 -162
q-158 -212 -157 -524q0 -312 154 -507t422 -197q224 0 317 144q33 56 33 233q0 72 -7 129q-17 140 -208 158v20h600v-20q-106 -12 -135 -59q-19 -31 -19 -164zM942 1710q0 -43 -31 -74q-31 -30 -73 -30t-73 32q-32 32 -32 73q0 42 31 72q31 29 74 29q44 0 74 -30t30 -72z
" />
    <glyph glyph-name="gdotaccent" unicode="&#x121;" horiz-adv-x="1075" 
d="M897 -212q0 136 -83 177t-300 41q-75 0 -162 -12q-170 -44 -170 -195q0 -117 115 -190q115 -74 234 -74t188 27q70 27 124 90q54 62 54 136zM338 476q62 -75 161 -75q98 1 158 87t60 201t-60 192t-162 76q-103 -1 -160 -84t-58 -202q-1 -120 61 -195zM113 676
q0 133 115 224t271 90t275 -64q41 -13 80 -13t82 23t79 24q37 0 59 -24t22 -57t-22 -57t-49 -23t-95 34q-68 34 -115 64l-8 -8q31 -47 53 -88t21 -107q0 -162 -113 -242t-311 -81l-129 8q-66 -4 -105 -31q-39 -28 -39 -64q0 -112 211 -112h328q139 0 226 -83t85 -202
q0 -163 -153 -281t-379 -118q-225 0 -349 67t-124 174t162 213q44 28 88 54v4q-216 25 -218 184q0 76 70 138q70 61 172 73v6q-190 74 -190 275zM666 1196q0 -43 -31 -74q-31 -30 -73 -30t-74 32t-32 73q0 42 31 72q31 29 74 29t74 -30t31 -72z" />
    <glyph glyph-name="uni0122" unicode="&#x122;" horiz-adv-x="1689" 
d="M1466 459v-299q-49 -42 -169 -86q-408 -150 -762 -34q-308 100 -421 385q-56 140 -56 334t119 391q120 198 355 295q143 58 346 58t378 -68q65 -25 100 -47t39 -22t22 25t45 59h19v-446h-25q-48 190 -164 309q-146 155 -401 155q-131 0 -240 -60t-185 -162
q-158 -212 -157 -524q0 -312 154 -507t422 -197q224 0 317 144q33 56 33 233q0 72 -7 129q-17 140 -208 158v20h600v-20q-106 -12 -135 -59q-19 -31 -19 -164zM900 -135q58 0 103 -49q44 -48 44 -108q0 -104 -76 -168t-180 -64v20q71 14 111 46t40 98q0 26 -12 59
q-32 -25 -77 -25q-44 0 -66 28q-21 28 -21 68t38 68q38 27 96 27z" />
    <glyph glyph-name="uni0123" unicode="&#x123;" horiz-adv-x="1075" 
d="M897 -212q0 136 -83 177t-300 41q-75 0 -162 -12q-170 -44 -170 -195q0 -117 115 -190q115 -74 234 -74t188 27q70 27 124 90q54 62 54 136zM338 476q62 -75 161 -75q98 1 158 87t60 201t-60 192t-162 76q-103 -1 -160 -84t-58 -202q-1 -120 61 -195zM113 676
q0 133 115 224t271 90t275 -64q41 -13 80 -13t82 23t79 24q37 0 59 -24t22 -57t-22 -57t-49 -23t-95 34q-68 34 -115 64l-8 -8q31 -47 53 -88t21 -107q0 -162 -113 -242t-311 -81l-129 8q-66 -4 -105 -31q-39 -28 -39 -64q0 -112 211 -112h328q139 0 226 -83t85 -202
q0 -163 -153 -281t-379 -118q-225 0 -349 67t-124 174t162 213q44 28 88 54v4q-216 25 -218 184q0 76 70 138q70 61 172 73v6q-190 74 -190 275zM472 1290q-44 0 -66 28t-21 68q0 40 38 68q39 27 97 27t102 -49q44 -48 44 -108q0 -104 -76 -168t-180 -64v20q72 14 112 46
t39 97q0 27 -12 60q-33 -25 -77 -25z" />
    <glyph glyph-name="Hcircumflex" unicode="&#x124;" horiz-adv-x="1843" 
d="M1741 0h-629v20q76 6 127 28t67 47t18 132q1 107 1 180v322h-809v-440q0 -59 2 -115t23 -84q41 -57 153 -70v-20h-604v20q121 19 170 76q12 15 21 84q8 68 8 139l4 306v592q0 132 -30 166q-51 58 -167 71v21h611v-21q-83 -11 -115 -33q-66 -44 -70 -124q-6 -121 -6 -258
v-269h809v330q0 229 -32 277q-32 47 -79 61t-94 16v21h617v-21q-161 -20 -178 -130q-9 -58 -9 -107v-685l2 -253q0 -151 23 -186q38 -57 166 -73v-20zM1124 1591l-24 -14l-187 227l-184 -227l-24 14l194 348h31z" />
    <glyph glyph-name="hcircumflex" unicode="&#x125;" horiz-adv-x="1073" 
d="M1053 0h-422v23q55 4 92 13t37 42v512q0 134 -30 185q-30 50 -66 71q-37 20 -103 20q-131 0 -199 -98q-18 -27 -18 -61v-629q0 -44 74 -51q20 -2 41 -7v-20h-408v20q47 4 85 16t38 50v1163q0 29 -18 43t-46 28t-55 30v12l275 125h16l-6 -711l4 -2q60 125 222 192
q58 24 127 24q130 -1 184 -83q55 -82 55 -231v-604q0 -36 82 -48q20 -3 39 -6v-18zM760 1604l-25 -15l-186 228l-184 -228l-25 15l195 348h30z" />
    <glyph glyph-name="Hbar" unicode="&#x126;" horiz-adv-x="1843" 
d="M1325 1098h-809v-328h809v328zM293 1098h-197v92h197v27q0 132 -30 166q-51 58 -167 71v21h611v-21q-83 -11 -115 -33q-66 -44 -72 -131q-2 -47 -4 -100h807v31q-2 39 -5 81t-30 82q-43 64 -168 70v21h617v-21q-161 -20 -178 -130q-9 -58 -9 -122v-12h191v-92h-191v-566
l2 -253q0 -151 23 -186q38 -57 166 -73v-20h-629v20q76 6 127 28t67 47t18 132q1 107 1 179v323h-809v-440q0 -59 2 -115t23 -84q41 -57 153 -70v-20h-604v20q121 19 170 76q12 15 21 84q8 68 8 139l4 306v473z" />
    <glyph glyph-name="hbar" unicode="&#x127;" horiz-adv-x="1073" 
d="M932 676v-604q0 -36 82 -48q20 -3 39 -6v-18h-422v23q55 4 92 13t37 42v512q0 134 -30 185q-30 50 -66 71q-37 20 -103 20q-131 0 -199 -98q-18 -27 -18 -61v-629q0 -44 74 -51q20 -2 41 -7v-20h-408v20q47 4 85 16t38 50v1012h-119v92h119v59q0 29 -18 43t-46 28t-55 30
v12l275 125h16l-2 -297h287v-92h-289l-2 -322l4 -2q60 125 222 192q58 24 127 24q130 -1 184 -83q55 -82 55 -231z" />
    <glyph glyph-name="Itilde" unicode="&#x128;" horiz-adv-x="817" 
d="M520 289q0 -59 2 -115t23 -84q21 -29 73 -47t97 -23v-20h-621v20q115 18 170 80q29 35 29 219l4 306v592q0 132 -30 166q-51 58 -167 71v21h613v-21q-43 -6 -92 -22q-91 -30 -96 -154q-1 -53 -3 -100l-2 -203v-686zM96 1577q52 199 226 201l182 -39q76 0 118 17t58 87h29
q-23 -96 -60 -136q-67 -73 -172 -75l-186 39q-89 0 -115 -13t-53 -81h-27z" />
    <glyph glyph-name="itilde" unicode="&#x129;" horiz-adv-x="520" 
d="M176 86v711q0 16 -2 24q-5 18 -117 64v14l277 90h12v-915q9 -44 89 -48q22 -1 42 -6v-20h-440v20q139 11 139 66zM-51 1092q52 200 225 200l182 -39q76 -1 118 17t58 88h29q-24 -96 -60 -137q-67 -74 -171 -74l-187 39q-88 0 -114 -13t-54 -81h-26z" />
    <glyph glyph-name="Imacron" unicode="&#x12a;" horiz-adv-x="817" 
d="M520 289q0 -59 2 -115t23 -84q21 -29 73 -47t97 -23v-20h-621v20q115 18 170 80q29 35 29 219l4 306v592q0 132 -30 166q-51 58 -167 71v21h613v-21q-43 -6 -92 -22q-91 -30 -96 -154q-1 -53 -3 -100l-2 -203v-686zM690 1577h-575v92h575v-92z" />
    <glyph glyph-name="imacron" unicode="&#x12b;" horiz-adv-x="520" 
d="M176 86v711q0 16 -2 24q-5 18 -117 64v14l277 90h12v-915q9 -44 89 -48q22 -1 42 -6v-20h-440v20q139 11 139 66zM543 1092h-576v92h576v-92z" />
    <glyph glyph-name="Ibreve" unicode="&#x12c;" horiz-adv-x="817" 
d="M520 289q0 -59 2 -115t23 -84q21 -29 73 -47t97 -23v-20h-621v20q115 18 170 80q29 35 29 219l4 306v592q0 132 -30 166q-51 58 -167 71v21h613v-21q-43 -6 -92 -22q-91 -30 -96 -154q-1 -53 -3 -100l-2 -203v-686zM629 1862q0 -139 -62 -213t-165 -73q-104 1 -166 79
q-58 68 -58 207v22h27q6 -102 60 -152t139 -50q84 0 138 50t60 152h27v-22z" />
    <glyph glyph-name="ibreve" unicode="&#x12d;" horiz-adv-x="520" 
d="M176 86v711q0 16 -2 24q-5 18 -117 64v14l277 90h12v-915q9 -44 89 -48q22 -1 42 -6v-20h-440v20q139 11 139 66zM481 1376q0 -139 -61 -212q-61 -74 -164 -73t-164 73t-61 212v23h26q7 -103 61 -153t139 -50t138 50t60 153h26v-23z" />
    <glyph glyph-name="Iogonek" unicode="&#x12e;" horiz-adv-x="817" 
d="M520 289q0 -59 2 -115t23 -84q21 -29 73 -47t97 -23v-20h-242v-4q-47 -30 -92 -98q-45 -69 -45 -128q0 -135 110 -135q53 1 78 21t47 55l17 -8q-62 -155 -214 -157q-56 0 -106 44q-49 46 -49 104q0 130 152 254q39 32 71 52h-348v20q115 18 170 80q29 35 29 219l4 306
v592q0 132 -30 166q-51 58 -167 71v21h613v-21q-43 -6 -92 -22q-91 -30 -96 -154q-1 -53 -3 -100l-2 -203v-686z" />
    <glyph glyph-name="iogonek" unicode="&#x12f;" horiz-adv-x="520" 
d="M176 86v702q0 36 -25 55q-25 18 -94 44v12l277 90h12v-915q9 -44 89 -48q22 -1 42 -6v-20h-151v-4q-44 -28 -90 -95t-47 -129q-2 -137 110 -137q53 1 78 21t47 55l16 -8q-62 -155 -214 -157q-56 0 -105 44q-49 46 -49 104q0 127 151 254q39 32 72 52h-258v20
q139 11 139 66zM362 1313q0 -47 -32 -79t-77 -32q-46 0 -79 33t-33 79t32 77t79 31t79 -31q31 -31 31 -78z" />
    <glyph glyph-name="Idotaccent" unicode="&#x130;" horiz-adv-x="817" 
d="M520 289q0 -59 2 -115t23 -84q21 -29 73 -47t97 -23v-20h-621v20q115 18 170 80q29 35 29 219l4 306v592q0 132 -30 166q-51 58 -167 71v21h613v-21q-43 -6 -92 -22q-91 -30 -96 -154q-1 -53 -3 -100l-2 -203v-686zM508 1681q0 -43 -31 -73t-73 -31q-42 0 -74 32
q-32 31 -31 73q0 42 31 72q32 30 74 30t73 -30t31 -73z" />
    <glyph glyph-name="dotlessi" unicode="&#x131;" horiz-adv-x="520" 
d="M176 86v711q0 16 -3.5 29t-115.5 59v14l277 90h12v-915q9 -44 60 -46.5t71 -7.5v-20h-440v20q139 11 139 66z" />
    <glyph glyph-name="IJ" unicode="&#x132;" horiz-adv-x="1634" 
d="M520 289q0 -59 2 -115t23 -84q21 -29 73 -47t97 -23v-20h-621v20q115 18 170 80q29 35 29 219l4 306v592q0 132 -30 166q-51 58 -167 71v21h613v-21q-43 -6 -92 -22q-91 -30 -96 -154q-1 -53 -3 -100l-2 -203v-686zM1399 270q0 -68 -33 -116q-32 -48 -92 -93
q-119 -92 -260 -92q-72 -1 -110 23q-68 42 -68 119q0 49 36 79t81 31q44 0 74 -30t30 -70q0 -84 -101 -96v-7q20 -28 68 -28q124 0 142 215q5 57 8 114l2 185v713q0 138 -29 173q-29 34 -79 46t-103 18v21h630v-21q-43 -6 -94 -22t-73 -58t-23 -95q-2 -54 -4 -101l-2 -203
v-705z" />
    <glyph glyph-name="ij" unicode="&#x133;" horiz-adv-x="1024" 
d="M176 86v702q0 36 -25 55q-25 18 -94 44v12l277 90h12v-915q9 -44 89 -48q22 -1 42 -6v-20h-440v20q139 11 139 66zM362 1313q0 -47 -32 -79t-77 -32q-46 0 -79 33t-33 79t32 77t79 31t79 -31q31 -31 31 -78zM872 -125q0 -53 -34 -118q-71 -134 -216 -213
q-70 -38 -120 -38q-129 0 -175 73q-15 23 -15 61t25 65q26 27 73 27t67 -26q19 -26 31 -58t26 -58q14 -27 50 -28q99 20 106 177q2 42 6 121t4 230v666q0 24 -18 41q-18 16 -52 34t-59 33v15l287 110h12v-305l2 -477v-332zM887 1309q0 -47 -32 -79t-78 -32t-79 33
q-32 33 -32 79t32 76t78 31q47 -1 79 -31t32 -77z" />
    <glyph glyph-name="Jcircumflex" unicode="&#x134;" horiz-adv-x="817" 
d="M582 270q0 -68 -33 -116t-93 -93q-119 -92 -259 -92q-72 -1 -110 23q-67 41 -68 105q-1 63 36 93t81 31q44 0 74 -30t30 -70q0 -84 -101 -96v-7q19 -28 67 -28q124 0 143 215q5 57 7 114l2 185v713q0 139 -28 173t-79 46q-50 12 -104 18v21h631v-21q-43 -6 -94 -22
q-50 -16 -72 -58t-24 -95q-2 -54 -4 -101l-2 -203v-705zM608 1591l-24 -14l-187 227l-184 -227l-25 14l195 348h31z" />
    <glyph glyph-name="j_circumflex" unicode="&#x135;" horiz-adv-x="503" 
d="M352 -125q0 -53 -35 -118q-72 -134 -216 -213q-71 -38 -120 -38q-83 0 -137 34q-53 34 -53 86q0 106 103 106q43 0 63 -26q19 -26 31 -58t26 -58q14 -27 49 -28q100 20 107 177q2 42 6 121t4 230v666q0 24 -18 41q-18 16 -52 34t-59 33v15l287 110h12v-305l2 -477v-332z
M467 1106l-25 -14l-186 227l-184 -227l-25 14l195 348h30z" />
    <glyph glyph-name="K_cedilla" unicode="&#x136;" horiz-adv-x="1570" 
d="M1090 1333q0 101 -136 121v21h549v-21q-105 -10 -211 -88t-183 -148t-122 -116q-45 -45 -89 -90t-86 -87t-77 -79q51 -64 175 -203q274 -308 352 -396t140 -138q61 -50 100 -65t147 -24v-20h-461q-24 12 -41 33q-513 595 -566 637q-19 14 -35 14t-20 -7q-6 -7 -12 -24
v-202q0 -186 8 -255t31 -99q41 -54 195 -77v-20h-658v20q127 20 170 70q31 37 31 229l2 185v639q0 77 -5 143t-31 98q-48 58 -161 70v21h635v-21q-39 -4 -76 -11q-128 -24 -135 -235q-4 -94 -4 -164v-335q133 82 483 462q91 107 91 162zM814 -326q-44 0 -66 28t-21 68
q0 40 38 68q39 27 97 27t102 -49q44 -48 44 -108q0 -104 -76 -168t-180 -64v20q72 14 112 46t39 98q0 26 -12 59q-33 -25 -77 -25z" />
    <glyph glyph-name="k_cedilla" unicode="&#x137;" horiz-adv-x="999" 
d="M682 63q0 12 -75 130t-172 249q-31 43 -55 43t-36 -6v-401q0 -44 74 -51q20 -2 41 -7v-20h-408v20q47 4 85 16t38 50v1157q0 16 -3 28t-46 35t-70 37v13l273 125h16v-979q234 195 356 335q39 44 39 58q0 13 -16 23q-50 30 -148 30v21h502v-21q-91 0 -210 -49
q-51 -20 -105 -66q-54 -47 -117 -105l-119 -110q235 -358 309 -453q73 -95 121 -132q43 -11 125 -13v-20h-495v20q40 2 68 8t28 35zM558 -135q58 0 103 -49q44 -48 44 -108q0 -104 -76 -168t-180 -64v20q71 14 111 46t40 98q0 26 -12 59q-32 -25 -77 -25q-44 0 -66 28
q-21 28 -21 68t38 68q38 27 96 27z" />
    <glyph glyph-name="kgreenlandic" unicode="&#x138;" horiz-adv-x="999" 
d="M682 63q0 12 -75 130t-172 249q-31 43 -55 43t-36 -6v-401q0 -44 74 -51q20 -2 41 -7v-20h-408v20q47 4 85 16t38 50v655q-2 9 -2 13v24q0 90 -21 116q-36 44 -126 54v21h481v-21q-72 -5 -100 -25q-52 -36 -58 -147q-2 -29 -4 -53v-221q234 195 356 335q39 44 39 58
q0 13 -16 23q-50 30 -148 30v21h502v-21q-91 0 -210 -49q-51 -20 -105 -66q-54 -47 -117 -105l-119 -110q235 -358 309 -453q73 -95 121 -132q43 -11 125 -13v-20h-495v20q40 2 68 8t28 35z" />
    <glyph glyph-name="Lacute" unicode="&#x139;" horiz-adv-x="1449" 
d="M1229 120q103 70 160 190q27 56 51 118l20 -6l-76 -422h-1314v20q129 20 180 78q18 21 28 90q11 69 11 131l4 306v587q0 131 -30 165q-55 63 -179 77v21h653v-21q-88 -13 -127 -35q-85 -48 -87 -132q-3 -85 -4 -144t-2 -117t-1 -118v-373l2 -236q2 -66 5 -125t22 -88
q16 -20 94 -38q78 -17 146 -17q314 0 444 89zM918 1890l-287 -313l-21 12l213 361q45 0 63 -16t32 -33v-11z" />
    <glyph glyph-name="lacute" unicode="&#x13a;" horiz-adv-x="503" 
d="M492 0h-478v23q94 6 125 19t31 46v1178q0 27 -20 43q-18 9 -56 31t-61 32v12l293 97h14v-1403q0 -37 37 -45q18 -4 47 -5t68 -5v-23zM406 1896l-287 -313l-21 12l213 361q45 0 63 -16t32 -33v-11z" />
    <glyph glyph-name="L_cedilla" unicode="&#x13b;" horiz-adv-x="1449" 
d="M1229 120q103 70 160 190q27 56 51 118l20 -6l-76 -422h-1314v20q129 20 180 78q18 21 28 90q11 69 11 131l4 306v587q0 131 -30 165q-55 63 -179 77v21h653v-21q-88 -13 -127 -35q-85 -48 -87 -132q-3 -85 -4 -144t-2 -117t-1 -118v-373l2 -236q2 -66 5 -125t22 -88
q16 -20 94 -38q78 -17 146 -17q314 0 444 89zM710 -326q-44 0 -66 28t-22 68t38 68q38 27 96 27t103 -49q44 -48 44 -108q0 -106 -76 -169t-180 -63v20q72 14 112 46t40 98q0 30 -13 59q-32 -25 -76 -25z" />
    <glyph glyph-name="l_cedilla" unicode="&#x13c;" horiz-adv-x="503" 
d="M492 0h-478v23q94 6 125 19t31 46v1178q0 27 -20 43q-18 9 -56 31t-61 32v12l293 97h14v-1403q0 -37 37 -45q18 -4 47 -5t68 -5v-23zM198 -326q-44 0 -66 28t-22 68t38 68q38 27 96 27t103 -49q44 -48 44 -108q0 -106 -76 -169t-180 -63v20q72 14 112 46t40 98
q0 30 -13 59q-32 -25 -76 -25z" />
    <glyph glyph-name="Lcaron" unicode="&#x13d;" horiz-adv-x="1449" 
d="M1229 120q103 70 160 190q27 56 51 118l20 -6l-76 -422h-1314v20q129 20 180 78q18 21 28 90q11 69 11 131l4 306v587q0 131 -30 165q-55 63 -179 77v21h653v-21q-88 -13 -127 -35q-85 -48 -87 -132q-3 -85 -4 -144t-2 -117t-1 -118v-373l2 -236q2 -66 5 -125t22 -88
q16 -20 94 -38q78 -17 146 -17q314 0 444 89zM973 1925l-195 -348h-30l-195 348l25 14l184 -227l186 227z" />
    <glyph glyph-name="lcaron" unicode="&#x13e;" horiz-adv-x="503" 
d="M492 0h-478v23q94 6 125 19t31 46v1178q0 27 -20 43q-18 9 -56 31t-61 32v12l293 97h14v-1403q0 -37 37 -45q18 -4 47 -5t68 -5v-23zM461 1931l-195 -348h-30l-195 348l25 15l184 -228l186 228z" />
    <glyph glyph-name="Ldot" unicode="&#x13f;" horiz-adv-x="1449" 
d="M1049 743q0 -49 -36 -81t-83 -33t-84 31t-37 85t37 85t84 32t83 -35t36 -84zM1229 120q103 70 160 190q27 56 51 118l20 -6l-76 -422h-1314v20q129 20 180 78q18 21 28 90q11 69 11 131l4 306v587q0 131 -30 165q-55 63 -179 77v21h653v-21q-88 -13 -127 -35
q-85 -48 -87 -132q-3 -85 -4 -144t-2 -117t-1 -118v-373l2 -236q2 -66 5 -125t22 -88q16 -20 94 -38q78 -17 146 -17q314 0 444 89z" />
    <glyph glyph-name="l_middot" unicode="&#x140;" horiz-adv-x="937" 
d="M492 0h-478v23q94 6 125 19t31 46v1178q0 27 -20 43q-18 9 -56 31t-61 32v12l293 97h14v-1403q0 -37 37 -45q18 -4 47 -5t68 -5v-23zM795 733q0 -53 -33 -85t-86 -32t-88 34t-35 87t35 89t88 36t86 -38t33 -91z" />
    <glyph glyph-name="Lslash" unicode="&#x141;" horiz-adv-x="1449" 
d="M782 31q316 0 433.5 80t158.5 168t66 149l20 -6l-76 -422h-1314v20q127 20 180 78q39 47 39 221l1 67l3 308l-244 -80l-16 54l260 80v464q0 128 -30 163q-54 64 -179 79v21h653v-21q-87 -13 -149 -47.5t-66 -132.5q-2 -66 -3 -121t-2 -108.5t-1 -107.5v-120l338 105
l16 -56l-354 -102v-58l2 -407q2 -66 5 -125t22 -88q26 -33 117.5 -44t119.5 -11z" />
    <glyph glyph-name="lslash" unicode="&#x142;" horiz-adv-x="524" 
d="M350 80q0 -33 25.5 -43t126.5 -14v-23h-477v23q94 6 124.5 19t30.5 46v729l-180 -72l-18 48l198 73v400q0 27 -20 43q-18 10 -55 31.5t-62 31.5v12l293 97h14v-555l182 71l19 -49l-201 -74v-794z" />
    <glyph glyph-name="Nacute" unicode="&#x143;" horiz-adv-x="1792" 
d="M1505 12q0 -18 -18 -18t-39 20q-174 201 -527 615t-583 674v-865q0 -252 27 -306t75 -78t131 -34v-20h-503v20q129 16 176 91q29 43 37 127q20 210 20 557v358q0 41 -2 100q-11 107 -82 157q-47 33 -135 44v21h416l970 -1135v696q0 82 -2 157t-20 125q-40 110 -221 136
v21h508v-21q-147 -19 -187 -113q-20 -45 -24 -128t-12 -235t-7 -308v-230l2 -295v-133zM1053 1890l-287 -313l-21 12l213 361q46 0 64 -16t31 -33v-11z" />
    <glyph glyph-name="nacute" unicode="&#x144;" horiz-adv-x="1067" 
d="M172 86v705q0 27 -20 43q-53 29 -93 47v12l269 96h12v-221l4 -2q62 94 119 137q117 88 225 87q109 -1 172 -89t64 -227v-602q0 -36 85 -48q22 -3 40 -6v-18h-418v23q55 4 88 13t33 42v516q0 264 -197 264q-68 0 -113 -29t-100 -84v-671q9 -45 72 -48q18 -1 39 -6v-20
h-396v20q115 10 115 66zM707 1405l-287 -313l-21 12l213 360q46 0 64 -16t31 -33v-10z" />
    <glyph glyph-name="N_cedilla" unicode="&#x145;" horiz-adv-x="1792" 
d="M1505 12q0 -18 -18 -18t-39 20q-174 201 -527 615t-583 674v-865q0 -252 27 -306t75 -78t131 -34v-20h-503v20q129 16 176 91q29 43 37 127q20 210 20 557v358q0 41 -2 100q-11 107 -82 157q-47 33 -135 44v21h416l970 -1135v696q0 82 -2 157t-20 125q-40 110 -221 136
v21h508v-21q-147 -19 -187 -113q-20 -45 -24 -128t-12 -235t-7 -308v-230l2 -295v-133zM892 -135q58 0 102 -49q44 -48 44 -108q0 -105 -75 -169q-75 -63 -181 -63v20q72 14 112 46t40 98q0 26 -12 59q-32 -25 -77 -25q-44 0 -66 28q-21 28 -21 68t38 68q38 27 96 27z" />
    <glyph glyph-name="n_cedilla" unicode="&#x146;" horiz-adv-x="1067" 
d="M172 86v705q0 27 -20 43q-53 29 -93 47v12l269 96h12v-221l4 -2q62 94 119 137q117 88 225 87q109 -1 172 -89t64 -227v-602q0 -36 85 -48q22 -3 40 -6v-18h-418v23q55 4 88 13t33 42v516q0 264 -197 264q-68 0 -113 -29t-100 -84v-671q9 -45 72 -48q18 -1 39 -6v-20
h-396v20q115 10 115 66zM546 -135q58 0 102 -49q44 -48 44 -108q0 -106 -76 -169t-180 -63v20q72 14 112 46t40 98q0 30 -13 59q-32 -25 -76 -25t-66 28q-21 28 -21 68t38 68q38 27 96 27z" />
    <glyph glyph-name="Ncaron" unicode="&#x147;" horiz-adv-x="1792" 
d="M1505 12q0 -18 -18 -18t-39 20q-174 201 -527 615t-583 674v-865q0 -252 27 -306t75 -78t131 -34v-20h-503v20q129 16 176 91q29 43 37 127q20 210 20 557v358q0 41 -2 100q-11 107 -82 157q-47 33 -135 44v21h416l970 -1135v696q0 82 -2 157t-20 125q-40 110 -221 136
v21h508v-21q-147 -19 -187 -113q-20 -45 -24 -128t-12 -235t-7 -308v-230l2 -295v-133zM1108 1925l-195 -348h-30l-195 348l25 14l184 -227l186 227z" />
    <glyph glyph-name="ncaron" unicode="&#x148;" horiz-adv-x="1067" 
d="M172 86v705q0 27 -20 43q-53 29 -93 47v12l269 96h12v-221l4 -2q62 94 119 137q117 88 225 87q109 -1 172 -89t64 -227v-602q0 -36 85 -48q22 -3 40 -6v-18h-418v23q55 4 88 13t33 42v516q0 264 -197 264q-68 0 -113 -29t-100 -84v-671q9 -45 72 -48q18 -1 39 -6v-20
h-396v20q115 10 115 66zM762 1440l-195 -348h-30l-195 348l25 14l184 -227l186 227z" />
    <glyph glyph-name="napostrophe" unicode="&#x149;" horiz-adv-x="1325" 
d="M103 1290q-43 0 -65 28t-22 68t38 68q38 27 96 27t103 -49q44 -48 44 -108q0 -104 -76 -168t-180 -64v20q72 14 112 46t40 97q0 24 -13 60q-33 -25 -77 -25zM430 86v705q0 27 -20 43q-53 29 -93 47v12l269 96h12v-221l4 -2q62 94 119 137q117 88 225 87q109 -1 172 -89
t64 -227v-602q0 -36 85 -48q22 -3 40 -6v-18h-418v23q55 4 88 13t33 42v516q0 264 -197 264q-68 0 -113 -29t-100 -84v-671q9 -45 72 -48q18 -1 39 -6v-20h-396v20q115 10 115 66z" />
    <glyph glyph-name="Eng" unicode="&#x14a;" horiz-adv-x="1792" 
d="M1507 -125q-1 -53 -35 -118q-70 -133 -216 -213q-71 -38 -120 -38q-50 0 -80 8q-108 30 -110 119q0 45 26 72t73 27t67 -26t32 -58t25 -58q14 -27 50 -28q99 20 106 177q2 42 6 121t4 230v53q-109 127 -229 267q-530 623 -768 893v-865q0 -252 27 -306t75 -78t131 -34
v-20h-503v20q129 16 176 91q29 43 37 127q20 210 20 665v250q0 41 -2 100q-11 107 -82 157q-47 33 -135 44v21h416l970 -1135v696q0 82 -2 157t-20 125q-40 110 -221 136v21h508v-21q-147 -19 -187 -113q-20 -45 -24 -128t-12 -235t-7 -407v-297h2v-30q2 80 2 -37v-332z" />
    <glyph glyph-name="eng" unicode="&#x14b;" horiz-adv-x="1067" 
d="M172 86v705q0 27 -20 43q-53 29 -93 47v12l269 96h12v-221l4 -2q62 94 119 137q117 88 225 87q109 -1 172 -89t64 -227v-799q0 -53 -35 -118q-72 -134 -216 -213q-71 -38 -120 -38q-129 0 -175 73q-16 23 -16 61t26 65t73 27t67 -26t32 -58t26 -58q14 -27 49 -28
q99 20 106 177q2 41 5 101q6 119 6 238v516q0 264 -197 264q-68 0 -113 -29t-100 -84v-671q9 -45 72 -48q18 -1 39 -6v-20h-396v20q115 10 115 66z" />
    <glyph glyph-name="Omacron" unicode="&#x14c;" horiz-adv-x="1654" 
d="M1341 743q0 280 -128 485q-148 234 -388 232q-133 0 -230 -64q-189 -126 -252 -400q-30 -130 -30 -266q0 -293 137 -501t381 -209q129 0 225 66q95 66 158 169q127 208 127 488zM1595 740q0 -156 -61 -296q-125 -285 -413 -399q-140 -55 -297 -55t-296 54
q-284 110 -408 391q-60 138 -60 309q0 172 62 312q126 278 424 387q144 52 311 52t305 -61t235 -165q198 -212 198 -529zM1114 1597h-575v93h575v-93z" />
    <glyph glyph-name="omacron" unicode="&#x14d;" horiz-adv-x="1046" 
d="M753 191q64 137 64 311q0 173 -65 299q-80 155 -234 155q-127 0 -207 -140t-82 -327q0 -320 164 -429q57 -38 137 -38q144 0 223 169zM1008 512q0 -114 -39 -208q-81 -194 -257 -271q-88 -39 -176 -39q-193 0 -332 120q-165 140 -165 388q0 194 139 340q139 147 354 147
q179 0 319 -122q69 -60 113 -151q44 -90 44 -204zM809 1092h-576v92h576v-92z" />
    <glyph glyph-name="Obreve" unicode="&#x14e;" horiz-adv-x="1654" 
d="M1341 743q0 280 -128 485q-148 234 -388 232q-133 0 -230 -64q-189 -126 -252 -400q-30 -130 -30 -266q0 -293 137 -501t381 -209q129 0 225 66q95 66 158 169q127 208 127 488zM1595 740q0 -156 -61 -296q-125 -285 -413 -399q-140 -55 -297 -55t-296 54
q-284 110 -408 391q-60 138 -60 309q0 172 62 312q126 278 424 387q144 52 311 52t305 -61t235 -165q198 -212 198 -529zM1053 1882q0 -197 -128 -262q-43 -23 -97 -23q-103 0 -165 72q-61 72 -61 213v23h27q6 -103 60 -153t139 -50t139 50q53 50 59 153h27v-23z" />
    <glyph glyph-name="obreve" unicode="&#x14f;" horiz-adv-x="1046" 
d="M753 191q64 137 64 311q0 173 -65 299q-80 155 -234 155q-127 0 -207 -140t-82 -327q0 -320 164 -429q57 -38 137 -38q144 0 223 169zM1008 512q0 -114 -39 -208q-81 -194 -257 -271q-88 -39 -176 -39q-193 0 -332 120q-165 140 -165 388q0 194 139 340q139 147 354 147
q179 0 319 -122q69 -60 113 -151q44 -90 44 -204zM748 1376q0 -197 -128 -262q-44 -22 -98 -22q-104 1 -164 72q-61 72 -61 212v23h27q6 -103 60 -153t139 -50t139 50q53 50 59 153h27v-23z" />
    <glyph glyph-name="Ohungarumlaut" unicode="&#x150;" horiz-adv-x="1654" 
d="M1341 743q0 280 -128 485q-148 234 -388 232q-133 0 -230 -64q-189 -126 -252 -400q-30 -130 -30 -266q0 -293 137 -501t381 -209q129 0 225 66q95 66 158 169q127 208 127 488zM1595 740q0 -156 -61 -296q-125 -285 -413 -399q-140 -55 -297 -55t-296 54
q-284 110 -408 391q-60 138 -60 309q0 172 62 312q126 278 424 387q144 52 311 52t305 -61t235 -165q198 -212 198 -529zM840 1907l-246 -310l-23 13l179 356q45 0 61 -16t29 -33v-10zM1083 1907l-278 -305l-23 12l211 352q45 0 61 -16t29 -33v-10z" />
    <glyph glyph-name="ohungarumlaut" unicode="&#x151;" horiz-adv-x="1046" 
d="M753 191q64 137 64 311q0 173 -65 299q-80 155 -234 155q-127 0 -207 -140t-82 -327q0 -320 164 -429q57 -38 137 -38q144 0 223 169zM1008 512q0 -114 -39 -208q-81 -194 -257 -271q-88 -39 -176 -39q-193 0 -332 120q-165 140 -165 388q0 194 139 340q139 147 354 147
q179 0 319 -122q69 -60 113 -151q44 -90 44 -204zM535 1401l-246 -309l-23 12l178 356q46 0 62 -16t29 -33v-10zM778 1401l-278 -305l-23 12l211 352q46 0 62 -16t28 -33v-10z" />
    <glyph glyph-name="OE" unicode="&#x152;" horiz-adv-x="2007" 
d="M1012 737v-563q0 -76 2 -123q162 82 254 256t94 430h-350zM433.5 1219q-120.5 -207 -120.5 -487t88 -427t177.5 -208.5t205.5 -71.5v79l2 304l-2 884v156q-230 -22 -350.5 -229zM1012 1312v-542l350 6q-10 238 -100.5 405t-245.5 246q-4 -78 -4 -115zM1292 31
q240 0 370.5 52t274.5 300l23 -6l-98 -377h-558l-491 -2q-156 0 -293 55.5t-239.5 154.5t-162 235.5t-59.5 298.5t60.5 299t226.5 288.5t512 151.5l258 -6h641l133 -324l-20 -10q-153 189 -305 264q-75 39 -514 39v-4q227 -49 376.5 -233.5t161.5 -409.5q78 30 99 76.5
t43 164.5h24v-583h-24q-29 117 -55 174t-87 82q-16 -237 -164.5 -422t-367.5 -248v-6l45 -1z" />
    <glyph glyph-name="oe" unicode="&#x153;" horiz-adv-x="1622" 
d="M720.5 818q-70.5 138 -218.5 138q-125 0 -199 -141t-74 -326q0 -321 102.5 -393.5t180.5 -72.5t130 47t100.5 147.5t48.5 281.5t-70.5 319zM1401 785q0 61 -49.5 115t-119.5 54q-117 0 -190 -102.5t-73 -171.5h80l223 4q77 0 104 12q25 28 25 89zM889 793
q127 196 337 196q155 0 258.5 -85.5t117.5 -252.5h-637l-4 -82q0 -184 95 -309t271 -125q98 0 173 52.5t97 127.5l19 -4q-20 -110 -120 -211.5t-238 -101.5q-258 0 -375 209q-139 -213 -371 -213q-184 0 -328.5 132t-144.5 376q0 198 134 342.5t291 144.5t258 -47t167 -149z
" />
    <glyph glyph-name="Racute" unicode="&#x154;" horiz-adv-x="1560" 
d="M1061 1118q0 78 -51 158t-146 125t-193 45q-97 0 -139 -6q-2 -12 -4 -22t-3 -23q-1 -14 -2 -40q-1 -25 -3 -85q-4 -119 -4 -324v-225q189 0 297 37q66 20 113 55q135 101 135 305zM657 1477q137 -1 243 -9t196 -55q200 -105 200 -332q0 -141 -93 -234t-245 -142v-7
q60 -31 122 -120q63 -89 125 -179q62 -89 125 -177t134 -138q72 -49 168 -64v-20h-420q-18 18 -26 28t-19 21q-10 12 -25 36t-51 76t-66 98q-172 264 -301 374q-69 59 -161 59q-18 0 -47 2v-231q0 -138 6 -279q2 -47 20 -76q18 -28 66 -56q47 -28 131 -32v-20h-655v20
q128 20 172 74q33 40 33 225l4 306v518q0 216 -35 248q-31 33 -69 44t-93 19v21h84l334 2h143zM1012 1892l-287 -313l-20 12l213 361q45 0 63 -16t31 -33v-11z" />
    <glyph glyph-name="racute" unicode="&#x155;" horiz-adv-x="731" 
d="M174 86v692q0 29 -19 41q-65 42 -94 53v13l269 104h12l-4 -284h4q70 175 174 249q48 35 106 35q58 -1 94 -31t36 -76t-27 -76t-70 -30t-78 37q-36 37 -75 37q-77 0 -158 -186v-590q15 -44 126 -48q28 -1 48 -6v-20h-459v20q115 10 115 66zM559 1405l-287 -313l-20 12
l213 360q45 0 63 -16t31 -33v-10z" />
    <glyph glyph-name="R_cedilla" unicode="&#x156;" horiz-adv-x="1560" 
d="M1061 1118q0 78 -51 158t-146 125t-193 45q-97 0 -139 -6q-2 -12 -4 -22t-3 -23q-1 -14 -2 -40q-1 -25 -3 -85q-4 -119 -4 -324v-225q189 0 297 37q66 20 113 55q135 101 135 305zM657 1477q137 -1 243 -9t196 -55q200 -105 200 -332q0 -141 -93 -234t-245 -142v-7
q60 -31 122 -120q63 -89 125 -179q62 -89 125 -177t134 -138q72 -49 168 -64v-20h-420q-18 18 -26 28t-19 21q-10 12 -25 36t-51 76t-66 98q-172 264 -301 374q-69 59 -161 59q-18 0 -47 2v-231q0 -138 6 -279q2 -47 20 -76q18 -28 66 -56q47 -28 131 -32v-20h-655v20
q128 20 172 74q33 40 33 225l4 306v518q0 216 -35 248q-31 33 -69 44t-93 19v21h84l334 2h143zM804 -326q-44 0 -66 28t-22 68t39 68q39 27 97 27t102 -49q44 -48 43 -108q0 -105 -75 -169q-75 -63 -181 -63v20q72 14 112 46t40 98q0 26 -12 59q-33 -25 -77 -25z" />
    <glyph glyph-name="r_cedilla" unicode="&#x157;" horiz-adv-x="731" 
d="M174 86v692q0 29 -19 41q-65 42 -94 53v13l269 104h12l-4 -284h4q70 175 174 249q48 35 106 35q58 -1 94 -31t36 -76t-27 -76t-70 -30t-78 37q-36 37 -75 37q-77 0 -158 -186v-590q15 -44 126 -48q28 -1 48 -6v-20h-459v20q115 10 115 66zM256 -135q58 0 102 -49
q44 -48 43 -108q0 -105 -75 -169q-75 -63 -181 -63v20q72 14 112 46t40 98q0 26 -12 59q-32 -25 -77 -25q-44 0 -66 28t-22 68t39 68q39 27 97 27z" />
    <glyph glyph-name="Rcaron" unicode="&#x158;" horiz-adv-x="1560" 
d="M1061 1118q0 78 -51 158t-146 125t-193 45q-97 0 -139 -6q-2 -12 -4 -22t-3 -23q-1 -14 -2 -40q-1 -25 -3 -85q-4 -119 -4 -324v-225q189 0 297 37q66 20 113 55q135 101 135 305zM657 1477q137 -1 243 -9t196 -55q200 -105 200 -332q0 -141 -93 -234t-245 -142v-7
q60 -31 122 -120q63 -89 125 -179q62 -89 125 -177t134 -138q72 -49 168 -64v-20h-420q-18 18 -26 28t-19 21q-10 12 -25 36t-51 76t-66 98q-172 264 -301 374q-69 59 -161 59q-18 0 -47 2v-231q0 -138 6 -279q2 -47 20 -76q18 -28 66 -56q47 -28 131 -32v-20h-655v20
q128 20 172 74q33 40 33 225l4 306v518q0 216 -35 248q-31 33 -69 44t-93 19v21h84l334 2h143zM1067 1927l-195 -348h-30l-195 348l25 15l184 -228l186 228z" />
    <glyph glyph-name="rcaron" unicode="&#x159;" horiz-adv-x="731" 
d="M174 86v692q0 29 -19 41q-65 42 -94 53v13l269 104h12l-4 -284h4q70 175 174 249q48 35 106 35q58 -1 94 -31t36 -76t-27 -76t-70 -30t-78 37q-36 37 -75 37q-77 0 -158 -186v-590q15 -44 126 -48q28 -1 48 -6v-20h-459v20q115 10 115 66zM614 1440l-194 -348h-31
l-194 348l24 14l184 -227l187 227z" />
    <glyph glyph-name="Sacute" unicode="&#x15a;" horiz-adv-x="1239" 
d="M983 1399q14 0 61 74h23v-379h-23q-91 249 -270 338q-120 60 -265 14q-116 -37 -164 -147q-24 -54 -23 -123q0 -193 235 -279q72 -28 133 -47t180 -63q119 -43 196 -141t77 -243q0 -192 -147 -306t-388 -112q-241 1 -361 74q-24 15 -32 15t-61 -72h-19l-6 408h21
q33 -99 88 -176q90 -125 165 -164q105 -54 203 -56q152 0 246 83t94 232t-143 222q-59 32 -247 95q-188 64 -243 104q-174 128 -174 342q0 88 40 168q79 159 264 211q89 26 217 26t236 -49q42 -18 64 -34t23 -15zM788 1913l-286 -314l-21 13l213 360q46 0 64 -16t30 -33v-10
z" />
    <glyph glyph-name="sacute" unicode="&#x15b;" horiz-adv-x="782" 
d="M55 330h17q68 -209 184 -280q49 -30 132 -30t141 56t59 174q0 63 -40 105q-40 43 -102 55q-143 29 -214 53q-70 25 -118 91t-48 142q0 136 95 215q95 78 235 78t276 -53l24 -254l-16 -4q-71 150 -114 196q-78 85 -171 86t-147 -50q-55 -51 -55 -134q0 -82 43 -114t98 -46
t108 -25t93 -22q93 -23 157 -95t64 -163q0 -92 -32 -150q-91 -165 -351 -165q-180 0 -318 63v271zM559 1405l-287 -313l-20 12l213 360q45 0 63 -16t31 -33v-10z" />
    <glyph glyph-name="Scircumflex" unicode="&#x15c;" horiz-adv-x="1239" 
d="M983 1399q14 0 61 74h23v-379h-23q-91 249 -270 338q-120 60 -265 14q-116 -37 -164 -147q-24 -54 -23 -123q0 -193 235 -279q72 -28 133 -47t180 -63q119 -43 196 -141t77 -243q0 -192 -147 -306t-388 -112q-241 1 -361 74q-24 15 -32 15t-61 -72h-19l-6 408h21
q33 -99 88 -176q90 -125 165 -164q105 -54 203 -56q152 0 246 83t94 232t-143 222q-59 32 -247 95q-188 64 -243 104q-174 128 -174 342q0 88 40 168q79 159 264 211q89 26 217 26t236 -49q42 -18 64 -34t23 -15zM844 1614l-25 -15l-186 228l-184 -228l-25 15l194 348h31z
" />
    <glyph glyph-name="scircumflex" unicode="&#x15d;" horiz-adv-x="782" 
d="M55 330h17q68 -209 184 -280q49 -30 132 -30t141 56t59 174q0 63 -40 105q-40 43 -102 55q-143 29 -214 53q-70 25 -118 91t-48 142q0 136 95 215q95 78 235 78t276 -53l24 -254l-16 -4q-71 150 -114 196q-78 85 -171 86t-147 -50q-55 -51 -55 -134q0 -82 43 -114t98 -46
t108 -25t93 -22q93 -23 157 -95t64 -163q0 -92 -32 -150q-91 -165 -351 -165q-180 0 -318 63v271zM614 1106l-24 -14l-187 227l-184 -227l-24 14l194 348h31z" />
    <glyph glyph-name="Scedilla" unicode="&#x15e;" horiz-adv-x="1239" 
d="M983 1399q14 0 61 74h23v-379h-23q-91 249 -270 338q-120 60 -265 14q-116 -37 -164 -147q-24 -54 -23 -123q0 -193 235 -279q72 -28 133 -47t180 -63q119 -43 196 -141t77 -243q0 -192 -147 -306t-388 -112q-241 1 -361 74q-24 15 -32 15t-61 -72h-19l-6 408h21
q33 -99 88 -176q90 -125 165 -164q105 -54 203 -56q152 0 246 83t94 232t-143 222q-59 32 -247 95q-188 64 -243 104q-174 128 -174 342q0 88 40 168q79 159 264 211q89 26 217 26t236 -49q42 -18 64 -34t23 -15zM705 -344q0 113 -150 164l164 166h41l-92 -97
q89 -35 128 -102q23 -41 23 -86q0 -86 -73 -134t-142 -48q-155 0 -155 92q0 19 14 39t52 20t56 -22l-2 -41q0 -63 41 -63t68 28q27 29 27 84z" />
    <glyph glyph-name="scedilla" unicode="&#x15f;" horiz-adv-x="782" 
d="M55 330h17q68 -209 184 -280q49 -30 132 -30t141 56t59 174q0 63 -40 105q-40 43 -102 55q-143 29 -214 53q-70 25 -118 91t-48 142q0 136 95 215q95 78 235 78t276 -53l24 -254l-16 -4q-71 150 -114 196q-78 85 -171 86t-147 -50q-55 -51 -55 -134q0 -82 43 -114t98 -46
t108 -25t93 -22q93 -23 157 -95t64 -163q0 -92 -32 -150q-91 -165 -351 -165q-180 0 -318 63v271zM438 -100q152 -60 152 -204q0 -30 -23 -65t-73 -69t-119 -33q-156 0 -156 92q0 19 14 39q15 20 53 20t56 -22l-2 -41q0 -63 45 -63q37 0 64 28t27 83q-1 114 -150 165
l163 166h41z" />
    <glyph glyph-name="Scaron" unicode="&#x160;" horiz-adv-x="1239" 
d="M983 1399q14 0 61 74h23v-379h-23q-92 249 -213 309.5t-193 60.5q-142 0 -229 -75.5t-87 -198.5t65.5 -188.5t152.5 -98.5t153.5 -54.5t156.5 -53.5q139 -51 216 -149t77 -243q0 -190 -144 -303.5t-389 -113.5t-316 44t-80.5 44t-59.5 -72h-19l-6 408h21
q34 -105 106.5 -202.5t161.5 -145.5t188 -48q152 0 246 83t94 231t-103.5 202t-179 79.5t-107.5 36.5t-65.5 22.5t-83.5 30.5q-110 42 -189 144t-79 220q0 213 139.5 323.5t352.5 110.5q151 0 229 -33.5t99.5 -49t23.5 -15.5zM889 1898l-217 -333h-31l-217 333l27 15
l206 -213l205 213z" />
    <glyph glyph-name="scaron" unicode="&#x161;" horiz-adv-x="782" 
d="M55 330h17q68 -209 150.5 -259.5t165.5 -50.5t141.5 56.5t58.5 173.5q0 63 -40 105.5t-102 54.5q-143 29 -214 53q-70 25 -118 90t-48 143q0 138 95.5 215.5t230.5 77.5t280 -53l24 -254l-16 -4q-71 150 -132.5 216.5t-168.5 66.5q-76 0 -131 -50.5t-55 -133.5t43 -115
t98 -46t108.5 -25t92.5 -22q92 -23 156.5 -94.5t64.5 -163.5q0 -165 -109 -240t-279 -75t-313 63v271zM610 1405l-194 -348h-31l-195 348l25 14l184 -227l187 227z" />
    <glyph glyph-name="Tcedilla" unicode="&#x162;" horiz-adv-x="1509" 
d="M864 297q0 -160 27 -198t83 -54t101 -25v-20h-192l-92 -96q87 -34 128 -103q23 -41 23 -86q0 -86 -73 -134t-142 -48q-156 0 -156 92q1 19 15 39t52 20t56 -22l-2 -41q0 -63 45 -63q37 0 64 28t26 84q0 116 -149 164l164 166h-432v20q53 6 102 20t96 69q29 29 29 219
l4 299v794h-135l-125 -2q-78 -2 -139 -21t-120 -98q-96 -127 -124 -210l-18 6l61 389q136 -29 390 -29h460l377 4q102 3 202 35l66 -399l-18 -6q-43 101 -132 216q-23 30 -52 58q-54 52 -208 55l-125 2h-135l-2 -323v-801z" />
    <glyph glyph-name="tcedilla" unicode="&#x163;" horiz-adv-x="663" 
d="M27 844v22l297 281h16v-178h379l-64 -125h-311v-539q0 -104 45 -151t117 -48q109 0 166 80l12 -6q-71 -184 -289 -184q-134 0 -204 109q-19 32 -19 65l4 674h-149zM352 -446q37 0 64 28q26 28 26 83q-1 114 -149 165l164 166h41l-92 -96q87 -34 128 -103q23 -41 23 -86
q0 -86 -73 -134t-142 -48q-156 0 -156 92q0 19 14 39t53 20q38 0 56 -22l-2 -41q0 -63 45 -63z" />
    <glyph glyph-name="Tcaron" unicode="&#x164;" horiz-adv-x="1509" 
d="M864 297q0 -160 27 -198t83 -54t101 -25v-20h-665v20q53 6 102 20t96 69q29 29 29 219l4 299v794h-135l-125 -2q-78 -2 -139 -21t-120 -98q-96 -127 -124 -210l-18 6l61 389q136 -29 390 -29h460l377 4q102 3 202 35l66 -399l-18 -6q-43 101 -132 216q-23 30 -52 58
q-54 52 -208 55l-125 2h-135l-2 -323v-801zM967 1946l-195 -349h-31l-194 349l24 14l185 -227l186 227z" />
    <glyph glyph-name="tcaron" unicode="&#x165;" horiz-adv-x="921" 
d="M27 844v22l297 281h16v-178h379l-64 -125h-311v-539q0 -104 45 -151t117 -48q109 0 166 80l12 -6q-71 -184 -289 -184q-134 0 -204 109q-19 32 -19 65l4 674h-149zM767 1290q-44 0 -66 28q-21 28 -21 68t38 68q38 27 96 27t103 -49q44 -48 44 -108q0 -104 -76 -168
t-180 -64v20q71 14 111 46t40 97q0 27 -12 60q-33 -25 -77 -25z" />
    <glyph glyph-name="Tbar" unicode="&#x166;" horiz-adv-x="1509" 
d="M864 745h310v-92h-310v-356q0 -160 27 -198t83 -54t101 -25v-20h-665v20q53 6 102 20t96 69q29 29 29 219l4 299v26h-301v92h301v676h-135l-125 -2q-78 -2 -139 -21t-120 -98q-96 -127 -124 -210l-18 6l61 389q136 -29 461 -29h389l377 4q102 3 202 35l66 -399l-18 -6
q-43 101 -132 216q-23 30 -52 58q-54 52 -208 55l-125 2h-135l-2 -323v-353z" />
    <glyph glyph-name="tbar" unicode="&#x167;" horiz-adv-x="663" 
d="M172 170v340h-145v92h147q2 133 2 242h-149v22l297 281h16v-178h379l-64 -125h-311v-242h311v-92h-311v-205q0 -104 45 -151t117 -48q109 0 166 80l12 -6q-71 -184 -289 -184q-134 0 -204 109q-19 32 -19 65z" />
    <glyph glyph-name="Utilde" unicode="&#x168;" horiz-adv-x="1708" 
d="M1421 662v356q0 235 -21 293q-43 118 -220 143v21h508v-21q-76 -10 -120 -39q-66 -44 -80 -137t-20 -359q-6 -265 -12 -383t-22 -185q-89 -374 -574 -371q-472 0 -570 351q-24 85 -24 185l2 354v347q0 130 -30 165q-50 59 -166 72v21h610v-21q-81 -11 -114 -33
q-68 -44 -72 -141q-4 -96 -4 -150v-421l2 -185q4 -218 118 -349q115 -130 323 -130t328 100q135 117 153 382q5 73 5 135zM571 1577q52 199 226 201l182 -39q76 0 118 17t58 87h29q-23 -96 -60 -136q-38 -40 -76 -57t-96 -18l-186 39q-89 0 -115 -13t-53 -81h-27z" />
    <glyph glyph-name="utilde" unicode="&#x169;" horiz-adv-x="1071" 
d="M731 819q0 73 -20 101q-40 16 -154 26v23h344v-809q-1 -29 19 -41q20 -13 56 -29l60 -27v-12l-291 -53h-14v207l-2 2q-140 -213 -328 -213q-254 0 -256 305v522q0 13 -2 29t-3 30q-4 59 -101 63q-20 1 -39 3v23h317v-596q0 -135 41 -200t161 -65t212 128v583zM211 1071
q52 199 225 201l182 -39q76 0 118 17t59 87h28q-24 -97 -60 -137q-67 -72 -171 -74l-186 39q-89 0 -116 -13t-52 -81h-27z" />
    <glyph glyph-name="Umacron" unicode="&#x16a;" horiz-adv-x="1708" 
d="M1421 662v356q0 235 -21 293q-43 118 -220 143v21h508v-21q-76 -10 -120 -39q-66 -44 -80 -137t-20 -359q-6 -265 -12 -383t-22 -185q-89 -374 -574 -371q-472 0 -570 351q-24 85 -24 185l2 354v347q0 130 -30 165q-50 59 -166 72v21h610v-21q-81 -11 -114 -33
q-68 -44 -72 -141q-4 -96 -4 -150v-421l2 -185q4 -218 118 -349q115 -130 323 -130t328 100q135 117 153 382q5 73 5 135zM1165 1577h-575v92h575v-92z" />
    <glyph glyph-name="umacron" unicode="&#x16b;" horiz-adv-x="1071" 
d="M731 819q0 73 -20 101q-40 16 -154 26v23h344v-809q-1 -29 19 -41q20 -13 56 -29l60 -27v-12l-291 -53h-14v207l-2 2q-140 -213 -328 -213q-254 0 -256 305v522q0 13 -2 29t-3 30q-4 59 -101 63q-20 1 -39 3v23h317v-596q0 -135 41 -200t161 -65t212 128v583zM805 1071
h-576v92h576v-92z" />
    <glyph glyph-name="Ubreve" unicode="&#x16c;" horiz-adv-x="1708" 
d="M1421 662v356q0 235 -21 293q-43 118 -220 143v21h508v-21q-76 -10 -120 -39q-66 -44 -80 -137t-20 -359q-6 -265 -12 -383t-22 -185q-89 -374 -574 -371q-472 0 -570 351q-24 85 -24 185l2 354v347q0 130 -30 165q-50 59 -166 72v21h610v-21q-81 -11 -114 -33
q-68 -44 -72 -141q-4 -96 -4 -150v-421l2 -185q4 -218 118 -349q115 -130 323 -130t328 100q135 117 153 382q5 73 5 135zM1104 1862q0 -140 -61 -214q-61 -73 -164 -71q-105 0 -173 82q-51 62 -53 203v22h27q6 -102 60 -152t140 -50t138 50q53 50 59 152h27v-22z" />
    <glyph glyph-name="ubreve" unicode="&#x16d;" horiz-adv-x="1071" 
d="M731 819q0 73 -20 101q-40 16 -154 26v23h344v-809q-1 -29 19 -41q20 -13 56 -29l60 -27v-12l-291 -53h-14v207l-2 2q-140 -213 -328 -213q-254 0 -256 305v522q0 13 -2 29t-3 30q-4 59 -101 63q-20 1 -39 3v23h317v-596q0 -135 41 -200t161 -65t212 128v583zM743 1356
q0 -140 -60 -213q-60 -72 -164 -72q-103 0 -165 72q-61 72 -61 213v22h26q7 -102 61 -152t139 -50t138 50t60 152h26v-22z" />
    <glyph glyph-name="Uring" unicode="&#x16e;" horiz-adv-x="1708" 
d="M1421 662v356q0 235 -21 293q-43 118 -220 143v21h508v-21q-76 -10 -120 -39q-66 -44 -80 -137t-20 -359q-6 -265 -12 -383t-22 -185q-89 -374 -574 -371q-472 0 -570 351q-24 85 -24 185l2 354v347q0 130 -30 165q-50 59 -166 72v21h610v-21q-81 -11 -114 -33
q-68 -44 -72 -141q-4 -96 -4 -150v-421l2 -185q4 -218 118 -349q115 -130 323 -130t328 100q135 117 153 382q5 73 5 135zM975 1724q0 45 -26 76q-25 31 -69 31t-71 -30t-27 -76q0 -47 26 -77t71 -30t71 30t25 76zM727 1723q0 65 44 107t109 42q66 0 108 -41t42 -105
t-43 -107q-43 -42 -109 -42t-109 41q-42 41 -42 105z" />
    <glyph glyph-name="uring" unicode="&#x16f;" horiz-adv-x="1071" 
d="M731 819q0 73 -20 101q-40 16 -154 26v23h344v-809q-1 -29 19 -41q20 -13 56 -29l60 -27v-12l-291 -53h-14v207l-2 2q-140 -213 -328 -213q-254 0 -256 305v522q0 13 -2 29t-3 30q-4 59 -101 63q-20 1 -39 3v23h317v-596q0 -135 41 -200t161 -65t212 128v583zM614 1219
q0 45 -26 75t-69 31q-45 0 -71 -30q-26 -29 -26 -75t26 -77t70 -31q45 0 71 31q25 31 25 76zM520 1366q64 0 107 -40t43 -106q0 -64 -43 -106t-110 -43q-67 0 -109 41q-42 42 -41 106q0 64 44 106q45 42 109 42z" />
    <glyph glyph-name="Uhungarumlaut" unicode="&#x170;" horiz-adv-x="1708" 
d="M1421 662v356q0 235 -21 293q-43 118 -220 143v21h508v-21q-76 -10 -120 -39q-66 -44 -80 -137t-20 -359q-6 -265 -12 -383t-22 -185q-89 -374 -574 -371q-472 0 -570 351q-24 85 -24 185l2 354v347q0 130 -30 165q-50 59 -166 72v21h610v-21q-81 -11 -114 -33
q-68 -44 -72 -141q-4 -96 -4 -150v-421l2 -185q4 -218 118 -349q115 -130 323 -130t328 100q135 117 153 382q5 73 5 135zM891 1886l-246 -309l-22 12l178 357q45 0 61 -16t29 -34v-10zM1135 1886l-279 -305l-22 12l210 353q46 0 62 -16t29 -34v-10z" />
    <glyph glyph-name="uhungarumlaut" unicode="&#x171;" horiz-adv-x="1071" 
d="M731 819q0 73 -20 101q-40 16 -154 26v23h344v-809q-1 -29 19 -41q20 -13 56 -29l60 -27v-12l-291 -53h-14v207l-2 2q-140 -213 -328 -213q-254 0 -256 305v522q0 13 -2 29t-3 30q-4 59 -101 63q-20 1 -39 3v23h317v-596q0 -135 41 -200t161 -65t212 128v583zM530 1380
l-245 -309l-23 12l178 357q46 0 62 -16t28 -33v-11zM774 1380l-278 -305l-23 12l211 353q45 0 61 -16t29 -33v-11z" />
    <glyph glyph-name="Uogonek" unicode="&#x172;" horiz-adv-x="1708" 
d="M1421 662v356q0 235 -21 293q-43 118 -220 143v21h508v-21q-76 -10 -120 -39q-66 -44 -80 -137t-20 -359q-6 -265 -12 -383t-22 -185q-89 -374 -574 -371q-472 0 -570 351q-24 85 -24 185l2 354v347q0 130 -30 165q-50 59 -166 72v21h610v-21q-81 -11 -114 -33
q-68 -44 -72 -141q-4 -96 -4 -150v-421l2 -185q4 -218 118 -349q115 -130 323 -130t328 100q135 117 153 382q5 73 5 135zM694 -326q0 133 152 253q39 32 72 53h30v-5q-47 -30 -92 -98q-45 -69 -45 -127q0 -135 111 -135q54 0 78 20t47 56l16 -8q-63 -158 -215 -158
q-56 0 -105 45q-49 46 -49 104z" />
    <glyph glyph-name="uogonek" unicode="&#x173;" horiz-adv-x="1071" 
d="M731 819q0 73 -20 101q-40 16 -154 26v23h344v-809q-1 -29 19 -41q20 -13 56 -29l60 -27v-12l-291 -53h-14v207l-2 2q-140 -213 -328 -213q-254 0 -256 305v522q0 13 -2 29t-3 30q-4 59 -101 63q-20 1 -39 3v23h317v-596q0 -135 41 -200t161 -65t212 128v583zM334 -312
q0 127 151 254q39 32 72 52h31v-4q-48 -31 -92 -100q-45 -69 -45 -127q0 -134 110 -134q53 1 78 21t47 55l16 -8q-62 -155 -198 -158q-72 0 -121 45q-49 46 -49 104z" />
    <glyph glyph-name="Wcircumflex" unicode="&#x174;" horiz-adv-x="2029" 
d="M700 1475h641v-21q-12 -2 -66 -9t-89 -35t-35 -50q1 -45 101 -325q100 -279 139 -389t71 -196t45 -126q6 14 22 60q15 46 53 153t79 233q41 127 94 288t57 212q4 50 4 76t-25 53q-26 27 -76 40t-75 15v21h451v-21q-51 -6 -87 -29t-42 -29q-69 -75 -127 -247
q-27 -80 -70 -202t-87 -251t-89 -259t-84 -247l-86 -196h-20q-103 274 -212 589q-110 314 -153 429q-34 -94 -70 -198t-88 -252q-52 -149 -131 -367l-90 -201h-24q-63 166 -119 316l-211 555q-49 130 -81 214t-43 113q-11 30 -20 54q-43 117 -91 160q-50 43 -123 46v23h577
v-21q-39 0 -76 -14q-75 -28 -75 -93t317 -879q37 -95 59 -157q146 390 265 762q-94 248 -127 296q-54 78 -183 83v23zM1225 1591l-25 -14l-186 227l-185 -227l-24 14l194 348h31z" />
    <glyph glyph-name="wcircumflex" unicode="&#x175;" horiz-adv-x="1513" 
d="M545 969h467v-23q-16 -2 -41 -5q-105 -13 -107 -60q0 -56 221 -645q12 26 35 78t48 117q26 65 54 133q99 242 99 302q0 68 -88 76q-23 2 -41 4v23h375v-23q-25 -2 -51 -4q-95 -7 -140 -115q-195 -444 -238 -549q-44 -106 -63 -148t-32 -69q-13 -28 -25 -53
q-8 -12 -20 -12t-17 14l-102 303q-32 93 -129 381l-195 -508q-29 -55 -43 -94t-35 -84q-8 -12 -19 -12t-20 14q-318 776 -339 822q-21 45 -38 71q-11 9 -35 25t-92 18v23h461v-23q-13 -2 -33 -4q-76 -8 -104 -35q14 -58 125 -323q110 -265 149 -359q135 346 197 520
q-28 82 -67 154q-6 6 -12 13q-23 30 -105 34v23zM958 1085l-24 -14l-186 227l-185 -227l-24 14l194 349h31z" />
    <glyph glyph-name="Ycircumflex" unicode="&#x176;" horiz-adv-x="1329" 
d="M-51 1475h620v-21q-125 -8 -161 -43t13 -124q29 -54 57 -100t59 -98t99 -161t114 -187q46 66 151 232q105 167 119 192t46 80t32 97q0 41 -23 66t-73 34q-50 8 -78 12v21h473v-21q-105 -15 -164 -72t-115 -143t-100 -153t-120 -187q-77 -120 -126 -190v-412
q0 -164 27 -202t75 -52t95 -23v-20h-631v20q53 6 93 20t85 64q10 10 22 68t11 483q-4 6 -25 39q-20 33 -50 81q-30 47 -66 107t-99 162q-64 102 -96 151q-31 48 -77 120t-114 117q-32 20 -73 22v21zM881 1591l-25 -14l-186 227l-185 -227l-24 14l194 348h31z" />
    <glyph glyph-name="ycircumflex" unicode="&#x177;" horiz-adv-x="851" 
d="M214 -492q-44 0 -79 26t-35 67t25 67t65 27q40 0 69 -25q28 -25 56 -51h4q23 55 40 109q56 180 63 215q-4 8 -24 61t-144 391q-125 338 -184 502q-18 21 -44 33t-96 16v23h447v-23q-43 -6 -75 -16t-32 -45t58 -195l85 -231q27 -73 51 -139t42 -115q6 16 22 69t95 305
t82 289q2 37 -14 53t-48 20q-32 3 -51 5v23h315v-23q-71 -6 -93 -14t-38 -26t-26 -50t-33 -104t-53 -169t-68 -214q-37 -117 -80 -256t-143 -457q-25 -78 -70 -113t-89 -35zM627 1085l-25 -14l-186 227l-185 -227l-24 14l194 349h31z" />
    <glyph glyph-name="Ydieresis" unicode="&#x178;" horiz-adv-x="1329" 
d="M-51 1475h620v-21q-122 -8 -150 -33.5t-28 -52.5t29.5 -81t57.5 -100t58.5 -98.5t90.5 -146.5t123 -201q27 39 65.5 99.5t110 172t89.5 144.5q19 33 31.5 54.5t32 63t19.5 75.5q0 56 -44 74t-130 30v21h473v-21q-104 -15 -164 -72t-115 -143q-56 -86 -99.5 -152.5
t-125 -193.5t-121.5 -184v-412q0 -164 27 -202t76 -52t94 -23v-20h-631v20q53 6 92 19.5t86 64.5q24 24 28.5 177.5t4.5 373.5q-4 6 -24.5 39t-50.5 81t-65.5 107.5t-99.5 162.5t-95 150q-32 48 -98 151t-167 108v21zM641 1700q0 -39 -27.5 -66.5t-66.5 -27.5t-66.5 27.5
t-27.5 66.5t27.5 66.5t66.5 27.5t66.5 -27.5t27.5 -66.5zM1004 1700q0 -39 -28 -66.5t-67 -27.5t-66.5 27.5t-27.5 66.5t27.5 66.5t66.5 27.5t67 -27.5t28 -66.5z" />
    <glyph glyph-name="Zacute" unicode="&#x179;" horiz-adv-x="1421" 
d="M178 1477q102 -7 434 -7h731l7 -12l-1035 -1421q101 -2 185 -2h166q104 0 202 10q304 33 533 424l22 -8l-147 -461h-1235l-8 14l1036 1424h-231q-196 0 -273 -4q-172 -9 -314 -155q-123 -123 -200 -247l-22 8zM879 1892l-287 -313l-21 12l213 361q46 0 64 -16t31 -33v-11
z" />
    <glyph glyph-name="zacute" unicode="&#x17a;" horiz-adv-x="886" 
d="M561 39q205 0 277 168q20 49 36 100l21 -2l-27 -311h-18q-4 6 -21 6l-84 4h-227l-299 -2h-170l-6 14l571 912h-276q-138 0 -196 -48q-30 -26 -48 -67t-39 -100l-20 4l37 282l18 2q18 -27 52 -32q32 -4 138 -4h250l297 2l2 -19l-577 -909h309zM618 1417l-286 -313l-21 12
l213 361q46 -1 64 -17t30 -33v-10z" />
    <glyph glyph-name="Zdotaccent" unicode="&#x17b;" horiz-adv-x="1421" 
d="M178 1477q102 -7 434 -7h731l7 -12l-1035 -1421q101 -2 185 -2h166q104 0 202 10q304 33 533 424l22 -8l-147 -461h-1235l-8 14l1036 1424h-231q-196 0 -273 -4q-172 -9 -314 -155q-123 -123 -200 -247l-22 8zM829 1683q-1 -43 -31 -73t-72 -31q-42 0 -74 32
q-32 31 -32 73t31 72t74 30t73 -30t31 -73z" />
    <glyph glyph-name="zdotaccent" unicode="&#x17c;" horiz-adv-x="886" 
d="M561 39q205 0 277 168q20 49 36 100l21 -2l-27 -311h-18q-4 6 -21 6l-84 4h-227l-299 -2h-170l-6 14l571 912h-276q-138 0 -196 -48q-30 -26 -48 -67t-39 -100l-20 4l37 282l18 2q18 -27 52 -32q32 -4 138 -4h250l297 2l2 -19l-577 -909h309zM569 1208q-1 -44 -31 -74
t-72 -30t-74 32t-32 74t31 71q31 30 74 30t73 -30t31 -73z" />
    <glyph glyph-name="Zcaron" unicode="&#x17d;" horiz-adv-x="1421" 
d="M178 1477q102 -7 434 -7h731l7 -12l-1035 -1421q92 -2 115 -2h236q104 0 202 10q304 33 533 424l22 -8l-147 -461h-1235l-8 14l1036 1424h-213q-213 0 -291 -4q-170 -9 -304.5 -145t-209.5 -257l-22 8zM954 1898l-217 -333h-30l-218 333l27 15l207 -213l205 213z" />
    <glyph glyph-name="zcaron" unicode="&#x17e;" horiz-adv-x="886" 
d="M561 39q206 0 251.5 108.5t61.5 159.5l21 -2l-27 -311h-18q-4 6 -8 6l-107 2q-103 2 -131 2l-385 -2h-170l-6 14l571 912h-276q-139 0 -182 -37t-61.5 -78t-39.5 -100l-20 4l37 282l18 2q18 -36 149 -36h73l515 2l2 -19l-577 -909h309zM653 1405l-194 -348h-31l-195 348
l25 14l184 -227l187 227z" />
    <glyph glyph-name="longs" unicode="&#x17f;" horiz-adv-x="552" 
d="M776 1378q0 -34 -24 -64t-71 -30q-48 0 -100 65q-22 27 -41 51t-44 32q-83 0 -122 -90q-24 -53 -26 -176t-4 -1086q10 -46 116 -53q30 -2 60 -7v-20h-520v20q174 15 174 66v793h-147l22 90h127q0 232 28 288q53 105 162 165q109 63 242 65q70 0 114 -25q54 -27 54 -84z
" />
    <glyph glyph-name="uni0186" unicode="&#x186;" horiz-adv-x="1589" 
d="M178 1372q4 0 37 22q167 111 485 111q152 0 306 -54q154 -53 262 -153q222 -205 221 -542q0 -212 -121 -414q-148 -241 -450 -322q-109 -28 -238 -28q-206 1 -375 71q-61 27 -94 50t-42 22t-43 -40t-46 -58h-23v459l25 2q56 -205 212 -339q155 -134 351 -132
q141 0 252 63q215 122 300 405q40 132 40 275q0 298 -165 499q-165 202 -431 204q-204 0 -360 -136t-197 -323h-25l7 450h24q66 -92 88 -92z" />
    <glyph glyph-name="florin" unicode="&#x192;" horiz-adv-x="1101" 
d="M1100 1253q0 -31 -15.5 -54t-47.5 -23t-70 14q-23 72 -51 116t-82 44t-88.5 -30t-62.5 -77t-49.5 -104.5t-35.5 -113.5t-23.5 -103.5t-15.5 -75.5h287l-23 -70h-278q-29 -119 -89.5 -415.5t-145 -473t-181 -237t-189.5 -60.5t-125 44t-32 73t19.5 47.5t45.5 18.5
q56 0 74 -56q28 -82 84 -82q106 0 180 276t126.5 546t60.5 325h-199l19 64h196q75 386 228 464.5t257 78.5t165 -35t61 -101z" />
    <glyph glyph-name="Ohorn" unicode="&#x1a0;" horiz-adv-x="1654" 
d="M1341 743q0 280 -128 485q-148 234 -388 232q-133 0 -230 -64q-189 -126 -252 -400q-30 -130 -30 -266q0 -293 137 -501t381 -209q129 0 225 66q95 66 158 169q127 208 127 488zM850 1495q326 0 534 -215q150 16 201 110q18 32 8 52q-72 -47 -131 28q-27 35 -20 74
q6 39 49 71q43 31 91 19t77 -51t34 -78q10 -81 -43 -151q-84 -113 -227 -113h-2q174 -210 174 -493q0 -164 -61 -304q-125 -285 -413 -399q-140 -55 -297 -55t-296 54q-284 110 -408 391q-60 138 -60 309q0 172 62 312q126 278 424 387q144 52 304 52z" />
    <glyph glyph-name="ohorn" unicode="&#x1a1;" horiz-adv-x="1292" 
d="M753 191q64 137 64 311q0 173 -65 299q-80 155 -234 155q-127 0 -207 -140t-82 -327q0 -320 164 -429q57 -38 137 -38q144 0 223 169zM1008 496q0 -98 -39 -192q-81 -194 -257 -271q-88 -39 -176 -39q-193 0 -332 120q-165 140 -165 388q0 194 139 340q139 147 354 147
q179 0 319 -122q64 -55 116 -160q4 2 6 2q70 6 137 55q27 20 45 52t8 52q-71 -47 -131 29q-27 35 -20 74q6 39 49 71t91 19q48 -12 77 -51q53 -71 29 -152t-94 -136q-70 -54 -171 -54h-10q25 -74 25 -172z" />
    <glyph glyph-name="uni01A7" unicode="&#x1a7;" horiz-adv-x="1239" 
d="M644 1497q205 0 347 -110t142 -318q0 -121 -78 -224t-193 -147q-47 -18 -81 -29q-33 -11 -65 -23t-69 -23q-185 -60 -242 -115q-79 -78 -79 -203q0 -123 94 -207t246 -84q99 0 202 56q114 58 207 232q29 52 47 108h21l-6 -408h-19q-50 72 -63 72q-6 0 -50 -27t-142 -44
q-99 -17 -207 -17q-236 0 -382 112q-145 112 -145 305q0 282 293 392q39 14 75 26l141 47q169 56 241 128q71 71 71 193t-86 198q-86 77 -221 77q-215 0 -352 -236q-39 -67 -64 -134h-22v379h22q49 -76 62 -74q2 0 42 28t129 49t184 21z" />
    <glyph glyph-name="uni01A8" unicode="&#x1a8;" horiz-adv-x="782" 
d="M55 311q0 92 65 164t156 94q38 9 92 21t110 25t98 47t42 94q0 149 -117 192q-88 31 -170 -7q-81 -38 -143 -149q-29 -52 -57 -114l-16 4l24 254q136 53 277 53t236 -79t93 -199q0 -92 -48 -158t-128 -93t-196 -48q-70 -14 -110 -56t-40 -106q1 -117 59 -173
q58 -57 141 -57t132 30q117 72 184 280h17v-271q-138 -63 -318 -63q-260 0 -351 165q-32 58 -32 150z" />
    <glyph glyph-name="Uhorn" unicode="&#x1af;" horiz-adv-x="1855" 
d="M1421 670v348q0 235 -21 293q-43 118 -220 143v21h479q94 30 131 97q18 32 8 52q-71 -47 -131 29q-27 35 -21 73t50 71q43 32 91 20q48 -11 77 -51q30 -40 34 -78q9 -80 -44 -152q-81 -110 -226 -113h-45q-79 -40 -94 -139t-21 -365q-6 -265 -12 -383t-22 -185
q-89 -374 -574 -371q-472 0 -570 351q-24 85 -24 185l2 354v347q0 130 -30 165q-50 59 -166 72v21h610v-21q-81 -11 -114 -33q-68 -44 -72 -141q-4 -96 -4 -164v-407l2 -185q4 -218 118 -349q115 -130 323 -130t328 100q135 117 153 382q5 73 5 143z" />
    <glyph glyph-name="uhorn" unicode="&#x1b0;" horiz-adv-x="1261" 
d="M731 819q0 73 -20 101q-40 16 -154 26v23h344v-303q27 0 51 2q70 6 138 55q27 20 45 52t8 52q-73 -48 -131 29q-27 35 -21 74q6 38 49 70q44 32 92 20t76 -51t34 -78q10 -80 -43 -152q-82 -112 -226 -112q-37 0 -72 4v-471q-1 -29 19 -41q20 -13 56 -29l60 -27v-12
l-291 -53h-14v207l-2 2q-140 -213 -328 -213q-254 0 -256 305v522q0 13 -2 29t-3 30q-4 59 -101 63q-20 1 -39 3v23h317v-596q0 -135 41 -200t161 -65t212 128v583z" />
    <glyph glyph-name="clickdental" unicode="&#x1c0;" horiz-adv-x="503" 
d="M170 -43v1640h164v-1640h-164z" />
    <glyph glyph-name="clicklateral" unicode="&#x1c1;" horiz-adv-x="1007" 
d="M170 -43v1640h164v-1640h-164zM674 -43v1640h164v-1640h-164z" />
    <glyph glyph-name="clickretroflex" unicode="&#x1c3;" horiz-adv-x="620" 
d="M442 113q0 -53 -34 -83t-86 -30q-53 0 -89 32q-35 32 -34 85q0 53 34 89q35 36 89 36t86 -38q34 -38 34 -91zM320 1458q43 0 86 -108t43 -199q-2 -6 -29 -73t-51 -269q-25 -202 -33 -418h-25q-14 376 -56 555q-42 178 -65 205q0 47 20 133t55 130q33 44 55 44z" />
    <glyph glyph-name="DZcaron" unicode="&#x1c4;" horiz-adv-x="3166" 
d="M940 1425q-97 19 -186 19t-125 -4q-37 -4 -61 -6t-38 -7q-14 -139 -14 -483v-452q0 -295 26 -360q35 -101 242 -101q376 0 538 271q110 184 110 439t-142 451t-350 233zM862 1477q247 0 404 -70q290 -125 384 -413q33 -102 33 -246q0 -283 -137 -461q-116 -155 -305 -221
t-410 -66h-747v20q119 14 172 76q12 12 22 79t11 144l4 306v592q0 132 -31 167q-50 57 -170 70v21l639 2h131zM1923 1477q101 -7 434 -7h731l7 -12l-1035 -1421q102 -2 186 -2h164q105 0 203 10q304 33 533 424l22 -8l-147 -461h-1235l-8 14l1036 1424h-230q-195 0 -274 -4
q-172 -9 -314 -155q-131 -131 -200 -247l-22 8zM2681 1927l-195 -348h-30l-195 348l25 15l184 -228l186 228z" />
    <glyph glyph-name="Dzcaron" unicode="&#x1c5;" horiz-adv-x="2721" 
d="M940 1425q-97 19 -186 19t-125 -4q-37 -4 -61 -6t-38 -7q-14 -139 -14 -483v-452q0 -295 26 -360q35 -101 242 -101q376 0 538 271q110 184 110 439t-142 451t-350 233zM862 1477q247 0 404 -70q290 -125 384 -413q33 -102 33 -246q0 -283 -137 -461q-116 -155 -305 -221
t-410 -66h-747v20q119 14 172 76q12 12 22 79t11 144l4 306v592q0 132 -31 167q-50 57 -170 70v21l639 2h131zM2306 39q205 0 277 168q20 49 36 100l21 -2l-27 -311h-18q-4 6 -21 6l-84 4h-227l-299 -2h-170l-6 14l571 912h-276q-138 0 -196 -48q-30 -26 -48 -67t-39 -100
l-20 4l37 282l18 2q18 -27 51 -32q33 -4 139 -4h250l297 2l2 -19l-577 -909h309zM2421 1452l-195 -348h-31l-194 348l24 14l185 -227l186 227z" />
    <glyph glyph-name="dzcaron" unicode="&#x1c6;" horiz-adv-x="2095" 
d="M520 950q-137 0 -219 -135q-70 -115 -71 -301t86 -313t237 -127q85 0 145 57t76 145v488q-45 84 -115 135q-69 51 -139 51zM774 199q-116 -201 -320 -201q-186 0 -300 129q-115 129 -115 350q0 220 144 366q146 146 378 146q110 0 215 -35q-4 62 -4 155v212l-168 63v13
l326 90h16v-1329q2 -1 146 -64v-14l-304 -86h-12v205h-2zM1679 39q208 0 277 168q20 49 37 100l20 -2l-26 -311h-19q-4 6 -20 6l-84 4h-228l-299 -2h-170l-6 14l572 912h-277q-139 0 -195 -48q-31 -26 -49 -67t-38 -100l-21 4l37 282l18 2q18 -27 52 -32q33 -4 139 -4h250
l297 2l2 -19l-578 -909h309zM1794 1452l-195 -348h-30l-195 348l25 14l184 -227l186 227z" />
    <glyph glyph-name="LJ" unicode="&#x1c7;" horiz-adv-x="2267" 
d="M1229 120q103 70 160 190q27 56 51 118l20 -6l-76 -422h-1314v20q129 20 180 78q18 21 28 90q11 69 11 131l4 306v587q0 131 -30 165q-55 63 -179 77v21h653v-21q-88 -13 -127 -35q-85 -48 -87 -132q-3 -85 -4 -144t-2 -117t-1 -118v-373l2 -236q2 -66 5 -125t22 -88
q16 -20 94 -38q78 -17 146 -17q314 0 444 89zM2032 270q0 -68 -33 -116t-93 -93q-119 -92 -259 -92q-72 -1 -110 23q-67 41 -68 105q-1 63 36 93t81 31q44 0 74 -30t30 -70q0 -84 -101 -96v-7q19 -28 67 -28q124 0 143 215q5 57 7 114l2 185v713q0 139 -28 173t-79 46
q-50 12 -104 18v21h631v-21q-43 -6 -94 -22q-50 -16 -72 -58t-24 -95q-2 -54 -4 -101l-2 -203v-705z" />
    <glyph glyph-name="Lj" unicode="&#x1c8;" horiz-adv-x="1953" 
d="M1229 120q103 70 160 190q27 56 51 118l20 -6l-76 -422h-1314v20q129 20 180 78q18 21 28 90q11 69 11 131l4 306v587q0 131 -30 165q-55 63 -179 77v21h653v-21q-88 -13 -127 -35q-85 -48 -87 -132q-3 -85 -4 -144t-2 -117t-1 -118v-373l2 -236q2 -66 5 -125t22 -88
q16 -20 94 -38q78 -17 146 -17q314 0 444 89zM1802 -125q0 -53 -35 -118q-72 -134 -216 -213q-71 -38 -120 -38q-83 0 -137 34q-53 34 -53 86q0 106 102 106q43 0 63 -26t32 -58t26 -58q14 -27 49 -28q100 20 107 177q2 42 6 121t4 230v666q0 24 -18 41q-18 16 -52 34
t-59 33v15l287 110h12v-305l2 -477v-332zM1817 1309q0 -47 -32 -79t-78 -32t-79 33t-33 79t32 76t79 31q47 -1 79 -31t32 -77z" />
    <glyph glyph-name="lj" unicode="&#x1c9;" horiz-adv-x="1007" 
d="M492 0h-478v23q94 6 125 19t31 46v1178q0 27 -20 43q-18 9 -56 31t-61 32v12l293 97h14v-1403q0 -37 37 -45q18 -4 47 -5t68 -5v-23zM856 -125q0 -53 -35 -118q-72 -134 -216 -213q-71 -38 -120 -38q-83 0 -137 34q-53 34 -53 86q0 106 102 106q43 0 63 -26t32 -58
t26 -58q14 -27 49 -28q96 20 107 177q2 42 6 121t4 230v666q0 24 -18 41q-18 16 -52 34t-59 33v15l287 110h12v-305l2 -477v-332zM870 1309q0 -47 -32 -79t-77 -32q-46 0 -79 33t-33 79t32 76t79 31q46 -1 78 -31t32 -77z" />
    <glyph glyph-name="NJ" unicode="&#x1ca;" horiz-adv-x="2609" 
d="M1505 12q0 -18 -18 -18t-39 20q-174 201 -527 615t-583 674v-865q0 -252 27 -306t75 -78t131 -34v-20h-503v20q129 16 176 91q29 43 37 127q20 210 20 557v358q0 41 -2 100q-11 107 -82 157q-47 33 -135 44v21h416l970 -1135v696q0 82 -2 157t-20 125q-40 110 -221 136
v21h508v-21q-147 -19 -187 -113q-20 -45 -24 -128t-12 -235t-7 -308v-230l2 -295v-133zM2374 270q0 -68 -33 -116t-93 -93q-119 -92 -259 -92q-72 -1 -110 23q-67 41 -68 105q-1 63 36 93t81 31q44 0 74 -30t30 -70q0 -84 -101 -96v-7q19 -28 67 -28q124 0 143 215
q5 57 7 114l2 185v713q0 139 -28 173t-79 46q-50 12 -104 18v21h631v-21q-43 -6 -94 -22q-50 -16 -72 -58t-24 -95q-2 -54 -4 -101l-2 -203v-705z" />
    <glyph glyph-name="Nj" unicode="&#x1cb;" horiz-adv-x="2295" 
d="M1505 12q0 -18 -18 -18t-39 20q-174 201 -527 615t-583 674v-865q0 -252 27 -306t75 -78t131 -34v-20h-503v20q129 16 176 91q29 43 37 127q20 210 20 557v358q0 41 -2 100q-11 107 -82 157q-47 33 -135 44v21h416l970 -1135v696q0 82 -2 157t-20 125q-40 110 -221 136
v21h508v-21q-147 -19 -187 -113q-20 -45 -24 -128t-12 -235t-7 -308v-230l2 -295v-133zM2144 -125q0 -53 -35 -118q-72 -134 -216 -213q-71 -38 -120 -38q-83 0 -137 34q-53 34 -53 86q0 106 103 106q43 0 63 -26q19 -26 31 -58t26 -58q14 -27 49 -28q100 20 107 177
q2 42 6 121t4 230v666q0 24 -18 41q-18 16 -52 34t-59 33v15l287 110h12v-305l2 -477v-332zM2159 1309q0 -47 -32 -79t-78 -32t-79 33t-33 79t32 76t79 31q47 -1 79 -31t32 -77z" />
    <glyph glyph-name="nj" unicode="&#x1cc;" horiz-adv-x="1570" 
d="M172 86v705q0 27 -20 43q-53 29 -93 47v12l269 96h12v-221l4 -2q62 94 119 137q117 88 225 87q109 -1 172 -89t64 -227v-602q0 -36 85 -48q22 -3 40 -6v-18h-418v23q55 4 88 13t33 42v516q0 264 -197 264q-68 0 -113 -29t-100 -84v-671q9 -45 72 -48q18 -1 39 -6v-20
h-396v20q115 10 115 66zM1419 -125q0 -53 -35 -118q-72 -134 -216 -213q-71 -38 -120 -38q-83 0 -137 34q-53 34 -53 86q0 106 103 106q43 0 63 -26t32 -58t25 -58q14 -27 49 -28q100 20 107 177q2 42 6 121t4 230v666q0 24 -18 41q-18 16 -52 34t-59 33v15l287 110h12v-305
l2 -477v-332zM1434 1309q0 -47 -32 -79t-78 -32t-79 33t-33 79t32 76t79 31q47 -1 79 -31t32 -77z" />
    <glyph glyph-name="Acaron" unicode="&#x1cd;" horiz-adv-x="1441" 
d="M641 1241q-81 -181 -262 -633h510q-35 92 -71 184t-69 178l-62 155q-28 71 -46 116zM1507 0h-598v20q32 0 68 14q74 29 76 81q0 73 -148 450h-545q-32 -79 -60 -149t-64 -162t-35 -126q0 -36 24 -61t71 -34q48 -8 75 -13v-20h-437v23q54 7 92 29t48 33q45 50 106 184
q60 134 168 385t164 385q57 134 106 249l-20 45q110 48 180 170h17q108 -292 195 -524q87 -233 136 -365q155 -418 196 -480q70 -104 185 -109v-25zM932 1954l-195 -348h-30l-195 348l25 14l184 -227l186 227z" />
    <glyph glyph-name="acaron" unicode="&#x1ce;" horiz-adv-x="917" 
d="M571 242v315q-37 -27 -92 -57t-107 -64q-52 -35 -90 -77t-38 -95t37 -96t93 -43q114 0 173 59q24 23 24 58zM840 131q82 0 100 70h12q-4 -80 -60 -141q-56 -62 -134 -62t-132 41t-55 143l-4 2q-39 -66 -93 -108q-98 -76 -212 -76q-115 0 -163 102q-17 36 -17 92
q0 103 151 199q151 95 205 125q54 29 84 44t49 28v211q0 19 -24 43q-52 51 -127 51q-76 0 -129 -40q-53 -36 -53 -64v-93q0 -30 -30 -52t-64 -22t-58 24t-23 52q0 28 18 56q18 29 52 49q35 20 69 41t113 61q78 40 147 61q70 21 110 21q40 1 87 -27t68 -69q12 -21 12 -121
l-4 -489q0 -92 32 -122t73 -30zM719 1440l-195 -348h-30l-195 348l25 14l184 -227l186 227z" />
    <glyph glyph-name="Icaron" unicode="&#x1cf;" horiz-adv-x="817" 
d="M520 289q0 -59 2 -115t23 -84q21 -29 73 -47t97 -23v-20h-621v20q115 18 170 80q29 35 29 219l4 306v592q0 132 -30 166q-51 58 -167 71v21h613v-21q-43 -6 -92 -22q-91 -30 -96 -154q-1 -53 -3 -100l-2 -203v-686zM614 1925l-194 -348h-31l-194 348l24 14l184 -227
l187 227z" />
    <glyph glyph-name="icaron" unicode="&#x1d0;" horiz-adv-x="520" 
d="M176 86v711q0 16 -2 24q-5 18 -117 64v14l277 90h12v-915q9 -44 89 -48q22 -1 42 -6v-20h-440v20q139 11 139 66zM467 1440l-195 -348h-30l-195 348l25 14l184 -227l186 227z" />
    <glyph glyph-name="Ocaron" unicode="&#x1d1;" horiz-adv-x="1654" 
d="M1341 743q0 280 -128 485q-148 234 -388 232q-133 0 -230 -64q-189 -126 -252 -400q-30 -130 -30 -266q0 -293 137 -501t381 -209q129 0 225 66q95 66 158 169q127 208 127 488zM1595 740q0 -156 -61 -296q-125 -285 -413 -399q-140 -55 -297 -55t-296 54
q-284 110 -408 391q-60 138 -60 309q0 172 62 312q126 278 424 387q144 52 311 52t305 -61t235 -165q198 -212 198 -529zM1038 1946l-194 -349h-31l-195 349l25 14l184 -227l187 227z" />
    <glyph glyph-name="ocaron" unicode="&#x1d2;" horiz-adv-x="1046" 
d="M753 191q64 137 64 311q0 173 -65 299q-80 155 -234 155q-127 0 -207 -140t-82 -327q0 -320 164 -429q57 -38 137 -38q144 0 223 169zM1008 512q0 -114 -39 -208q-81 -194 -257 -271q-88 -39 -176 -39q-193 0 -332 120q-165 140 -165 388q0 194 139 340q139 147 354 147
q179 0 319 -122q69 -60 113 -151q44 -90 44 -204zM733 1440l-194 -348h-31l-195 348l25 14l184 -227l187 227z" />
    <glyph glyph-name="Ucaron" unicode="&#x1d3;" horiz-adv-x="1708" 
d="M1421 662v356q0 235 -21 293q-43 118 -220 143v21h508v-21q-76 -10 -120 -39q-66 -44 -80 -137t-20 -359q-6 -265 -12 -383t-22 -185q-89 -374 -574 -371q-472 0 -570 351q-24 85 -24 185l2 354v347q0 130 -30 165q-50 59 -166 72v21h610v-21q-81 -11 -114 -33
q-68 -44 -72 -141q-4 -96 -4 -150v-421l2 -185q4 -218 118 -349q115 -130 323 -130t328 100q135 117 153 382q5 73 5 135zM1090 1925l-195 -348h-31l-194 348l24 14l185 -227l186 227z" />
    <glyph glyph-name="ucaron" unicode="&#x1d4;" horiz-adv-x="1071" 
d="M731 819q0 73 -20 101q-40 16 -154 26v23h344v-809q-1 -29 19 -41q20 -13 56 -29l60 -27v-12l-291 -53h-14v207l-2 2q-140 -213 -328 -213q-254 0 -256 305v522q0 13 -2 29t-3 30q-4 59 -101 63q-20 1 -39 3v23h317v-596q0 -135 41 -200t161 -65t212 128v583zM729 1419
l-194 -348h-31l-195 348l25 15l184 -228l187 228z" />
    <glyph glyph-name="Udieresismacron" unicode="&#x1d5;" horiz-adv-x="1708" 
d="M1421 662v356q0 235 -21 293q-43 118 -220 143v21h508v-21q-76 -10 -120 -39q-66 -44 -80 -137t-20 -359q-6 -265 -12 -383t-22 -185q-89 -374 -574 -371q-472 0 -570 351q-24 85 -24 185l2 354v347q0 130 -30 165q-50 59 -166 72v21h610v-21q-81 -11 -114 -33
q-68 -44 -72 -141q-4 -96 -4 -150v-421l2 -185q4 -218 118 -349q115 -130 323 -130t328 100q135 117 153 382q5 73 5 135zM803 1671q0 -39 -28 -67q-29 -28 -67 -27q-38 0 -66 28q-28 29 -28 67t28 66t67 28t67 -28t27 -67zM1145 1671q0 -39 -28 -67q-29 -28 -67 -27
q-38 0 -66 28q-28 29 -28 67t28 66t67 28t67 -28t27 -67zM1167 1868h-575v92h575v-92z" />
    <glyph glyph-name="udieresismacron" unicode="&#x1d6;" horiz-adv-x="1071" 
d="M731 819q0 73 -20 101q-40 16 -154 26v23h344v-809q-1 -29 19 -41q20 -13 56 -29l60 -27v-12l-291 -53h-14v207l-2 2q-140 -213 -328 -213q-254 0 -256 305v522q0 13 -2 29t-3 30q-4 59 -101 63q-20 1 -39 3v23h317v-596q0 -135 41 -200t161 -65t212 128v583zM442 1165
q0 -39 -28 -67t-66 -27q-38 0 -66 28q-28 29 -28 67t28 66t66 28t66 -28t28 -67zM784 1165q0 -39 -28 -67t-66 -27q-38 0 -66 28q-28 29 -28 67t28 66t66 28t66 -28t28 -67zM807 1362h-576v92h576v-92z" />
    <glyph glyph-name="Udieresisacute" unicode="&#x1d7;" horiz-adv-x="1708" 
d="M1421 662v356q0 235 -21 293q-43 118 -220 143v21h508v-21q-76 -10 -120 -39q-66 -44 -80 -137t-20 -359q-6 -265 -12 -383t-22 -185q-89 -374 -574 -371q-472 0 -570 351q-24 85 -24 185l2 354v347q0 130 -30 165q-50 59 -166 72v21h610v-21q-81 -11 -114 -33
q-68 -44 -72 -141q-4 -96 -4 -150v-421l2 -185q4 -218 118 -349q115 -130 323 -130t328 100q135 117 153 382q5 73 5 135zM803 1671q0 -39 -28 -67q-29 -28 -67 -27q-38 0 -66 28q-28 29 -28 67t28 66t67 28t67 -28t27 -67zM1145 1671q0 -39 -28 -67q-29 -28 -67 -27
q-38 0 -66 28q-28 29 -28 67t28 66t67 28t67 -28t27 -67zM1032 2181l-287 -313l-20 12l213 361q45 -1 63 -17t31 -33v-10z" />
    <glyph glyph-name="udieresisacute" unicode="&#x1d8;" horiz-adv-x="1071" 
d="M731 819q0 73 -20 101q-40 16 -154 26v23h344v-809q-1 -29 19 -41q20 -13 56 -29l60 -27v-12l-291 -53h-14v207l-2 2q-140 -213 -328 -213q-254 0 -256 305v522q0 13 -2 29t-3 30q-4 59 -101 63q-20 1 -39 3v23h317v-596q0 -135 41 -200t161 -65t212 128v583zM442 1165
q0 -39 -28 -67t-66 -27q-38 0 -66 28q-28 29 -28 67t28 66t66 28t66 -28t28 -67zM784 1165q0 -39 -28 -67t-66 -27q-38 0 -66 28q-28 29 -28 67t28 66t66 28t66 -28t28 -67zM672 1675l-287 -313l-20 12l213 361q45 -1 63 -17t31 -32v-11z" />
    <glyph glyph-name="Udieresiscaron" unicode="&#x1d9;" horiz-adv-x="1708" 
d="M1421 662v356q0 235 -21 293q-43 118 -220 143v21h508v-21q-76 -10 -120 -39q-66 -44 -80 -137t-20 -359q-6 -265 -12 -383t-22 -185q-89 -374 -574 -371q-472 0 -570 351q-24 85 -24 185l2 354v347q0 130 -30 165q-50 59 -166 72v21h610v-21q-81 -11 -114 -33
q-68 -44 -72 -141q-4 -96 -4 -150v-421l2 -185q4 -218 118 -349q115 -130 323 -130t328 100q135 117 153 382q5 73 5 135zM803 1671q0 -39 -28 -67q-29 -28 -67 -27q-38 0 -66 28q-28 29 -28 67t28 66t67 28t67 -28t27 -67zM1145 1671q0 -39 -28 -67q-29 -28 -67 -27
q-38 0 -66 28q-28 29 -28 67t28 66t67 28t67 -28t27 -67zM1090 2216l-195 -348h-31l-194 348l24 14l185 -227l186 227z" />
    <glyph glyph-name="udieresiscaron" unicode="&#x1da;" horiz-adv-x="1071" 
d="M731 819q0 73 -20 101q-40 16 -154 26v23h344v-809q-1 -29 19 -41q20 -13 56 -29l60 -27v-12l-291 -53h-14v207l-2 2q-140 -213 -328 -213q-254 0 -256 305v522q0 13 -2 29t-3 30q-4 59 -101 63q-20 1 -39 3v23h317v-596q0 -135 41 -200t161 -65t212 128v583zM442 1165
q0 -39 -28 -67t-66 -27q-38 0 -66 28q-28 29 -28 67t28 66t66 28t66 -28t28 -67zM784 1165q0 -39 -28 -67t-66 -27q-38 0 -66 28q-28 29 -28 67t28 66t66 28t66 -28t28 -67zM729 1710l-194 -348h-31l-195 348l25 14l184 -227l187 227z" />
    <glyph glyph-name="Udieresisgrave" unicode="&#x1db;" horiz-adv-x="1708" 
d="M1421 662v356q0 235 -21 293q-43 118 -220 143v21h508v-21q-76 -10 -120 -39q-66 -44 -80 -137t-20 -359q-6 -265 -12 -383t-22 -185q-89 -374 -574 -371q-472 0 -570 351q-24 85 -24 185l2 354v347q0 130 -30 165q-50 59 -166 72v21h610v-21q-81 -11 -114 -33
q-68 -44 -72 -141q-4 -96 -4 -150v-421l2 -185q4 -218 118 -349q115 -130 323 -130t328 100q135 117 153 382q5 73 5 135zM803 1671q0 -39 -28 -67q-29 -28 -67 -27q-38 0 -66 28q-28 29 -28 67t28 66t67 28t67 -28t27 -67zM1145 1671q0 -39 -28 -67q-29 -28 -67 -27
q-38 0 -66 28q-28 29 -28 67t28 66t67 28t67 -28t27 -67zM1030 1880l-20 -12l-281 313v10q13 17 31 33t63 17z" />
    <glyph glyph-name="udieresisgrave" unicode="&#x1dc;" horiz-adv-x="1071" 
d="M731 819q0 73 -20 101q-40 16 -154 26v23h344v-809q-1 -29 19 -41q20 -13 56 -29l60 -27v-12l-291 -53h-14v207l-2 2q-140 -213 -328 -213q-254 0 -256 305v522q0 13 -2 29t-3 30q-4 59 -101 63q-20 1 -39 3v23h317v-596q0 -135 41 -200t161 -65t212 128v583zM442 1165
q0 -39 -28 -67t-66 -27q-38 0 -66 28q-28 29 -28 67t28 66t66 28t66 -28t28 -67zM784 1165q0 -39 -28 -67t-66 -27q-38 0 -66 28q-28 29 -28 67t28 66t66 28t66 -28t28 -67zM670 1374l-21 -12l-280 313v11q12 16 30 32t64 17z" />
    <glyph glyph-name="uni01DD" unicode="&#x1dd;" horiz-adv-x="890" 
d="M258 217q0 -76 52 -130t125 -54t119 34q124 92 155 240h-84l-234 -4q-74 0 -104 -12q-29 -33 -29 -74zM336 852q-102 0 -179 -52t-102 -128l-16 4q20 112 124 212q104 101 261 101q208 0 337 -148q126 -149 126 -349t-122 -347t-312 -147q-261 0 -359 188q-33 63 -39 150
h658l4 82q0 179 -99 306q-99 128 -282 128z" />
    <glyph glyph-name="Adieresismacron" unicode="&#x1de;" horiz-adv-x="1441" 
d="M641 1241q-81 -181 -262 -633h510q-35 92 -71 184t-69 178l-62 155q-28 71 -46 116zM1507 0h-598v20q32 0 68 14q74 29 76 81q0 73 -148 450h-545q-32 -79 -60 -149t-64 -162t-35 -126q0 -36 24 -61t71 -34q48 -8 75 -13v-20h-437v23q54 7 92 29t48 33q45 50 106 184
q60 134 168 385t164 385q57 134 106 249l-20 45q110 48 180 170h17q108 -292 195 -524q87 -233 136 -365q155 -418 196 -480q70 -104 185 -109v-25zM645 1700q0 -39 -28 -67q-29 -27 -67 -27t-66 28t-27 66q-1 38 27 66t67 28t67 -28t27 -66zM987 1700q0 -39 -28 -67
q-29 -27 -67 -27t-66 28t-27 66q-1 38 27 66t67 28t67 -28t27 -66zM1010 1896h-576v93h576v-93z" />
    <glyph glyph-name="adieresismacron" unicode="&#x1df;" horiz-adv-x="917" 
d="M571 242v315q-37 -27 -92 -57t-107 -64q-52 -35 -90 -77t-38 -95t37 -96t93 -43q114 0 173 59q24 23 24 58zM840 131q82 0 100 70h12q-4 -80 -60 -141q-56 -62 -134 -62t-132 41t-55 143l-4 2q-39 -66 -93 -108q-98 -76 -212 -76q-115 0 -163 102q-17 36 -17 92
q0 103 151 199q151 95 205 125q54 29 84 44t49 28v211q0 19 -24 43q-52 51 -127 51q-76 0 -129 -40q-53 -36 -53 -64v-93q0 -30 -30 -52t-64 -22t-58 24t-23 52q0 28 18 56q18 29 52 49q35 20 69 41t113 61q78 40 147 61q70 21 110 21q40 1 87 -27t68 -69q12 -21 12 -121
l-4 -489q0 -92 32 -122t73 -30zM432 1186q0 -39 -28 -67q-28 -27 -66 -27t-67 28q-28 28 -27 66q0 38 28 66t66 28t66 -28t28 -66zM774 1186q0 -39 -28 -67q-28 -27 -66 -27t-67 28q-28 28 -27 66q0 38 28 66t66 28t66 -28t28 -66zM797 1382h-576v93h576v-93z" />
    <glyph glyph-name="Adotmacron" unicode="&#x1e0;" horiz-adv-x="1441" 
d="M641 1241q-81 -181 -262 -633h510q-35 92 -71 184t-69 178l-62 155q-28 71 -46 116zM1507 0h-598v20q32 0 68 14q74 29 76 81q0 73 -148 450h-545q-32 -79 -60 -149t-64 -162t-35 -126q0 -36 24 -61t71 -34q48 -8 75 -13v-20h-437v23q54 7 92 29t48 33q45 50 106 184
q60 134 168 385t164 385q57 134 106 249l-20 45q110 48 180 170h17q108 -292 195 -524q87 -233 136 -365q155 -418 196 -480q70 -104 185 -109v-25zM825 1710q-1 -43 -31 -74q-30 -30 -72 -30t-74 32t-32 73q0 42 31 72q31 29 74 29t74 -29q30 -30 30 -73zM1010 1915h-576
v92h576v-92z" />
    <glyph glyph-name="adotmacron" unicode="&#x1e1;" horiz-adv-x="917" 
d="M571 242v315q-37 -27 -92 -57t-107 -64q-52 -35 -90 -77t-38 -95t37 -96t93 -43q114 0 173 59q24 23 24 58zM840 131q82 0 100 70h12q-4 -80 -60 -141q-56 -62 -134 -62t-132 41t-55 143l-4 2q-39 -66 -93 -108q-98 -76 -212 -76q-115 0 -163 102q-17 36 -17 92
q0 103 151 199q151 95 205 125q54 29 84 44t49 28v211q0 19 -24 43q-52 51 -127 51q-76 0 -129 -40q-53 -36 -53 -64v-93q0 -30 -30 -52t-64 -22t-58 24t-23 52q0 28 18 56q18 29 52 49q35 20 69 41t113 61q78 40 147 61q70 21 110 21q40 1 87 -27t68 -69q12 -21 12 -121
l-4 -489q0 -92 32 -122t73 -30zM612 1196q0 -43 -30 -74q-30 -30 -73 -30q-42 0 -74 32t-32 73q0 42 31 72q31 29 74 29t74 -29q30 -30 30 -73zM797 1401h-576v92h576v-92z" />
    <glyph glyph-name="AEmacron" unicode="&#x1e2;" horiz-adv-x="2080" 
d="M989 631v755h-10q-86 -115 -508 -755h518zM1379 1446q-112 0 -169 -10v-670h41q208 0 296 55q40 25 71 69t59 175h25v-645h-25q-16 66 -47 136t-67 106q-79 71 -268 71h-85v-252q0 -355 31 -402q31 -48 168 -48t225 12q130 17 226 107t180 264l22 -6l-82 -408h-1179v20
q51 8 89 20q68 21 82 80q13 60 13 199q4 70 4 269h-549q-41 -59 -83 -129t-106 -174t-67 -166q0 -44 50 -73q22 -11 49 -16t53 -10v-20h-451v23q55 7 87 29t45 33q65 55 158 186q92 130 255 373t300 446q138 203 218 321q-59 30 -166 43v21h1114l101 -340l-21 -11
q-82 104 -142 174t-114 96t-141 38q-88 14 -200 14zM1671 1577h-575v92h575v-92z" />
    <glyph glyph-name="aemacron" unicode="&#x1e3;" horiz-adv-x="1406" 
d="M374 121q133 0 195 90v344q-37 -27 -134 -79t-148 -106q-49 -55 -49 -108t36 -97t100 -44zM1180 770q0 76 -50 130t-124 54q-122 0 -194 -95q-73 -95 -75 -175h310q74 0 104 12q29 33 29 74zM264 -2q-121 0 -169 102q-17 37 -17 93q0 103 158 206q75 49 190 110t143 79
v213q0 19 -24 43q-52 51 -124 51q-73 0 -130 -38q-53 -32 -53 -66v-93q0 -30 -30 -52t-64 -22t-58 24t-23 52q0 28 18 56q18 29 52 49q35 20 69 41t112 60q77 39 146 61q70 22 110 22q40 -1 89 -29t68 -75q115 106 277 105t266 -88t110 -251h-645l-2 -86q0 -190 98 -310
t273 -120q102 0 179 53t101 129l17 -4q-20 -112 -124 -213q-104 -102 -261 -102q-200 0 -329 146q-38 44 -62 96q-167 -242 -361 -242zM1020 1092h-576v92h576v-92z" />
    <glyph glyph-name="Gcaron" unicode="&#x1e6;" horiz-adv-x="1689" 
d="M1466 459v-299q-49 -42 -169 -86q-408 -150 -762 -34q-308 100 -421 385q-56 140 -56 334t119 391q120 198 355 295q143 58 346 58t378 -68q65 -25 100 -47t39 -22t22 25t45 59h19v-446h-25q-48 190 -164 309q-146 155 -401 155q-131 0 -240 -60t-185 -162
q-158 -212 -157 -524q0 -312 154 -507t422 -197q224 0 317 144q33 56 33 233q0 72 -7 129q-17 140 -208 158v20h600v-20q-106 -12 -135 -59q-19 -31 -19 -164zM1049 1954l-195 -348h-31l-194 348l24 14l185 -227l186 227z" />
    <glyph glyph-name="gcaron" unicode="&#x1e7;" horiz-adv-x="1075" 
d="M897 -212q0 136 -83 177t-300 41q-75 0 -162 -12q-170 -44 -170 -195q0 -117 115 -190q115 -74 234 -74t188 27q70 27 124 90q54 62 54 136zM338 476q62 -75 161 -75q98 1 158 87t60 201t-60 192t-162 76q-103 -1 -160 -84t-58 -202q-1 -120 61 -195zM113 676
q0 133 115 224t271 90t275 -64q41 -13 80 -13t82 23t79 24q37 0 59 -24t22 -57t-22 -57t-49 -23t-95 34q-68 34 -115 64l-8 -8q31 -47 53 -88t21 -107q0 -162 -113 -242t-311 -81l-129 8q-66 -4 -105 -31q-39 -28 -39 -64q0 -112 211 -112h328q139 0 226 -83t85 -202
q0 -163 -153 -281t-379 -118q-225 0 -349 67t-124 174t162 213q44 28 88 54v4q-216 25 -218 184q0 76 70 138q70 61 172 73v6q-190 74 -190 275zM772 1440l-194 -348h-31l-195 348l25 14l184 -227l187 227z" />
    <glyph glyph-name="Kcaron" unicode="&#x1e8;" horiz-adv-x="1570" 
d="M1090 1333q0 101 -136 121v21h549v-21q-105 -10 -211 -88t-183 -148t-122 -116q-45 -45 -89 -90t-86 -87t-77 -79q51 -64 175 -203q274 -308 352 -396t140 -138q61 -50 100 -65t147 -24v-20h-461q-24 12 -41 33q-513 595 -566 637q-19 14 -35 14t-20 -7q-6 -7 -12 -24
v-202q0 -186 8 -255t31 -99q41 -54 195 -77v-20h-658v20q127 20 170 70q31 37 31 229l2 185v639q0 77 -5 143t-31 98q-48 58 -161 70v21h635v-21q-39 -4 -76 -11q-128 -24 -135 -235q-4 -94 -4 -164v-335q133 82 483 462q91 107 91 162zM1079 1925l-194 -348h-31l-195 348
l25 14l184 -227l187 227z" />
    <glyph glyph-name="kcaron" unicode="&#x1e9;" horiz-adv-x="999" 
d="M682 63q0 12 -75 130t-172 249q-31 43 -55 43t-36 -6v-401q0 -44 74 -51q20 -2 41 -7v-20h-408v20q47 4 85 16t38 50v1157q0 16 -3 28t-46 35t-70 37v13l273 125h16v-979q234 195 356 335q39 44 39 58q0 13 -16 23q-50 30 -148 30v21h502v-21q-91 0 -210 -49
q-51 -20 -105 -66q-54 -47 -117 -105l-119 -110q235 -358 309 -453q73 -95 121 -132q43 -11 125 -13v-20h-495v20q40 2 68 8t28 35zM776 1931l-194 -348h-31l-195 348l25 15l184 -228l187 228z" />
    <glyph glyph-name="Oogonek" unicode="&#x1ea;" horiz-adv-x="1654" 
d="M1341 743q0 280 -128 485q-148 234 -388 232q-133 0 -230 -64q-189 -126 -252 -400q-30 -130 -30 -266q0 -293 137 -501t381 -209q129 0 225 66q95 66 158 169q127 208 127 488zM1595 740q0 -156 -61 -296q-125 -285 -413 -399q-140 -55 -297 -55t-296 54
q-284 110 -408 391q-60 138 -60 309q0 172 62 312q126 278 424 387q144 52 311 52t305 -61t235 -165q198 -212 198 -529zM798 -465q-56 0 -106 45q-49 46 -49 104q0 130 152 254q39 32 71 52h31v-4q-48 -31 -92 -100q-45 -69 -45 -127q0 -134 110 -134q53 1 78 21t47 55
l17 -8q-8 -25 -26 -52q-38 -63 -85 -84q-47 -22 -103 -22z" />
    <glyph glyph-name="oogonek" unicode="&#x1eb;" horiz-adv-x="1046" 
d="M753 191q64 137 64 311q0 173 -65 299q-80 155 -234 155q-127 0 -207 -140t-82 -327q0 -320 164 -429q57 -38 137 -38q144 0 223 169zM1008 512q0 -114 -39 -208q-81 -194 -257 -271q-88 -39 -176 -39q-193 0 -332 120q-165 140 -165 388q0 194 139 340q139 147 354 147
q179 0 319 -122q69 -60 113 -151q44 -90 44 -204zM338 -312q0 127 151 254q39 32 72 52h31v-4q-48 -31 -92 -100q-45 -69 -45 -127q0 -134 110 -134q53 1 78 21t47 55l17 -8q-18 -56 -55 -92q-67 -64 -142 -65q-74 -1 -123 44q-49 46 -49 104z" />
    <glyph glyph-name="Oogonekmacron" unicode="&#x1ec;" horiz-adv-x="1654" 
d="M1341 743q0 280 -128 485q-148 234 -388 232q-133 0 -230 -64q-189 -126 -252 -400q-30 -130 -30 -266q0 -293 137 -501t381 -209q129 0 225 66q95 66 158 169q127 208 127 488zM1595 740q0 -156 -61 -296q-125 -285 -413 -399q-140 -55 -297 -55t-296 54
q-284 110 -408 391q-60 138 -60 309q0 172 62 312q126 278 424 387q144 52 311 52t305 -61t235 -165q198 -212 198 -529zM798 -465q-56 0 -106 45q-49 46 -49 104q0 130 152 254q39 32 71 52h31v-4q-48 -31 -92 -100q-45 -69 -45 -127q0 -134 110 -134q53 1 78 21t47 55
l17 -8q-8 -25 -26 -52q-38 -63 -85 -84q-47 -22 -103 -22zM1116 1597h-575v93h575v-93z" />
    <glyph glyph-name="oogonekmacron" unicode="&#x1ed;" horiz-adv-x="1046" 
d="M753 191q64 137 64 311q0 173 -65 299q-80 155 -234 155q-127 0 -207 -140t-82 -327q0 -320 164 -429q57 -38 137 -38q144 0 223 169zM1008 512q0 -114 -39 -208q-81 -194 -257 -271q-88 -39 -176 -39q-193 0 -332 120q-165 140 -165 388q0 194 139 340q139 147 354 147
q179 0 319 -122q69 -60 113 -151q44 -90 44 -204zM338 -312q0 127 151 254q39 32 72 52h31v-4q-48 -31 -92 -100q-45 -69 -45 -127q0 -134 110 -134q53 1 78 21t47 55l17 -8q-18 -56 -55 -92q-67 -64 -142 -65q-74 -1 -123 44q-49 46 -49 104zM811 1092h-575v92h575v-92z
" />
    <glyph glyph-name="uni01F0" unicode="&#x1f0;" horiz-adv-x="503" 
d="M352 -125q0 -53 -35 -118q-72 -134 -216 -213q-71 -38 -120 -38q-83 0 -137 34q-53 34 -53 86q0 106 103 106q43 0 63 -26q19 -26 31 -58t26 -58q14 -27 49 -28q100 20 107 177q2 42 6 121t4 230v666q0 24 -18 41q-18 16 -52 34t-59 33v15l287 110h12v-305l2 -477v-332z
M467 1440l-195 -348h-30l-195 348l25 14l184 -227l186 227z" />
    <glyph glyph-name="DZ" unicode="&#x1f1;" horiz-adv-x="3166" 
d="M940 1425q-97 19 -186 19t-125 -4q-37 -4 -61 -6t-38 -7q-14 -139 -14 -483v-452q0 -295 26 -360q35 -101 242 -101q376 0 538 271q110 184 110 439t-142 451t-350 233zM862 1477q247 0 404 -70q290 -125 384 -413q33 -102 33 -246q0 -283 -137 -461q-116 -155 -305 -221
t-410 -66h-747v20q119 14 172 76q12 12 22 79t11 144l4 306v592q0 132 -31 167q-50 57 -170 70v21l639 2h131zM1923 1477q101 -7 434 -7h731l7 -12l-1035 -1421q102 -2 186 -2h164q105 0 203 10q304 33 533 424l22 -8l-147 -461h-1235l-8 14l1036 1424h-230q-195 0 -274 -4
q-172 -9 -314 -155q-131 -131 -200 -247l-22 8z" />
    <glyph glyph-name="Dz" unicode="&#x1f2;" horiz-adv-x="2631" 
d="M940 1425q-97 19 -186 19t-125 -4q-37 -4 -61 -6t-38 -7q-14 -139 -14 -483v-452q0 -295 26 -360q35 -101 242 -101q376 0 538 271q110 184 110 439t-142 451t-350 233zM862 1477q247 0 404 -70q290 -125 384 -413q33 -102 33 -246q0 -283 -137 -461q-116 -155 -305 -221
t-410 -66h-747v20q119 14 172 76q12 12 22 79t11 144l4 306v592q0 132 -31 167q-50 57 -170 70v21l639 2h131zM2306 39q205 0 277 168q20 49 36 100l21 -2l-27 -311h-18q-4 6 -21 6l-84 4h-227l-299 -2h-170l-6 14l571 912h-276q-138 0 -196 -48q-30 -26 -48 -67t-39 -100
l-20 4l37 282l18 2q18 -27 51 -32q33 -4 139 -4h250l297 2l2 -19l-577 -909h309z" />
    <glyph glyph-name="dz" unicode="&#x1f3;" horiz-adv-x="2004" 
d="M520 950q-137 0 -219 -135q-70 -115 -71 -301t86 -313t237 -127q85 0 145 57t76 145v488q-45 84 -115 135q-69 51 -139 51zM774 199q-116 -201 -320 -201q-186 0 -300 129q-115 129 -115 350q0 220 144 366q146 146 378 146q110 0 215 -35q-4 62 -4 155v212l-168 63v13
l326 90h16v-1329q2 -1 146 -64v-14l-304 -86h-12v205h-2zM1679 39q208 0 277 168q20 49 37 100l20 -2l-26 -311h-19q-4 6 -20 6l-84 4h-228l-299 -2h-170l-6 14l572 912h-277q-139 0 -195 -48q-31 -26 -49 -67t-38 -100l-21 4l37 282l18 2q18 -27 52 -32q33 -4 139 -4h250
l297 2l2 -19l-578 -909h309z" />
    <glyph glyph-name="Gacute" unicode="&#x1f4;" horiz-adv-x="1689" 
d="M1466 459v-299q-49 -42 -169 -86q-408 -150 -762 -34q-308 100 -421 385q-56 140 -56 334t119 391q120 198 355 295q143 58 346 58t378 -68q65 -25 100 -47t39 -22t22 25t45 59h19v-446h-25q-48 190 -164 309q-146 155 -401 155q-131 0 -240 -60t-185 -162
q-158 -212 -157 -524q0 -312 154 -507t422 -197q224 0 317 144q33 56 33 233q0 72 -7 129q-17 140 -208 158v20h600v-20q-106 -12 -135 -59q-19 -31 -19 -164zM991 1919l-286 -313l-21 12l213 360q45 0 63 -16t31 -33v-10z" />
    <glyph glyph-name="gacute" unicode="&#x1f5;" horiz-adv-x="1075" 
d="M897 -212q0 136 -83 177t-300 41q-75 0 -162 -12q-170 -44 -170 -195q0 -117 115 -190q115 -74 234 -74t188 27q70 27 124 90q54 62 54 136zM338 476q62 -75 161 -75q98 1 158 87t60 201t-60 192t-162 76q-103 -1 -160 -84t-58 -202q-1 -120 61 -195zM113 676
q0 133 115 224t271 90t275 -64q41 -13 80 -13t82 23t79 24q37 0 59 -24t22 -57t-22 -57t-49 -23t-95 34q-68 34 -115 64l-8 -8q31 -47 53 -88t21 -107q0 -162 -113 -242t-311 -81l-129 8q-66 -4 -105 -31q-39 -28 -39 -64q0 -112 211 -112h328q139 0 226 -83t85 -202
q0 -163 -153 -281t-379 -118q-225 0 -349 67t-124 174t162 213q44 28 88 54v4q-216 25 -218 184q0 76 70 138q70 61 172 73v6q-190 74 -190 275zM715 1405l-287 -313l-20 12l213 360q45 0 63 -16t31 -33v-10z" />
    <glyph glyph-name="Ngrave" unicode="&#x1f8;" horiz-adv-x="1792" 
d="M1505 12q0 -18 -18 -18t-39 20q-174 201 -527 615t-583 674v-865q0 -252 27 -306t75 -78t131 -34v-20h-503v20q129 16 176 91q29 43 37 127q20 210 20 557v358q0 41 -2 100q-11 107 -82 157q-47 33 -135 44v21h416l970 -1135v696q0 82 -2 157t-20 125q-40 110 -221 136
v21h508v-21q-147 -19 -187 -113q-20 -45 -24 -128t-12 -235t-7 -308v-230l2 -295v-133zM1051 1589l-21 -12l-280 313v11q12 16 30 32t64 17z" />
    <glyph glyph-name="ngrave" unicode="&#x1f9;" horiz-adv-x="1067" 
d="M172 86v705q0 27 -20 43q-53 29 -93 47v12l269 96h12v-221l4 -2q62 94 119 137q117 88 225 87q109 -1 172 -89t64 -227v-602q0 -36 85 -48q22 -3 40 -6v-18h-418v23q55 4 88 13t33 42v516q0 264 -197 264q-68 0 -113 -29t-100 -84v-671q9 -45 72 -48q18 -1 39 -6v-20
h-396v20q115 10 115 66zM705 1104l-21 -12l-281 313v10q13 17 31 33t64 16z" />
    <glyph glyph-name="Aringacute" unicode="&#x1fa;" horiz-adv-x="1441" 
d="M641 1241q-81 -181 -262 -633h510q-35 92 -71 184t-69 178l-62 155q-28 71 -46 116zM1507 0h-598v20q32 0 68 14q74 29 76 81q0 73 -148 450h-545q-32 -79 -60 -149t-64 -162t-35 -126q0 -36 24 -61t71 -34q48 -8 75 -13v-20h-437v23q54 7 92 29t48 33q45 50 106 184
q60 134 168 385t164 385q57 134 106 249l-20 45q110 48 180 170h17q108 -292 195 -524q87 -233 136 -365q155 -418 196 -480q70 -104 185 -109v-25zM817 1753q0 45 -25 76q-26 31 -70 31t-71 -30t-27 -76t26 -77t71 -31t71 31q25 31 25 76zM569 1752q0 64 44 106t109 43
q66 0 108 -41q42 -42 42 -106t-43 -106t-109 -42t-109 41q-42 41 -42 105zM874 2316l-286 -313l-21 12l213 361q46 0 64 -16t30 -33v-11z" />
    <glyph glyph-name="aringacute" unicode="&#x1fb;" horiz-adv-x="917" 
d="M571 242v315q-37 -27 -92 -57t-107 -64q-52 -35 -90 -77t-38 -95t37 -96t93 -43q114 0 173 59q24 23 24 58zM840 131q82 0 100 70h12q-4 -80 -60 -141q-56 -62 -134 -62t-132 41t-55 143l-4 2q-39 -66 -93 -108q-98 -76 -212 -76q-115 0 -163 102q-17 36 -17 92
q0 103 151 199q151 95 205 125q54 29 84 44t49 28v211q0 19 -24 43q-52 51 -127 51q-76 0 -129 -40q-53 -36 -53 -64v-93q0 -30 -30 -52t-64 -22t-58 24t-23 52q0 28 18 56q18 29 52 49q35 20 69 41t113 61q78 40 147 61q70 21 110 21q40 1 87 -27t68 -69q12 -21 12 -121
l-4 -489q0 -92 32 -122t73 -30zM604 1239q0 45 -25 76q-26 31 -70 31t-71 -30q-26 -30 -26 -76t26 -77t70 -31q45 0 71 31q25 31 25 76zM356 1238q0 64 44 106t109 42t107 -40t43 -106q0 -64 -43 -106q-44 -42 -110 -42t-108 41t-42 105zM662 1802l-287 -313l-21 12l213 361
q45 0 63 -16t32 -34v-10z" />
    <glyph glyph-name="AEacute" unicode="&#x1fc;" horiz-adv-x="2080" 
d="M989 631v755h-10q-86 -115 -508 -755h518zM1379 1446q-112 0 -169 -10v-670h41q208 0 296 55q40 25 71 69t59 175h25v-645h-25q-16 66 -47 136t-67 106q-79 71 -268 71h-85v-252q0 -355 31 -402q31 -48 168 -48t225 12q130 17 226 107t180 264l22 -6l-82 -408h-1179v20
q51 8 89 20q68 21 82 80q13 60 13 199q4 70 4 269h-549q-41 -59 -83 -129t-106 -174t-67 -166q0 -44 50 -73q22 -11 49 -16t53 -10v-20h-451v23q55 7 87 29t45 33q65 55 158 186q92 130 255 373t300 446q138 203 218 321q-59 30 -166 43v21h1114l101 -340l-21 -11
q-82 104 -142 174t-114 96t-141 38q-88 14 -200 14zM1126 1890l-286 -313l-21 12l213 361q46 0 64 -16t30 -33v-11z" />
    <glyph glyph-name="aeacute" unicode="&#x1fd;" horiz-adv-x="1406" 
d="M374 121q133 0 195 90v344q-37 -27 -134 -79t-148 -106q-49 -55 -49 -108t36 -97t100 -44zM1180 770q0 76 -50 130t-124 54q-122 0 -194 -95q-73 -95 -75 -175h310q74 0 104 12q29 33 29 74zM264 -2q-121 0 -169 102q-17 37 -17 93q0 103 158 206q75 49 190 110t143 79
v213q0 19 -24 43q-52 51 -124 51q-73 0 -130 -38q-53 -32 -53 -66v-93q0 -30 -30 -52t-64 -22t-58 24t-23 52q0 28 18 56q18 29 52 49q35 20 69 41t112 60q77 39 146 61q70 22 110 22q40 -1 89 -29t68 -75q115 106 277 105t266 -88t110 -251h-645l-2 -86q0 -190 98 -310
t273 -120q102 0 179 53t101 129l17 -4q-20 -112 -124 -213q-104 -102 -261 -102q-200 0 -329 146q-38 44 -62 96q-167 -242 -361 -242zM885 1405l-287 -313l-20 12l213 360q45 0 63 -16t31 -33v-10z" />
    <glyph glyph-name="Oslashacute" unicode="&#x1fe;" horiz-adv-x="1654" 
d="M1341 745q0 293 -133 496l-739 -1040q134 -179 362 -181q129 0 225 66q184 128 254 401q31 129 31 258zM816 1460q-124 0 -221 -64q-189 -126 -252 -400q-30 -130 -30 -267q0 -298 129 -498l740 1043q-132 186 -366 186zM850 1495q228 0 407 -113l109 156l39 -27
l-113 -151q147 -104 225 -266t78 -336q0 -336 -228 -555q-105 -101 -245 -157t-299 -56q-239 0 -422 116l-125 -176l-38 27l131 172q-141 100 -226 256q-84 156 -84 343q-1 188 63 328q126 278 424 387q144 52 304 52zM981 1954l-287 -314l-20 13l213 360q45 0 63 -16
t31 -33v-10z" />
    <glyph glyph-name="oslashacute" unicode="&#x1ff;" horiz-adv-x="1046" 
d="M754 191q65 136 65 305t-63 299l-453 -641q83 -133 226 -132t225 169zM737 825q-82 133 -215 132q-134 -1 -213 -144t-81 -321q-1 -179 59 -308zM550 989q128 0 253 -84l117 168l30 -20l-121 -166q79 -59 129 -155t50 -216q0 -118 -39 -212q-81 -194 -257 -271
q-87 -39 -184 -39q-161 0 -284 88l-131 -186l-31 22l137 182q-180 145 -180 402q0 194 139 340q139 147 372 147zM676 1489l-287 -313l-20 12l213 360q45 0 63 -16t31 -33v-10z" />
    <glyph glyph-name="A_dblgrave" unicode="&#x200;" horiz-adv-x="1441" 
d="M641 1241q-81 -181 -262 -633h510q-35 92 -71 184t-69 178l-62 155q-28 71 -46 116zM1507 0h-598v20q32 0 68 14q74 29 76 81q0 73 -148 450h-545q-32 -79 -60 -149t-64 -162t-35 -126q0 -36 24 -61t71 -34q48 -8 75 -13v-20h-437v23q54 7 92 29t48 33q45 50 106 184
q60 134 168 385t164 385q57 134 106 249l-20 45q110 48 180 170h17q108 -292 195 -524q87 -233 136 -365q155 -418 196 -480q70 -104 185 -109v-25zM709 1915v10q12 17 28 33t62 16l178 -356l-23 -12zM465 1915v10q13 17 29 33t61 16l211 -352l-23 -12z" />
    <glyph glyph-name="a_dblgrave" unicode="&#x201;" horiz-adv-x="917" 
d="M571 242v315q-37 -27 -92 -57t-107 -64q-52 -35 -90 -77t-38 -95t37 -96t93 -43q114 0 173 59q24 23 24 58zM840 131q82 0 100 70h12q-4 -80 -60 -141q-56 -62 -134 -62t-132 41t-55 143l-4 2q-39 -66 -93 -108q-98 -76 -212 -76q-115 0 -163 102q-17 36 -17 92
q0 103 151 199q151 95 205 125q54 29 84 44t49 28v211q0 19 -24 43q-52 51 -127 51q-76 0 -129 -40q-53 -36 -53 -64v-93q0 -30 -30 -52t-64 -22t-58 24t-23 52q0 28 18 56q18 29 52 49q35 20 69 41t113 61q78 40 147 61q70 21 110 21q40 1 87 -27t68 -69q12 -21 12 -121
l-4 -489q0 -92 32 -122t73 -30zM496 1401v10q12 17 28 33t62 16l178 -356l-23 -12zM252 1401v10q12 17 28 33t62 16l211 -352l-23 -12z" />
    <glyph glyph-name="A_invertedbreve" unicode="&#x202;" horiz-adv-x="1441" 
d="M641 1241q-81 -181 -262 -633h510q-35 92 -71 184t-69 178l-62 155q-28 71 -46 116zM1507 0h-598v20q32 0 68 14q74 29 76 81q0 73 -148 450h-545q-32 -79 -60 -149t-64 -162t-35 -126q0 -36 24 -61t71 -34q48 -8 75 -13v-20h-437v23q54 7 92 29t48 33q45 50 106 184
q60 134 168 385t164 385q57 134 106 249l-20 45q110 48 180 170h17q108 -292 195 -524q87 -233 136 -365q155 -418 196 -480q70 -104 185 -109v-25zM946 1628v-22h-26q-6 102 -60 152t-138 50q-85 0 -139 -50t-61 -152h-26v22q0 140 60 213q60 72 164 72q103 0 165 -72
q61 -73 61 -213z" />
    <glyph glyph-name="a_invertedbreve" unicode="&#x203;" horiz-adv-x="917" 
d="M571 242v315q-37 -27 -92 -57t-107 -64q-52 -35 -90 -77t-38 -95t37 -96t93 -43q114 0 173 59q24 23 24 58zM840 131q82 0 100 70h12q-4 -80 -60 -141q-56 -62 -134 -62t-132 41t-55 143l-4 2q-39 -66 -93 -108q-98 -76 -212 -76q-115 0 -163 102q-17 36 -17 92
q0 103 151 199q151 95 205 125q54 29 84 44t49 28v211q0 19 -24 43q-52 51 -127 51q-76 0 -129 -40q-53 -36 -53 -64v-93q0 -30 -30 -52t-64 -22t-58 24t-23 52q0 28 18 56q18 29 52 49q35 20 69 41t113 61q78 40 147 61q70 21 110 21q40 1 87 -27t68 -69q12 -21 12 -121
l-4 -489q0 -92 32 -122t73 -30zM733 1114v-22h-26q-5 102 -59 152t-139 50t-139 -50t-61 -152h-26v22q0 140 60 213q60 72 164 72q103 0 165 -72q61 -73 61 -213z" />
    <glyph glyph-name="E_dblgrave" unicode="&#x204;" horiz-adv-x="1456" 
d="M84 0v20q115 18 168 78q13 16 25 79t12 142l4 306v518q0 220 -35 252q-32 33 -66 42t-90 17v21h1131l139 -338l-20 -11q-166 207 -312 279q-90 41 -358 41q-104 0 -156 -10q-10 -82 -10 -267v-237l2 -139v-23h41q148 0 213 15q122 28 173 100q39 53 69 184h24v-645h-24
q-16 66 -50 136t-69 101q-70 64 -188 72q-62 4 -99 4h-88q-4 -29 -4 -84v-245l2 -113q5 -172 27 -206q37 -58 252 -58q214 0 321 46q153 67 299 320l23 -6l-103 -391h-1253zM750 1886v10q12 16 28 32t62 18l178 -357l-23 -12zM506 1886v10q12 16 28 32t62 18l211 -353
l-23 -12z" />
    <glyph glyph-name="e_dblgrave" unicode="&#x205;" horiz-adv-x="890" 
d="M668 770q0 76 -52 130t-126 54q-72 0 -118 -34t-92 -94q-46 -61 -63 -146h84l234 4q74 0 104 12q29 33 29 74zM590 135q102 0 179 52t101 128l17 -4q-20 -112 -124 -212q-104 -101 -261 -101q-210 0 -337 148q-126 149 -126 349t121 347t304 147t282 -83
q113 -91 124 -255h-657l-4 -82q0 -181 99 -308q99 -126 282 -126zM451 1401v10q12 17 28 33t62 16l178 -356l-23 -12zM207 1401v10q13 17 29 33t61 16l211 -352l-23 -12z" />
    <glyph glyph-name="E_invertedbreve" unicode="&#x206;" horiz-adv-x="1456" 
d="M84 0v20q115 18 168 78q13 16 25 79t12 142l4 306v518q0 220 -35 252q-32 33 -66 42t-90 17v21h1131l139 -338l-20 -11q-166 207 -312 279q-90 41 -358 41q-104 0 -156 -10q-10 -82 -10 -267v-237l2 -139v-23h41q148 0 213 15q122 28 173 100q39 53 69 184h24v-645h-24
q-16 66 -50 136t-69 101q-70 64 -188 72q-62 4 -99 4h-88q-4 -29 -4 -84v-245l2 -113q5 -172 27 -206q37 -58 252 -58q214 0 321 46q153 67 299 320l23 -6l-103 -391h-1253zM987 1599v-22h-26q-5 103 -59 153t-139 50t-139 -50t-61 -153h-26v22q0 140 61 214q61 73 165 72
q103 -1 164 -73q60 -73 60 -213z" />
    <glyph glyph-name="e_invertedbreve" unicode="&#x207;" horiz-adv-x="890" 
d="M668 770q0 76 -52 130t-126 54q-72 0 -118 -34t-92 -94q-46 -61 -63 -146h84l234 4q74 0 104 12q29 33 29 74zM590 135q102 0 179 52t101 128l17 -4q-20 -112 -124 -212q-104 -101 -261 -101q-210 0 -337 148q-126 149 -126 349t121 347t304 147t282 -83
q113 -91 124 -255h-657l-4 -82q0 -181 99 -308q99 -126 282 -126zM688 1114v-22h-26q-6 102 -60 152t-138 50q-85 0 -139 -50t-61 -152h-26v22q0 140 60 213q60 72 164 72q103 0 165 -72q61 -73 61 -213z" />
    <glyph glyph-name="I_dblgrave" unicode="&#x208;" horiz-adv-x="817" 
d="M520 289q0 -59 2 -115t23 -84q21 -29 73 -47t97 -23v-20h-621v20q115 18 170 80q29 35 29 219l4 306v592q0 132 -30 166q-51 58 -167 71v21h613v-21q-43 -6 -92 -22q-91 -30 -96 -154q-1 -53 -3 -100l-2 -203v-686zM268 1886v10q12 16 28 32t62 18l179 -357l-23 -12z
M25 1886v10q12 16 28 32t62 18l211 -353l-23 -12z" />
    <glyph glyph-name="i_dblgrave" unicode="&#x209;" horiz-adv-x="520" 
d="M176 86v711q0 16 -2 24q-5 18 -117 64v14l277 90h12v-915q9 -44 89 -48q22 -1 42 -6v-20h-440v20q139 11 139 66zM121 1401v10q13 17 29 33t61 16l178 -356l-22 -12zM-123 1401v10q13 17 29 33t61 16l211 -352l-22 -12z" />
    <glyph glyph-name="I_invertedbreve" unicode="&#x20a;" horiz-adv-x="817" 
d="M520 289q0 -59 2 -115t23 -84q21 -29 73 -47t97 -23v-20h-621v20q115 18 170 80q29 35 29 219l4 306v592q0 132 -30 166q-51 58 -167 71v21h613v-21q-43 -6 -92 -22q-91 -30 -96 -154q-1 -53 -3 -100l-2 -203v-686zM629 1599v-22h-27q-6 103 -59 153t-139 50t-139 -50
q-54 -50 -60 -153h-27v22q0 141 58 207q65 80 167 78q53 0 97 -22q96 -49 117 -153q12 -57 12 -110z" />
    <glyph glyph-name="i_invertedbreve" unicode="&#x20b;" horiz-adv-x="520" 
d="M176 86v711q0 16 -2 24q-5 18 -117 64v14l277 90h12v-915q9 -44 89 -48q22 -1 42 -6v-20h-440v20q139 11 139 66zM481 1114v-22h-26q-5 102 -59 152t-139 50t-139 -50t-61 -152h-26v22q0 140 60 213q60 72 164 72q103 0 165 -72q61 -73 61 -213z" />
    <glyph glyph-name="O_dblgrave" unicode="&#x20c;" horiz-adv-x="1654" 
d="M1341 743q0 280 -128 485q-148 234 -388 232q-133 0 -230 -64q-189 -126 -252 -400q-30 -130 -30 -266q0 -293 137 -501t381 -209q129 0 225 66q95 66 158 169q127 208 127 488zM1595 740q0 -156 -61 -296q-125 -285 -413 -399q-140 -55 -297 -55t-296 54
q-284 110 -408 391q-60 138 -60 309q0 172 62 312q126 278 424 387q144 52 311 52t305 -61t235 -165q198 -212 198 -529zM815 1907v10q13 17 29 33t61 16l178 -356l-22 -13zM571 1907v10q13 17 29 33t62 16l210 -352l-22 -12z" />
    <glyph glyph-name="o_dblgrave" unicode="&#x20d;" horiz-adv-x="1046" 
d="M753 191q64 137 64 311q0 173 -65 299q-80 155 -234 155q-127 0 -207 -140t-82 -327q0 -320 164 -429q57 -38 137 -38q144 0 223 169zM1008 512q0 -114 -39 -208q-81 -194 -257 -271q-88 -39 -176 -39q-193 0 -332 120q-165 140 -165 388q0 194 139 340q139 147 354 147
q179 0 319 -122q69 -60 113 -151q44 -90 44 -204zM510 1401v10q12 17 28 33t62 16l178 -356l-22 -12zM266 1401v10q12 17 28 33t62 16l211 -352l-22 -12z" />
    <glyph glyph-name="O_invertedbreve" unicode="&#x20e;" horiz-adv-x="1654" 
d="M1341 743q0 280 -128 485q-148 234 -388 232q-133 0 -230 -64q-189 -126 -252 -400q-30 -130 -30 -266q0 -293 137 -501t381 -209q129 0 225 66q95 66 158 169q127 208 127 488zM1595 740q0 -156 -61 -296q-125 -285 -413 -399q-140 -55 -297 -55t-296 54
q-284 110 -408 391q-60 138 -60 309q0 172 62 312q126 278 424 387q144 52 311 52t305 -61t235 -165q198 -212 198 -529zM1053 1620v-23h-27q-6 103 -59 153t-139 50t-139 -50q-54 -50 -60 -153h-27v23q0 140 60 213q60 72 165 72q53 0 97 -23q96 -50 117 -152
q12 -57 12 -110z" />
    <glyph glyph-name="o_invertedbreve" unicode="&#x20f;" horiz-adv-x="1046" 
d="M753 191q64 137 64 311q0 173 -65 299q-80 155 -234 155q-127 0 -207 -140t-82 -327q0 -320 164 -429q57 -38 137 -38q144 0 223 169zM1008 512q0 -114 -39 -208q-81 -194 -257 -271q-88 -39 -176 -39q-193 0 -332 120q-165 140 -165 388q0 194 139 340q139 147 354 147
q179 0 319 -122q69 -60 113 -151q44 -90 44 -204zM748 1114v-22h-27q-6 102 -59 152q-52 50 -138 50t-140 -50t-60 -152h-27v22q0 140 60 213q60 72 165 72q54 0 98 -23q96 -50 116 -152q12 -57 12 -110z" />
    <glyph glyph-name="R_dblgrave" unicode="&#x210;" horiz-adv-x="1560" 
d="M1061 1118q0 78 -51 158t-146 125t-193 45q-97 0 -139 -6q-2 -12 -4 -22t-3 -23q-1 -14 -2 -40q-1 -25 -3 -85q-4 -119 -4 -324v-225q189 0 297 37q66 20 113 55q135 101 135 305zM657 1477q137 -1 243 -9t196 -55q200 -105 200 -332q0 -141 -93 -234t-245 -142v-7
q60 -31 122 -120q63 -89 125 -179q62 -89 125 -177t134 -138q72 -49 168 -64v-20h-420q-18 18 -26 28t-19 21q-10 12 -25 36t-51 76t-66 98q-172 264 -301 374q-69 59 -161 59q-18 0 -47 2v-231q0 -138 6 -279q2 -47 20 -76q18 -28 66 -56q47 -28 131 -32v-20h-655v20
q128 20 172 74q33 40 33 225l4 306v518q0 216 -35 248q-31 33 -69 44t-93 19v21h84l334 2h143zM600 1888v10q12 16 28 32t62 18l178 -357l-22 -12zM356 1888v10q12 16 28 32t62 18l211 -353l-22 -12z" />
    <glyph glyph-name="r_dblgrave" unicode="&#x211;" horiz-adv-x="731" 
d="M174 86v692q0 29 -19 41q-65 42 -94 53v13l269 104h12l-4 -284h4q70 175 174 249q48 35 106 35q58 -1 94 -31t36 -76t-27 -76t-70 -30t-78 37q-36 37 -75 37q-77 0 -158 -186v-590q15 -44 126 -48q28 -1 48 -6v-20h-459v20q115 10 115 66zM229 1401v10q13 17 29 33t61 16
l179 -356l-23 -12zM-14 1401v10q12 17 28 33t62 16l211 -352l-23 -12z" />
    <glyph glyph-name="R_invertedbreve" unicode="&#x212;" horiz-adv-x="1560" 
d="M1061 1118q0 78 -51 158t-146 125t-193 45q-97 0 -139 -6q-2 -12 -4 -22t-3 -23q-1 -14 -2 -40q-1 -25 -3 -85q-4 -119 -4 -324v-225q189 0 297 37q66 20 113 55q135 101 135 305zM657 1477q137 -1 243 -9t196 -55q200 -105 200 -332q0 -141 -93 -234t-245 -142v-7
q60 -31 122 -120q63 -89 125 -179q62 -89 125 -177t134 -138q72 -49 168 -64v-20h-420q-18 18 -26 28t-19 21q-10 12 -25 36t-51 76t-66 98q-172 264 -301 374q-69 59 -161 59q-18 0 -47 2v-231q0 -138 6 -279q2 -47 20 -76q18 -28 66 -56q47 -28 131 -32v-20h-655v20
q128 20 172 74q33 40 33 225l4 306v518q0 216 -35 248q-31 33 -69 44t-93 19v21h84l334 2h143zM879 1602v-23h-27q-6 103 -59 153t-139 50t-139 -50q-54 -50 -60 -153h-27v23q0 139 61 213q61 73 164 71q53 0 97 -22q96 -49 117 -153q12 -56 12 -109z" />
    <glyph glyph-name="r_invertedbreve" unicode="&#x213;" horiz-adv-x="731" 
d="M174 86v692q0 29 -19 41q-65 42 -94 53v13l269 104h12l-4 -284h4q70 175 174 249q48 35 106 35q58 -1 94 -31t36 -76t-27 -76t-70 -30t-78 37q-36 37 -75 37q-77 0 -158 -186v-590q15 -44 126 -48q28 -1 48 -6v-20h-459v20q115 10 115 66zM569 1114v-22h-26
q-5 102 -59 152t-139 50t-139 -50t-61 -152h-26v22q0 140 60 213q60 72 164 72q103 0 165 -72q61 -73 61 -213z" />
    <glyph glyph-name="U_dblgrave" unicode="&#x214;" horiz-adv-x="1708" 
d="M1421 662v356q0 235 -21 293q-43 118 -220 143v21h508v-21q-76 -10 -120 -39q-66 -44 -80 -137t-20 -359q-6 -265 -12 -383t-22 -185q-89 -374 -574 -371q-472 0 -570 351q-24 85 -24 185l2 354v347q0 130 -30 165q-50 59 -166 72v21h610v-21q-81 -11 -114 -33
q-68 -44 -72 -141q-4 -96 -4 -150v-421l2 -185q4 -218 118 -349q115 -130 323 -130t328 100q135 117 153 382q5 73 5 135zM866 1886v10q12 16 28 32t62 18l179 -357l-23 -12zM623 1886v10q12 16 28 32t62 18l211 -353l-23 -12z" />
    <glyph glyph-name="u_dblgrave" unicode="&#x215;" horiz-adv-x="1071" 
d="M731 819q0 73 -20 101q-40 16 -154 26v23h344v-809q-1 -29 19 -41q20 -13 56 -29l60 -27v-12l-291 -53h-14v207l-2 2q-140 -213 -328 -213q-254 0 -256 305v522q0 13 -2 29t-3 30q-4 59 -101 63q-20 1 -39 3v23h317v-596q0 -135 41 -200t161 -65t212 128v583zM506 1380
v11q12 16 28 32t62 17l178 -357l-22 -12zM262 1380v11q12 16 28 32t62 17l211 -353l-22 -12z" />
    <glyph glyph-name="U_invertedbreve" unicode="&#x216;" horiz-adv-x="1708" 
d="M1421 662v356q0 235 -21 293q-43 118 -220 143v21h508v-21q-76 -10 -120 -39q-66 -44 -80 -137t-20 -359q-6 -265 -12 -383t-22 -185q-89 -374 -574 -371q-472 0 -570 351q-24 85 -24 185l2 354v347q0 130 -30 165q-50 59 -166 72v21h610v-21q-81 -11 -114 -33
q-68 -44 -72 -141q-4 -96 -4 -150v-421l2 -185q4 -218 118 -349q115 -130 323 -130t328 100q135 117 153 382q5 73 5 135zM1104 1599v-22h-27q-6 103 -59 153t-138 50q-86 0 -140 -50t-60 -153h-27v22q0 139 62 213t165 73t164 -73q60 -73 60 -213z" />
    <glyph glyph-name="u_invertedbreve" unicode="&#x217;" horiz-adv-x="1071" 
d="M731 819q0 73 -20 101q-40 16 -154 26v23h344v-809q-1 -29 19 -41q20 -13 56 -29l60 -27v-12l-291 -53h-14v207l-2 2q-140 -213 -328 -213q-254 0 -256 305v522q0 13 -2 29t-3 30q-4 59 -101 63q-20 1 -39 3v23h317v-596q0 -135 41 -200t161 -65t212 128v583zM743 1094
v-23h-26q-5 103 -59 153t-139 50t-139 -50t-61 -153h-26v23q0 139 61 213q61 73 165 72q103 -1 164 -73q60 -73 60 -212z" />
    <glyph glyph-name="S_commaaccent" unicode="&#x218;" horiz-adv-x="1239" 
d="M983 1399q14 0 61 74h23v-379h-23q-91 249 -270 338q-120 60 -265 14q-116 -37 -164 -147q-24 -54 -23 -123q0 -193 235 -279q72 -28 133 -47t180 -63q119 -43 196 -141t77 -243q0 -192 -147 -306t-388 -112q-241 1 -361 74q-24 15 -32 15t-61 -72h-19l-6 408h21
q33 -99 88 -176q90 -125 165 -164q105 -54 203 -56q152 0 246 83t94 232t-143 222q-59 32 -247 95q-188 64 -243 104q-174 128 -174 342q0 88 40 168q79 159 264 211q89 26 217 26t236 -49q42 -18 64 -34t23 -15zM582 -307q-45 -1 -67 27q-21 28 -21 69t37 68q39 27 97 27
t102 -50q44 -48 44 -108q0 -107 -75 -169q-75 -61 -181 -63v21q72 14 112 46t40 81t-13 75q-30 -24 -75 -24z" />
    <glyph glyph-name="s_commaaccent" unicode="&#x219;" horiz-adv-x="782" 
d="M55 330h17q68 -209 184 -280q49 -30 132 -30t141 56t59 174q0 63 -40 105q-40 43 -102 55q-143 29 -214 53q-70 25 -118 91t-48 142q0 136 95 215q95 78 235 78t276 -53l24 -254l-16 -4q-71 150 -114 196q-78 85 -171 86t-147 -50q-55 -51 -55 -134q0 -82 43 -114t98 -46
t108 -25t93 -22q93 -23 157 -95t64 -163q0 -92 -32 -150q-91 -165 -351 -165q-180 0 -318 63v271zM351 -297q-43 0 -65 28q-22 29 -22 69t38 67t96 27t103 -49q44 -49 44 -109q0 -106 -75 -168t-181 -64v21q71 14 111 46t40 97q0 27 -12 60q-33 -25 -77 -25z" />
    <glyph glyph-name="T_commaaccent" unicode="&#x21a;" horiz-adv-x="1509" 
d="M864 297q0 -160 27 -198t83 -54t101 -25v-20h-665v20q53 6 102 20t96 69q29 29 29 219l4 299v794h-135l-125 -2q-78 -2 -139 -21t-120 -98q-96 -127 -124 -210l-18 6l61 389q136 -29 390 -29h460l377 4q102 3 202 35l66 -399l-18 -6q-43 101 -132 216q-23 30 -52 58
q-54 52 -208 55l-125 2h-135l-2 -323v-801zM616 -196q0 40 38 67t96 27t103 -49q44 -49 44 -109q0 -106 -75 -168t-181 -64v21q72 14 112 46t40 97q0 24 -13 60q-32 -25 -77 -25q-43 0 -65 28q-22 29 -22 69z" />
    <glyph glyph-name="t_commaaccent" unicode="&#x21b;" horiz-adv-x="663" 
d="M27 844v22l297 281h16v-178h379l-64 -125h-311v-539q0 -104 45 -151t117 -48q109 0 166 80l12 -6q-71 -184 -289 -184q-134 0 -204 109q-19 32 -19 65l4 674h-149zM231 -200q0 40 38 67q39 27 97 27t102 -49t44 -109q0 -106 -75 -168t-181 -64v21q72 14 112 46t40 97
q0 24 -13 60q-32 -25 -77 -25q-44 0 -66 28q-22 29 -21 69z" />
    <glyph glyph-name="Hcaron" unicode="&#x21e;" horiz-adv-x="1843" 
d="M1741 0h-629v20q76 6 127 28t67 47t18 132q1 107 1 180v322h-809v-440q0 -59 2 -115t23 -84q41 -57 153 -70v-20h-604v20q121 19 170 76q12 15 21 84q8 68 8 139l4 306v592q0 132 -30 166q-51 58 -167 71v21h611v-21q-83 -11 -115 -33q-66 -44 -70 -124q-6 -121 -6 -258
v-269h809v330q0 229 -32 277q-32 47 -79 61t-94 16v21h617v-21q-161 -20 -178 -130q-9 -58 -9 -107v-685l2 -253q0 -151 23 -186q38 -57 166 -73v-20zM1126 1925l-194 -348h-31l-194 348l24 14l184 -227l187 227z" />
    <glyph glyph-name="hcaron" unicode="&#x21f;" horiz-adv-x="1073" 
d="M1053 0h-422v23q55 4 92 13t37 42v512q0 134 -30 185q-30 50 -66 71q-37 20 -103 20q-131 0 -199 -98q-18 -27 -18 -61v-629q0 -44 74 -51q20 -2 41 -7v-20h-408v20q47 4 85 16t38 50v1163q0 29 -18 43t-46 28t-55 30v12l275 125h16l-6 -711l4 -2q60 125 222 192
q58 24 127 24q130 -1 184 -83q55 -82 55 -231v-604q0 -36 82 -48q20 -3 39 -6v-18zM762 1937l-195 -348h-30l-195 348l25 15l184 -228l186 228z" />
    <glyph glyph-name="Adotaccent" unicode="&#x226;" horiz-adv-x="1441" 
d="M641 1241q-81 -181 -262 -633h510q-35 92 -71 184t-69 178l-62 155q-28 71 -46 116zM1507 0h-598v20q32 0 68 14q74 29 76 81q0 73 -148 450h-545q-32 -79 -60 -149t-64 -162t-35 -126q0 -36 24 -61t71 -34q48 -8 75 -13v-20h-437v23q54 7 92 29t48 33q45 50 106 184
q60 134 168 385t164 385q57 134 106 249l-20 45q110 48 180 170h17q108 -292 195 -524q87 -233 136 -365q155 -418 196 -480q70 -104 185 -109v-25zM825 1710q-1 -43 -31 -74q-30 -30 -72 -30t-74 32t-32 73q0 42 31 72q31 29 74 29t74 -29q30 -30 30 -73z" />
    <glyph glyph-name="adotaccent" unicode="&#x227;" horiz-adv-x="917" 
d="M571 242v315q-37 -27 -92 -57t-107 -64q-52 -35 -90 -77t-38 -95t37 -96t93 -43q114 0 173 59q24 23 24 58zM840 131q82 0 100 70h12q-4 -80 -60 -141q-56 -62 -134 -62t-132 41t-55 143l-4 2q-39 -66 -93 -108q-98 -76 -212 -76q-115 0 -163 102q-17 36 -17 92
q0 103 151 199q151 95 205 125q54 29 84 44t49 28v211q0 19 -24 43q-52 51 -127 51q-76 0 -129 -40q-53 -36 -53 -64v-93q0 -30 -30 -52t-64 -22t-58 24t-23 52q0 28 18 56q18 29 52 49q35 20 69 41t113 61q78 40 147 61q70 21 110 21q40 1 87 -27t68 -69q12 -21 12 -121
l-4 -489q0 -92 32 -122t73 -30zM612 1196q0 -43 -30 -74q-30 -30 -73 -30q-42 0 -74 32t-32 73q0 42 31 72q31 29 74 29t74 -29q30 -30 30 -73z" />
    <glyph glyph-name="Ecedilla" unicode="&#x228;" horiz-adv-x="1456" 
d="M948 -285q0 -86 -73 -134t-142 -48q-155 0 -155 92q0 19 14 39t52 20t56 -22l-2 -41q0 -63 45 -63q37 0 64 28t27 83q0 53 -38 97t-112 68l164 166h-764v20q115 18 168 78q13 16 25 79t12 142l4 306v518q0 220 -35 252q-32 33 -66 42t-90 17v21h1131l139 -338l-20 -11
q-166 207 -312 279q-90 41 -358 41q-104 0 -156 -10q-10 -82 -10 -267v-237l2 -139v-23h41q148 0 213 15q122 28 173 100q39 53 69 184h24v-645h-24q-16 66 -50 136t-69 101q-70 64 -188 72q-62 4 -99 4h-88q-4 -29 -4 -84v-245l2 -113q5 -172 27 -206q37 -58 252 -58
q214 0 321 46q153 67 299 320l23 -6l-103 -391h-448l-92 -96q90 -35 128 -103q23 -41 23 -86z" />
    <glyph glyph-name="ecedilla" unicode="&#x229;" horiz-adv-x="890" 
d="M668 770q0 76 -52 130t-126 54q-72 0 -118 -34t-92 -94q-46 -61 -63 -146h84l234 4q74 0 104 12q29 33 29 74zM590 135q102 0 179 52t101 128l17 -4q-20 -112 -124 -212q-104 -101 -261 -101q-210 0 -337 148q-126 149 -126 349t121 347t304 147t282 -83
q113 -91 124 -255h-657l-4 -82q0 -181 99 -308q99 -126 282 -126zM535 -332q0 113 -150 164l164 166h41l-92 -96q90 -35 128 -103q23 -41 23 -86q0 -86 -73 -134t-142 -48q-155 0 -155 92q0 19 14 39t52 20t56 -22l-2 -41q0 -63 45 -63q37 0 64 28t27 84z" />
    <glyph glyph-name="Odieresismacron" unicode="&#x22a;" horiz-adv-x="1654" 
d="M1341 743q0 280 -128 485q-148 234 -388 232q-133 0 -230 -64q-189 -126 -252 -400q-30 -130 -30 -266q0 -293 137 -501t381 -209q129 0 225 66q95 66 158 169q127 208 127 488zM1595 740q0 -156 -61 -296q-125 -285 -413 -399q-140 -55 -297 -55t-296 54
q-284 110 -408 391q-60 138 -60 309q0 172 62 312q126 278 424 387q144 52 311 52t305 -61t235 -165q198 -212 198 -529zM752 1692q0 -39 -28 -67t-67 -28t-67 28t-27 67q0 38 28 66q29 28 67 28t66 -28t28 -66zM1094 1692q0 -39 -28 -67t-67 -28t-67 28t-27 67q0 38 28 66
q29 28 67 28t66 -28t28 -66zM1116 1888h-575v92h575v-92z" />
    <glyph glyph-name="odieresismacron" unicode="&#x22b;" horiz-adv-x="1046" 
d="M753 191q64 137 64 311q0 173 -65 299q-80 155 -234 155q-127 0 -207 -140t-82 -327q0 -320 164 -429q57 -38 137 -38q144 0 223 169zM1008 512q0 -114 -39 -208q-81 -194 -257 -271q-88 -39 -176 -39q-193 0 -332 120q-165 140 -165 388q0 194 139 340q139 147 354 147
q179 0 319 -122q69 -60 113 -151q44 -90 44 -204zM446 1186q0 -39 -28 -67q-28 -27 -66 -27t-66 28t-28 66t28 66t66 28t66 -28t28 -66zM788 1186q0 -39 -28 -67q-28 -27 -66 -27t-66 28t-28 66t28 66t66 28t66 -28t28 -66zM811 1382h-575v93h575v-93z" />
    <glyph glyph-name="Otildemacron" unicode="&#x22c;" horiz-adv-x="1654" 
d="M1341 743q0 280 -128 485q-148 234 -388 232q-133 0 -230 -64q-189 -126 -252 -400q-30 -130 -30 -266q0 -293 137 -501t381 -209q129 0 225 66q95 66 158 169q127 208 127 488zM1595 740q0 -156 -61 -296q-125 -285 -413 -399q-140 -55 -297 -55t-296 54
q-284 110 -408 391q-60 138 -60 309q0 172 62 312q126 278 424 387q144 52 311 52t305 -61t235 -165q198 -212 198 -529zM522 1597q53 201 226 201l182 -39q76 -1 119 17t57 88h29q-23 -95 -60 -136t-76 -58t-96 -17l-186 39q-89 0 -116 -14t-52 -81h-27zM1116 1966h-575v92
h575v-92z" />
    <glyph glyph-name="otildemacron" unicode="&#x22d;" horiz-adv-x="1046" 
d="M753 191q64 137 64 311q0 173 -65 299q-80 155 -234 155q-127 0 -207 -140t-82 -327q0 -320 164 -429q57 -38 137 -38q144 0 223 169zM1008 512q0 -114 -39 -208q-81 -194 -257 -271q-88 -39 -176 -39q-193 0 -332 120q-165 140 -165 388q0 194 139 340q139 147 354 147
q179 0 319 -122q69 -60 113 -151q44 -90 44 -204zM217 1092q52 200 225 200l183 -39q77 -1 119 17t57 88h28q-24 -96 -60 -137q-67 -74 -171 -74l-186 39q-89 0 -116 -13t-52 -81h-27zM811 1460h-575v92h575v-92z" />
    </font>
</defs>
</svg>
